<svg width="15" height="9" viewBox="0 0 15 9" fill="none" xmlns="http://www.w3.org/2000/svg">
<path fill-rule="evenodd" clip-rule="evenodd" d="M0.652815 1.13629C0.915037 0.881208 1.27064 0.737912 1.64142 0.737912C2.0122 0.737912 2.3678 0.881208 2.63003 1.13629L7.23467 5.61685L11.8393 1.13629C11.9683 1.00633 12.1226 0.902676 12.2932 0.831367C12.4638 0.760058 12.6473 0.722523 12.8329 0.720953C13.0186 0.719383 13.2027 0.753809 13.3746 0.822223C13.5464 0.890637 13.7026 0.991668 13.8339 1.11942C13.9651 1.24717 14.069 1.39909 14.1393 1.56631C14.2096 1.73353 14.245 1.91269 14.2434 2.09336C14.2417 2.27402 14.2032 2.45256 14.1299 2.61857C14.0566 2.78457 13.9501 2.93471 13.8165 3.06022L8.22327 8.50275C7.96105 8.75783 7.60545 8.90113 7.23467 8.90113C6.86388 8.90113 6.50828 8.75783 6.24606 8.50275L0.652815 3.06022C0.390672 2.80506 0.243408 2.45905 0.243408 2.09825C0.243408 1.73746 0.390672 1.39144 0.652815 1.13629Z" fill="black"/>
</svg>
