<svg width="104" height="124" viewBox="0 0 104 124" fill="none" xmlns="http://www.w3.org/2000/svg">
<path d="M14.3978 83.026C14.114 82.9536 12.2213 80.2036 11.3105 78.8376L10.4957 82.0303L9.65149 91.2608C10.7939 93.6934 13.1845 98.7368 13.6073 99.4492C14.1357 100.34 18.2041 103.645 18.4683 104.09C18.7325 104.536 24.7557 107.584 25.2841 108.474C25.7068 109.187 29.8883 111.161 31.9262 112.059C38.1377 112.888 50.65 114.494 51.0062 114.283C51.3624 114.072 58.9083 114.41 62.6367 114.606L73.9346 110.31L79.1946 105.985L82.8693 98.9883L82.8157 91.7957C82.1315 92.5027 80.674 93.9695 80.3178 94.1809C79.9616 94.3923 77.0199 96.7399 75.5936 97.8872C72.9848 98.7328 67.6072 100.459 66.9672 100.598C66.3272 100.737 62.5546 101.109 60.7483 101.278L52.1367 100.969C48.6171 100.449 41.4178 99.4429 40.7778 99.5819C40.1378 99.7208 34.8957 97.9549 32.3546 97.0545L24.7388 92.844C23.1185 91.2969 19.754 88.0957 19.2589 87.6671C18.6399 87.1313 14.7526 83.1166 14.3978 83.026Z" fill="#F969E5"/>
<path d="M71.7114 74.6042C67.9023 72.7505 60.2131 69.025 59.9293 68.9526L58.3367 67.7905C58.1809 69.388 57.8246 72.6473 57.6457 72.9039C57.4222 73.2247 56.3082 83.1421 56.2516 83.3638C56.195 83.5855 54.8745 85.7989 54.4292 86.0631C53.984 86.3273 48.3008 86.3884 47.9461 86.2978C47.5914 86.2073 43.244 85.4757 42.9798 85.0304C42.7156 84.5852 40.3303 82.0873 39.7114 81.5515C39.0924 81.0157 38.9261 78.7062 38.6619 78.261C38.4505 77.9048 39.4433 69.7701 39.9661 65.7473L38.464 64.2304L30.1093 65.8767L20.3282 68.6704L14.2682 73.1693C13.6093 74.7644 12.2733 78.0255 12.2009 78.3093C12.1103 78.6641 14.5787 82.3167 14.843 82.762C15.1072 83.2072 19.6135 87.7578 19.8777 88.203C20.1419 88.6483 24.2103 91.9536 24.4745 92.3988C24.6859 92.755 31.0538 96.7227 34.2113 98.662C36.5184 98.9989 41.2743 99.7088 41.8419 99.8536C42.5513 100.035 54.3555 101.158 54.7103 101.248C55.065 101.339 61.9029 101.195 62.3482 100.93C62.7044 100.719 67.8854 100.454 70.4313 100.348L79.2461 95.4189L82.9966 91.0863C82.9713 90.1982 82.868 88.3331 82.6566 87.9768C82.4452 87.6206 79.6949 82.3091 78.3461 79.6979L71.7114 74.6042Z" fill="#B52EA2"/>
<path d="M58.9482 69.8357L59.5208 61.6694C56.8313 60.8571 51.3105 59.1963 50.7429 59.0515L41.5198 56.6977C41.3664 57.7921 41.0416 60.0519 40.9692 60.3356C40.8968 60.6194 39.4106 70.3914 38.6766 75.2419L38.2092 80.0346L40.4134 83.242L46.6102 87.0904L51.9386 86.9388L56.0365 84.2062L58.9482 69.8357Z" fill="#829BAC"/>
<path d="M24.8969 24.1178L24.8285 19.9441L25.5527 17.1062C24.1516 19.1417 21.2605 23.2654 20.9043 23.4767C20.459 23.7409 18.2863 32.2546 18.1958 32.6094C18.1234 32.8932 18.8555 36.9339 19.2305 38.9188L22.22 44.9715C24.7561 46.8781 29.9522 50.7986 30.4474 51.2273C30.9425 51.6559 35.7912 53.9764 38.1537 55.0831C43.0294 56.7052 52.852 59.9675 53.1358 60.0399C53.4195 60.1124 59.4631 61.4028 62.4494 62.0389L74.3515 61.2979L85.1136 57.6211L89.7547 52.76L92.6516 41.4085L93.1189 36.6158C91.4537 38.206 88.0341 41.4392 87.6779 41.6505C87.3217 41.8619 84.6214 43.2635 83.3158 43.9379C81.2705 44.5495 76.9309 45.8602 75.9347 46.2105C74.9385 46.5608 69.2453 46.2667 66.5231 46.0758L54.8926 45.7526L47.1789 43.4063L38.6726 39.7241L32.8305 35.9662L27.6221 29.7252L24.8969 24.1178Z" fill="#B52EA2"/>
<path d="M27.1602 15.2492L31.877 13.0524C32.3826 12.5517 33.5539 11.5155 34.1939 11.3766C34.9939 11.2029 41.5675 10.6134 42.0128 10.3492C42.369 10.1379 48.3802 9.58117 51.3412 9.32924L64.1191 11.0787C67.2514 12.13 73.5869 14.2506 73.8707 14.323C74.1545 14.3954 78.8296 17.0998 81.1317 18.443L89.3591 24.6988L92.6128 31.1967C92.6054 32.7062 92.5544 35.867 92.4096 36.4346C92.2647 37.0022 90.5633 38.7342 89.7306 39.5293C88.571 40.6188 86.1626 42.8506 85.8064 43.0619C85.3612 43.3261 79.4896 45.6061 78.6896 45.7798C78.0496 45.9188 71.6706 46.6335 68.5612 46.9735L60.1306 45.9556L50.2812 44.5755L45.6696 43.3987C45.3858 43.3263 40.4742 40.5615 38.0538 39.1882L31.5928 34.8945L26.558 29.4534L24.3686 23.2271L25.0096 19.2345L27.1602 15.2492Z" fill="#F969E5"/>
<path d="M87.8066 54.8326C86.5802 55.7688 86.1012 56.053 85.6007 56.3615C84.8635 56.8158 83.9215 57.4159 83.4932 57.6124C82.9032 57.883 82.1849 58.3074 81.6157 58.5874C81.2121 58.786 80.8459 58.8712 80.3669 59.039C79.8864 59.2074 79.5045 59.3419 79.0966 59.5148C78.5957 59.7271 78.0878 59.8823 77.4715 60.1316C76.8537 60.3815 76.4168 60.5027 76.0504 60.5697C75.6103 60.6501 75.0699 60.7696 74.6582 60.8975C74.2472 61.0251 73.8101 61.146 73.4298 61.2675C73.0261 61.3963 72.5172 61.4267 72.0693 61.4729C71.6102 61.5202 71.259 61.5714 70.8043 61.6442C70.2719 61.7295 69.7204 61.7894 69.2251 61.7939C68.7523 61.7981 68.2306 61.9326 67.7214 61.9335C67.0674 61.9347 66.6187 61.8702 66.0573 61.9014C65.4298 61.9363 64.5137 61.7988 62.8174 61.6844C62.4229 61.6718 62.2469 61.6845 61.9297 61.6763C61.6125 61.6682 61.1594 61.639 60.6925 61.6088" stroke="black" stroke-width="1.70485" stroke-linecap="round"/>
<path d="M87.4565 55.1795C87.8127 54.9223 88.059 54.6372 88.5879 53.9883C88.8904 53.6173 89.1251 53.1942 89.2851 52.856C89.4359 52.5373 89.6566 52.2534 89.867 51.8853C90.0471 51.5702 90.174 51.2514 90.3164 50.866C90.4792 50.4253 90.6931 49.9009 91.2075 47.9451C91.3963 47.227 91.3792 46.7611 91.4389 46.3546C91.4662 46.1689 91.7543 44.8331 92.2658 42.8852C92.6654 41.3635 93.0178 39.9983 93.1472 39.3186C93.2355 38.855 93.2373 38.4544 93.2323 38.0741C93.2278 37.733 93.2507 37.1511 93.2502 36.5238C93.2499 36.0491 93.2093 35.7134 93.199 35.1298C93.1902 34.6253 93.1148 34.1487 93.0283 33.7476C92.9466 33.3685 92.9439 32.8839 92.8507 32.3362C92.7744 31.8876 92.5553 31.4465 92.4407 30.9231C92.3499 30.5084 92.2274 29.9968 91.9943 29.4283C91.5734 28.4018 90.9287 27.3397 90.641 26.6984C90.4195 26.2049 89.9946 25.7632 89.4637 25.1619C88.8819 24.5029 88.2539 23.8063 87.7137 23.2467C87.3295 22.8487 86.9958 22.5833 86.5126 22.1983C85.647 21.5085 84.8245 20.7207 84.4669 20.4689C83.9478 20.1034 83.2789 19.5987 82.205 18.9766C81.6198 18.6376 81.1945 18.3114 80.7586 18.0252C80.1562 17.6299 79.7516 17.2453 79.2743 16.9486C78.5925 16.5248 77.934 16.1708 77.3623 15.8932C76.9549 15.6954 76.256 15.4513 75.6372 15.1913C75.2576 15.0318 74.4507 14.7864 73.7007 14.5226C72.6084 14.1384 72.1682 14.0295 71.6702 13.8156C71.1713 13.6013 70.6956 13.4216 70.173 13.2442C69.5435 13.0305 68.6899 12.7353 66.4814 12.1277C66.0252 12.0021 65.9524 11.9495 65.1845 11.7387C64.4165 11.5279 62.9571 11.1554 62.1342 10.9598C60.7358 10.6274 59.9462 10.5319 59.1047 10.3612C58.069 10.1511 56.7922 9.90146 56.2903 9.87543C55.851 9.85266 55.271 9.83253 54.4912 9.80843C53.553 9.77943 52.9134 9.84152 52.2591 9.83504C51.5446 9.82797 50.9303 9.74368 50.4451 9.70667C49.7564 9.65412 49.0589 9.67263 48.4139 9.69644C46.584 9.76397 45.3424 9.88614 44.8022 9.99646C44.2614 10.1069 43.4606 10.191 42.9355 10.2472C42.3409 10.3108 41.5107 10.4209 41.072 10.5419C40.5217 10.6936 39.9181 10.6251 38.5904 10.8232C37.6548 10.9629 37.1075 11.0419 36.4915 11.1176C35.813 11.201 35.2397 11.4079 34.6677 11.5969C34.2144 11.7467 33.7132 11.9204 33.2846 12.0583C32.7821 12.22 32.2691 12.4521 31.6219 12.6516C31.1542 12.7957 30.626 13.0796 30.1967 13.2766C29.752 13.4807 29.1883 13.7019 28.5468 14.0468C28.0419 14.4274 27.5891 14.8343 27.2693 15.1749C27.183 15.2838 27.0876 15.4321 26.9893 15.585" stroke="black" stroke-width="1.70485" stroke-linecap="round"/>
<path d="M61.4296 61.7966C59.3629 61.0965 58.1562 60.7283 57.8059 60.6825C57.3196 60.619 56.7918 60.4962 55.1727 60.1702C53.8014 59.8941 51.3511 59.2246 50.0401 58.9044C48.6473 58.5643 48.064 58.473 47.2493 58.2507C46.756 58.1161 45.5857 57.7245 43.9624 57.2522C42.7609 56.9027 41.9686 56.5982 41.5008 56.3768C40.9639 56.1226 40.5155 56.0232 40.177 55.8644C39.8179 55.696 39.1264 55.4367 38.3576 55.1385C37.698 54.8826 37.2621 54.7568 36.6454 54.4403C36.1595 54.1908 35.2293 53.7461 34.4124 53.3902C33.6285 53.0486 33.0431 52.4886 32.719 52.217C32.3434 51.9022 31.8581 51.6628 31.4425 51.3534C30.9338 50.9749 30.3819 50.6178 29.9241 50.2393C29.2617 49.6916 28.8347 49.4954 28.0892 49.1163C27.5661 48.8504 27.1459 48.4835 26.4811 48.0666C25.8342 47.6608 25.2268 47.0063 24.7752 46.6568C24.2959 46.2859 23.9253 45.9466 23.6011 45.6157C23.3405 45.3497 23.054 45.0264 22.7789 44.6792C22.4547 44.2702 22.1652 43.84 21.8285 43.3904C21.3159 42.7057 20.8161 41.6063 20.5545 41.1461C20.3007 40.6995 20.1259 40.2089 19.9087 39.7456C19.6076 39.1033 19.3484 38.4699 19.1355 37.8189C18.9353 37.2065 18.9252 36.8196 18.8616 36.4397C18.7671 35.8745 18.6931 35.2199 18.6645 34.8192C18.6315 34.3565 18.7089 33.3397 18.7192 32.6667C18.7249 32.2979 18.8114 31.9056 18.8413 31.4482C18.913 30.3527 19.4332 29.0111 19.6484 28.3402C19.907 27.5342 20.2587 26.4599 20.3908 26.1146C20.5439 25.7149 20.7431 25.2454 21.0069 24.3841C21.1494 23.9189 21.4412 23.4189 21.6155 23.025C21.7689 22.6781 22.0216 22.2865 22.1538 21.9412C22.2774 21.6182 22.4433 21.3176 22.6363 21.0175C22.8294 20.7174 23.0895 20.3782 23.3349 19.9893C23.5326 19.676 23.7238 19.3763 23.9477 19.0117C24.1558 18.6728 24.405 18.4161 24.615 18.106C24.8871 17.704 25.189 17.395 25.3855 17.0813C25.6152 16.7147 25.9243 16.4486 26.1587 16.159C26.427 15.8493 26.7012 15.4552 27.3543 15.1125C27.5301 15.0544 27.679 15.0348 27.8325 15.0146" stroke="black" stroke-width="1.70485" stroke-linecap="round"/>
<path d="M59.4208 61.8072C59.406 63.4582 59.3483 64.1423 59.21 65.2519C59.1213 65.9633 58.9534 66.5991 58.8164 67.5905C58.3884 70.6884 58.1802 71.1124 58.1569 71.5439C58.1276 72.0853 58.0494 72.5341 57.9655 73.0356C57.8625 73.6511 57.7814 74.2679 57.5343 75.4091C57.3984 76.0362 57.4018 76.4391 57.3003 77.0095C57.2179 77.4728 57.1674 78.267 57.0306 79.0918C56.9309 79.6933 56.7943 80.5289 56.7204 80.9911C56.6375 81.5095 56.5192 82.2905 56.4453 82.7528C56.3318 83.4627 55.8551 84.4485 55.5176 84.7405C55.0179 85.1728 54.4772 85.5205 54.023 85.7552C53.5848 85.9817 53.1058 86.3342 52.5985 86.4969C52.1292 86.6475 51.6211 86.6828 51.2058 86.825C50.7554 86.9792 50.0352 86.8608 49.5421 86.8514C49.0498 86.8421 48.4912 86.7581 47.8334 86.6627C46.1156 86.4134 44.8261 85.9973 43.9919 85.6976C43.554 85.5403 43.2148 85.3244 42.9042 85.1727C42.5976 85.0231 42.153 84.7063 41.7871 84.4227C41.3617 84.0931 40.9614 83.5578 40.6995 83.2152C40.4372 82.8723 40.1403 82.448 39.702 81.9436C39.1647 81.3252 38.8712 80.7005 38.6877 80.1581C38.5415 79.7259 38.6721 79.0812 38.7159 77.7695C38.7514 76.7078 39.1063 75.5544 39.2631 74.7674C39.4051 74.0546 39.4438 73.4318 39.4984 72.8778C39.5502 72.352 39.644 71.7382 39.6877 71.1671C39.7266 70.6584 39.7894 69.9172 39.8571 69.3631C39.9147 68.8914 39.8929 68.37 39.9501 67.746C40.0661 66.4802 40.2656 66.1098 40.3304 65.5157C40.3922 64.9489 40.4728 64.3883 40.523 63.7918C40.6012 62.8623 40.8651 62.0512 40.9622 61.3872C41.0136 61.0355 41.1612 60.2076 41.2477 59.5846C41.314 59.1076 41.4367 58.4442 41.5054 57.8913C41.6005 57.3477 41.6221 57.0339 41.664 56.8697C41.6714 56.8406 41.6508 56.9217 41.6294 57.0052" stroke="black" stroke-width="1.13656" stroke-linecap="round"/>
<path d="M59.2016 68.8175C61.0567 69.4069 61.5316 69.5866 62.8524 70.1552C63.4149 70.3974 64.2094 70.7052 65.1392 71.1021C65.7361 71.3569 66.311 71.7065 67.0893 72.1227C68.5254 72.8908 69.1694 73.1634 69.7102 73.5483C70.1144 73.836 70.6873 74.1614 71.4259 74.6836C72.1371 75.1864 73.1062 75.6214 73.6785 76.0004C74.2297 76.3653 74.8072 76.8109 75.3745 77.2183C75.8264 77.5427 76.1906 77.8915 76.6066 78.2013C77.336 78.7447 77.5863 79.1497 77.9606 79.4484C78.405 79.8032 78.7366 80.1114 79.0699 80.4002C79.6377 80.8921 79.7701 81.3051 80.004 81.6417C80.2606 82.0112 80.6369 82.5713 81.062 83.1906C81.3391 83.5942 81.6531 84.284 81.9124 84.8181C82.1524 85.3127 82.4042 86.1331 82.6702 86.9725C82.9545 87.8698 82.9545 88.3113 83.0201 88.967C83.0965 89.7311 83.3015 91.3884 83.3222 92.2285C83.3368 92.8226 83.3527 93.5875 83.3032 94.0704C83.2588 94.5029 83.2653 94.8458 83.2046 95.3677C83.1342 95.972 82.8046 97.3348 82.5093 98.776C82.1058 100.745 81.59 102.211 81.4042 102.541C81.1199 103.045 80.9889 103.424 80.8168 103.759C80.5912 104.197 80.3966 104.494 80.1321 104.791C79.8468 105.11 79.7154 105.455 79.4543 105.737C79.2018 106.011 78.9191 106.298 78.6847 106.588C78.4336 106.898 78.095 107.135 77.7926 107.407C77.4902 107.679 77.189 107.95 76.8186 108.205C76.4307 108.472 75.8267 108.852 75.3454 109.08C74.8132 109.332 74.3053 109.57 73.6955 109.85C73.1594 110.097 72.7094 110.354 72.0963 110.591C71.4307 110.848 70.9077 111.145 70.5167 111.308C70.1054 111.479 69.5799 111.679 69.1438 111.902C68.7399 112.11 68.2713 112.247 67.857 112.388C67.3369 112.566 66.8356 112.636 66.3893 112.726C65.9175 112.822 65.5618 112.951 65.1814 113.072C64.8267 113.186 64.3786 113.26 63.9708 113.316C63.4773 113.384 62.9829 113.601 62.5033 113.712C62.2982 113.776 62.1056 113.843 61.9178 113.897C61.825 113.917 61.737 113.924 61.6463 113.93" stroke="black" stroke-width="1.70485" stroke-linecap="round"/>
<path d="M40.0322 64.9725C38.6339 64.7604 38.1694 64.7588 37.4498 64.7344C36.8646 64.7145 34.7062 65.0596 33.4958 65.2955C33.0938 65.3739 32.5765 65.5978 32.175 65.6855C31.7618 65.7759 31.1408 65.9869 30.5233 66.1215C30.0178 66.2317 29.4086 66.3892 28.9154 66.4963C28.373 66.6141 27.835 66.628 27.4448 66.7316C27.0056 66.8483 26.6449 66.8477 26.2002 66.9374C25.8037 67.0175 25.3732 67.1617 24.9683 67.2629C24.5578 67.3656 24.2091 67.5049 23.8288 67.6264C23.4741 67.7396 23.08 67.8274 22.597 68.0675C22.2069 68.2614 21.7245 68.3538 21.2384 68.5494C20.7354 68.7519 20.2939 68.9483 19.8348 69.0928C19.1671 69.303 18.6579 69.5479 18.1338 69.7199C17.3391 69.9807 16.7187 70.536 16.4395 70.8285C16.0581 71.228 15.6333 71.4803 15.3587 71.7596C15.0839 72.0392 14.837 72.3239 14.4587 72.8371C14.0504 73.3911 13.7431 73.7597 13.5256 74.1556C13.3472 74.4804 13.1631 74.8905 12.9837 75.2535C12.817 75.5906 12.6594 75.9553 12.4625 76.3269C12.2831 76.6654 12.1211 77.0392 11.9787 77.4247C11.8517 77.7683 11.6577 78.055 11.4925 78.3622C11.2782 78.8584 11.0428 79.5555 10.8711 80.2811C10.8728 80.4438 10.9401 80.5185 11.0094 80.5955" stroke="black" stroke-width="1.70485" stroke-linecap="round"/>
<path d="M62.1592 113.974C58.8049 114.135 57.3782 114.291 56.5454 114.329C55.9224 114.358 55.2242 114.5 54.5977 114.501C53.937 114.501 53.3511 114.545 52.6431 114.583C52.2354 114.605 51.7724 114.579 51.2181 114.583C50.5034 114.589 49.9218 114.543 49.1349 114.488C48.5228 114.445 47.9545 114.39 47.4159 114.326C46.9896 114.275 46.4176 114.259 45.7401 114.174C44.7966 114.056 44.1069 114.078 43.6352 114.044C43.1352 114.008 42.5109 113.96 41.2161 113.906C40.645 113.882 39.9839 113.723 39.4445 113.658C38.9664 113.6 38.3582 113.483 37.4268 113.318C36.2849 113.115 35.4606 112.859 34.962 112.776C33.0972 112.463 32.1702 111.991 31.419 111.727C30.2473 111.315 29.7639 111.145 29.4186 111.013C29.0957 110.889 28.7951 110.723 28.332 110.489C27.8431 110.241 27.4186 110.081 27.0665 109.918C26.693 109.746 26.3816 109.584 26.0541 109.442C25.6571 109.27 25.3256 109.053 24.9942 108.866C24.6452 108.67 24.1807 108.412 23.8392 108.208C23.4449 107.973 23.0567 107.689 22.281 107.201C21.7028 106.837 21.368 106.328 20.5939 105.666C20.4148 105.503 20.3274 105.394 20.013 105.097C19.6985 104.799 19.1596 104.316 18.6045 103.818" stroke="black" stroke-width="1.70485" stroke-linecap="round"/>
<path d="M10.8471 80.2052C10.7883 81.1193 10.609 81.596 10.3347 82.4983C9.96968 83.699 9.71733 84.8578 9.70499 85.3061C9.69445 85.6891 9.66332 86.0949 9.68895 86.4509C9.71458 86.8068 9.74011 87.1613 9.73143 87.5953C9.72292 88.0208 9.73347 88.4385 9.79335 88.8328C9.85116 89.2134 9.9129 89.5607 9.95204 89.9201C9.99373 90.3028 10.1256 90.6618 10.2606 91.0456C10.3907 91.4155 10.3941 91.7771 10.4467 92.1399C10.5075 92.5588 10.729 92.967 10.8712 93.3823C10.9918 93.7346 11.0722 94.131 11.2207 94.5183C11.3817 94.9383 11.6126 95.3157 11.7754 95.7066C11.953 96.1331 12.1877 96.5965 12.4413 97.083C12.6502 97.4837 13.2333 98.5155 13.6816 99.1738C13.9348 99.5456 14.2075 99.8458 14.4763 100.162C14.7562 100.491 15.0093 100.806 15.2744 101.136C15.5392 101.466 15.7969 101.822 16.0518 102.192C16.287 102.534 16.5916 102.81 16.8811 103.044C17.1913 103.295 17.4419 103.58 17.742 103.773C17.8915 103.869 18.0691 103.973 18.3573 104.147C18.5443 104.267 18.814 104.451 19.0919 104.641" stroke="black" stroke-width="1.70485" stroke-linecap="round"/>
<path d="M27.3476 15.7195C27.1195 16.2715 27.0508 16.428 26.9489 16.6272C26.8361 16.848 26.7982 17.0178 26.5888 17.4136C26.2433 18.0667 26.0848 18.2751 26.0022 18.4287C25.8799 18.6562 25.6546 18.9355 25.5735 19.1115C25.4693 19.3376 25.3271 19.5934 25.2506 19.8068C25.0705 20.3092 24.909 21.1154 24.8774 21.3254C24.8431 21.5538 24.8412 21.7811 24.8298 21.9677C24.8193 22.138 24.7941 22.3073 24.7828 22.4935C24.7674 22.7477 24.7463 22.9494 24.7591 23.1273C24.7729 23.3185 24.8013 23.5304 24.828 23.7119C24.854 23.8884 24.8536 24.0672 24.9004 24.2538C24.9444 24.4292 24.96 24.6177 24.9527 24.7905C24.9453 24.9667 24.9915 25.1779 25.0214 25.3751C25.0525 25.58 25.1631 25.76 25.2166 25.9483C25.2723 26.144 25.3445 26.3584 25.4151 26.566C25.4877 26.7789 25.5841 26.9578 25.6855 27.1584C25.7792 27.3435 25.9347 27.6858 26.0644 27.9529C26.1712 28.173 26.2977 28.376 26.6023 28.8598C26.8075 29.1856 27.0506 29.5277 27.185 29.6857C27.3307 29.857 27.4479 30.0217 27.6212 30.2257C27.8275 30.4688 27.9777 30.6803 28.1225 30.7975C28.2776 30.923 28.396 31.0923 28.6034 31.2761C28.8106 31.4597 28.9162 31.6176 29.0486 31.8113C29.1936 32.0233 29.344 32.163 29.4888 32.2802C29.6439 32.4057 29.7893 32.5819 30.0019 32.8032C30.203 33.0125 30.3025 33.1927 30.449 33.3031C30.5238 33.3512 30.5991 33.3996 30.6873 33.4512C30.7385 33.4788 30.8026 33.5096 30.8687 33.5413" stroke="black" stroke-width="1.13656" stroke-linecap="round"/>
<path d="M52.409 45.1888C49.9968 44.5588 49.6782 44.4483 49.382 44.3221C48.8904 44.1127 48.5691 44.0056 48.294 43.8844C48.0606 43.7815 47.2013 43.4106 46.6625 43.1555C46.2917 42.98 45.9021 42.8888 45.6547 42.8037C45.432 42.727 45.2268 42.6293 44.9066 42.4894C44.6002 42.3554 44.2831 42.2288 44.0587 42.1347C43.8225 42.0356 43.5836 41.9482 43.0617 41.6628C42.3453 41.271 41.7229 40.8785 41.3359 40.6984C41.0157 40.5494 40.6193 40.2907 40.2717 40.1145C39.7409 39.8455 39.3655 39.6218 39.1652 39.4614C38.9903 39.3213 38.7819 39.2835 38.5571 39.1679C38.3588 39.0659 38.1518 38.9631 37.9418 38.8436C37.7752 38.7489 37.5384 38.6321 37.3556 38.5196C37.1686 38.4045 36.9181 38.3281 36.7402 38.2245C36.5894 38.1367 36.3561 38.025 36.088 37.8764C35.8439 37.741 35.6635 37.659 35.3726 37.4904C35.1103 37.3383 34.7484 37.1498 34.4219 36.9424C34.2089 36.8071 33.9914 36.6365 33.6254 36.4194C33.2621 36.204 33.0346 35.9998 32.6957 35.7316C32.4349 35.5253 32.1591 35.3254 31.9941 35.1454C31.8468 34.9848 31.6589 34.8924 31.5193 34.7551C31.3795 34.6177 31.2101 34.4874 31.055 34.3242C30.89 34.1436 30.7676 34.0543 30.6524 33.9381C30.5844 33.8628 30.497 33.7541 30.3459 33.5393" stroke="black" stroke-width="1.13656" stroke-linecap="round"/>
<path d="M92.9023 35.7203C92.5157 36.5515 92.44 36.7355 92.2889 36.9294C92.102 37.1692 91.9522 37.3376 91.2214 38.0429C90.9196 38.3341 90.8528 38.5112 90.7136 38.6866C90.5901 38.8423 90.3964 38.9906 90.2484 39.1423C90.1184 39.2756 90.0078 39.4296 89.8465 39.6355C89.7009 39.8212 89.5 39.9394 89.3026 40.1148C89.1343 40.2643 88.9816 40.4326 88.7964 40.56C88.6186 40.6824 88.4737 40.8264 88.3278 41.0001C88.193 41.1604 88.0242 41.2787 87.8645 41.4198C87.6543 41.6057 87.4205 41.7641 87.2573 41.9191C87.0681 42.0989 86.8716 42.2058 86.2087 42.6168C85.896 42.8106 85.7408 42.9353 85.4447 43.0992C85.1823 43.2444 85.0108 43.3448 84.8208 43.4348C84.5317 43.5717 84.2031 43.7205 83.9374 43.8488C83.6795 43.9733 83.4495 44.0516 83.2082 44.1427C82.9805 44.2286 82.7891 44.2468 82.3727 44.3146C82.0979 44.3593 81.9032 44.4709 81.706 44.559C81.5088 44.6472 81.2568 44.7272 81.0232 44.8137C80.7926 44.8991 80.5379 44.9224 80.3168 44.9896C80.0357 45.0751 79.7818 45.1508 79.4635 45.2586C79.0889 45.3856 78.9087 45.4374 78.6184 45.4649C78.4044 45.4852 78.1978 45.5465 77.916 45.598C77.2917 45.7121 77.0827 45.8141 76.8753 45.8562C76.6556 45.9008 76.3552 45.9337 76.0821 46.0025C75.7247 46.0925 75.3662 46.1036 75.1518 46.1433C74.9481 46.181 74.6519 46.1681 74.3167 46.1991C74.0031 46.228 73.6883 46.1839 73.4724 46.1729C73.192 46.1585 72.9059 46.1736 72.6064 46.206C72.2649 46.243 71.8874 46.2914 71.6167 46.2953C71.3497 46.2992 71.1382 46.3183 70.8326 46.3495C70.4774 46.3858 70.1266 46.3515 69.9522 46.3504C69.7559 46.3491 69.3765 46.3921 69.1184 46.3703C68.9173 46.3533 68.6002 46.4121 68.3393 46.4329C68.0118 46.4591 67.7011 46.4591 67.4423 46.4441C67.1868 46.4293 66.8673 46.4208 66.5033 46.4224C66.2001 46.4237 65.9481 46.3755 65.6818 46.3654C65.2509 46.3489 64.9985 46.3365 64.5146 46.2422C64.1469 46.1706 63.9704 46.205 63.7008 46.2378C63.2014 46.2985 62.7017 46.1141 62.3976 46.0727C62.194 46.045 61.9351 46.0345 61.694 46.0384C61.4084 46.043 61.1833 46.0171 60.8985 45.9664C60.6366 45.9199 60.4288 45.9554 60.0243 45.9466C59.7758 45.9412 59.4895 45.9338 59.2855 45.9327C59.1149 45.9319 58.9458 45.8971 58.7307 45.8856C58.4877 45.8726 58.2628 45.8388 57.9476 45.7948C57.5184 45.7349 57.2625 45.7728 57.0196 45.7542C56.7876 45.7365 56.481 45.7042 56.2053 45.6701C55.7778 45.6172 55.0719 45.4319 54.633 45.3633C54.4567 45.3357 54.2708 45.4159 53.996 45.3826C53.7619 45.3593 53.4282 45.3029 53.2104 45.2694C53.1607 45.2639 53.1032 45.2636 53.044 45.2633" stroke="black" stroke-width="1.13656" stroke-linecap="round"/>
<path d="M83.0625 90.1728C82.6725 91.0176 82.5828 91.2559 82.4775 91.4977C82.3476 91.796 81.9341 92.323 81.4891 92.8997C81.1947 93.2811 81.1028 93.4664 80.9466 93.6519C80.721 93.9198 80.4407 94.1262 80.2601 94.291C80.09 94.4463 79.9223 94.5609 79.6775 94.7237C79.3977 94.9098 79.1958 95.0734 79.0069 95.2143C78.7227 95.4264 78.4962 95.5927 78.2189 95.7976C77.6992 96.1815 77.5084 96.329 77.3112 96.4754C76.9474 96.7454 76.3914 97.062 76.1273 97.2126C75.8879 97.3492 75.692 97.5229 75.3136 97.7535C75.0948 97.8868 74.8357 98.031 74.5678 98.196C74.366 98.3203 74.109 98.4274 73.8574 98.5597C73.3322 98.8358 72.9721 99.0096 72.5957 99.1465C72.2406 99.2755 71.836 99.4176 71.545 99.5036C70.9684 99.6739 70.727 99.8324 70.3658 99.9369C69.8779 100.078 69.2494 100.269 68.9084 100.35C68.2605 100.504 68.0479 100.53 67.82 100.596C67.5197 100.682 66.9939 100.798 66.4524 100.887C66.0459 100.953 65.4794 101.024 64.8603 101.12C64.3799 101.194 64.1055 101.225 63.7647 101.277C63.5295 101.312 63.0914 101.272 62.6869 101.285C62.31 101.298 61.8072 101.351 61.4885 101.336C61.1729 101.321 60.5133 101.297 59.8876 101.261C59.5219 101.241 59.291 101.233 58.9186 101.239C58.5504 101.246 58.2855 101.296 58.0482 101.315C57.7597 101.339 57.5207 101.333 57.2997 101.314C57.0213 101.289 56.8506 101.279 56.559 101.255C56.2872 101.233 56.1162 101.251 55.8195 101.248C55.2997 101.243 54.9513 101.259 54.6986 101.224C54.3123 101.17 53.9955 101.19 53.3816 101.178C52.7675 101.167 52.3402 101.13 52.0389 101.105C51.6694 101.074 51.1909 101.013 50.8937 100.98C50.5405 100.942 50.2622 100.892 49.9562 100.864C49.765 100.848 49.3795 100.768 49.0344 100.716C48.7196 100.669 48.524 100.637 48.3357 100.633C48.1477 100.628 47.9229 100.6 47.6648 100.585C47.4803 100.574 47.2842 100.539 46.9667 100.53C46.7998 100.503 46.6587 100.481 46.3419 100.422C46.0825 100.363 45.6231 100.246 45.1497 100.125" stroke="black" stroke-width="1.13656" stroke-linecap="round"/>
<path d="M44.5046 100.091C42.6248 99.8993 41.5753 99.7797 41.3257 99.7376C40.608 99.6165 40.4079 99.6271 39.6831 99.4711C39.0677 99.3387 37.9583 99.0599 37.3469 98.9041C36.4217 98.6684 35.9721 98.4955 35.7173 98.4085C35.4481 98.3165 35.0327 98.1397 34.6434 97.9746C34.2858 97.8228 33.9603 97.7204 33.5079 97.5829C33.2556 97.5062 33.0246 97.3944 32.6318 97.1997C32.2897 97.0302 31.9075 96.8188 31.6194 96.694C31.0009 96.4262 30.8028 96.304 30.5113 96.1352C30.2225 95.9679 29.9375 95.8215 29.7137 95.6989C29.3524 95.5012 29.0881 95.3866 28.7652 95.2316C28.1421 94.9325 27.7627 94.7143 27.4226 94.5113C27.0278 94.2756 26.7067 94.0086 26.4104 93.781C25.5359 93.1092 25.1312 92.8947 24.7767 92.6584C24.1517 92.2417 23.818 91.833 23.3355 91.4196C23.0413 91.1675 22.5133 90.6626 22.1921 90.3593C21.5911 89.7919 21.3228 89.5815 21.151 89.4284C20.9933 89.2879 20.8262 89.1347 20.6241 88.9019C20.4137 88.6595 20.0363 88.3094 19.7804 88.1045C19.5854 87.9484 19.2767 87.6349 18.7763 87.2021C18.5276 86.987 18.0496 86.5811 17.7564 86.2943C17.3907 85.9366 16.8363 85.4559 16.6644 85.3032C16.2097 84.8993 15.5205 84.1753 15.3131 83.9335C15.1483 83.7414 14.8353 83.4491 14.5993 83.1407C14.45 82.9457 14.3041 82.7309 14.1345 82.4553C14.005 82.2449 13.8243 81.8251 13.6911 81.5422C13.5843 81.3156 13.2261 80.6998 13.0325 80.3346C12.9297 80.1407 12.8244 79.9256 12.6469 79.597C12.5341 79.3879 12.4897 79.1859 12.4222 78.994C12.3548 78.8021 12.3145 78.6178 12.2677 78.4312C12.2225 78.2506 12.1741 78.0298 12.0762 77.8153C12.0018 77.6216 11.9685 77.4103 12.062 77.042C12.1001 76.9493 12.1478 76.8751 12.1969 76.7986" stroke="black" stroke-width="1.13656" stroke-linecap="round"/>
<path d="M50.7061 40.3038C50.3377 39.0646 49.9875 38.0549 49.6556 37.2747C49.2744 36.4266 48.7798 35.1585 48.1716 33.4704C46.5951 32.9662 45.0151 32.4593 43.4315 31.9495C41.5797 31.362 40.0007 30.9025 38.6945 30.5707C38.2054 30.446 37.7922 30.2492 37.4549 29.9805C37.0615 29.667 36.8336 29.3313 36.7711 28.9735C36.7033 28.6187 36.8216 28.3548 37.1258 28.1817C37.6452 27.8864 39.1254 28.1383 41.5665 28.9375C42.2557 29.1788 43.2931 29.529 44.6785 29.9884C45.3063 30.1878 46.2471 30.4827 47.5009 30.8729C47.1696 29.7278 46.7865 28.3051 46.3518 26.6048C46.1888 26.0451 45.9785 25.2149 45.7208 24.1142C45.6566 23.7478 45.7739 23.4796 46.0729 23.3096C46.3772 23.1366 46.7861 23.1007 47.2997 23.202C47.8063 23.2976 48.2563 23.5022 48.6497 23.8158C48.987 24.0845 49.2043 24.383 49.3017 24.7114C49.4314 25.2517 49.632 26.0634 49.9036 27.1465C50.2088 28.3353 50.6529 29.9535 51.236 32.0012C52.665 32.4165 54.123 32.8155 55.6097 33.198C55.7272 33.2271 56.5391 33.4658 58.0453 33.914C59.0325 34.2064 59.8364 34.3921 60.4568 34.471C61.0789 34.5585 61.6078 34.7758 62.0434 35.1229C62.4157 35.4196 62.6445 35.7452 62.7298 36.0997C62.8168 36.4627 62.7003 36.7352 62.3804 36.9172C62.0971 37.0783 61.4577 37.0773 60.4621 36.9144C59.733 36.7918 59.058 36.6335 58.4373 36.4397C57.8235 36.2515 56.9266 35.9844 55.7465 35.6386C54.4771 35.3147 53.2156 34.972 51.9619 34.6105C52.4672 35.9157 52.9751 37.2194 53.4856 38.5217C54.1541 40.444 54.3021 41.5111 53.9297 41.7229C53.6254 41.8959 53.2165 41.9318 52.7029 41.8305C52.1963 41.7349 51.7463 41.5303 51.3529 41.2167C51.0227 40.9536 50.8071 40.6493 50.7061 40.3038Z" fill="#8F1F7F"/>
<path d="M54.144 19.1504C55.8803 18.1631 58.1439 18.2477 60.9348 19.4044C63.0013 20.2632 65.2113 21.6303 67.5648 23.5058C69.5741 25.107 70.9572 26.7285 71.7141 28.3704C72.621 30.3395 72.2824 31.7744 70.6982 32.6753C69.1979 33.5285 67.222 33.5441 64.7703 32.7221C62.7026 32.0272 60.6993 30.9071 58.7602 29.3619C55.6268 26.8649 53.6754 24.7655 52.9061 23.0636C52.1367 21.3617 52.5494 20.0573 54.144 19.1504ZM67.9661 30.4874C68.8159 30.0042 68.9323 29.1657 68.3152 27.972C67.7828 26.9316 66.8667 25.8936 65.5669 24.8579C63.8527 23.4918 62.4113 22.5079 61.2426 21.9061C59.358 20.9343 57.9016 20.7408 56.8734 21.3255C56.0132 21.8147 55.8914 22.5987 56.508 23.6775C57.1317 24.7619 58.4939 26.1411 60.5945 27.8151C62.2736 29.1531 63.7279 30.0434 64.9574 30.4859C66.1816 30.9314 67.1845 30.9319 67.9661 30.4874Z" fill="#8F1F7F"/>
<path d="M59.9806 16.3793L63.1149 14.6112C64.1063 14.0474 65.02 14.0987 65.8561 14.7649C66.7975 15.5151 66.7148 16.2049 65.608 16.8343C65.5031 16.894 65.3841 16.9568 65.2512 17.0228L74.5987 24.4717C74.6335 23.8763 74.7192 23.5398 74.8555 23.4622C75.1493 23.2952 75.5468 23.261 76.0482 23.3596C76.5443 23.4613 76.9785 23.6604 77.3508 23.9572C77.7373 24.2651 77.9585 24.6813 78.0145 25.2059L77.9895 26.4002L78.0623 27.7691C78.0483 28.2951 77.8577 28.6625 77.4905 28.8713C77.0184 29.1398 76.4029 28.9717 75.6442 28.3671C74.8081 27.7009 73.6576 26.7482 72.1925 25.5091C70.7275 24.27 68.5863 22.5279 65.7691 20.2829L63.2188 18.2506L62.6995 18.5459C62.3952 18.7189 62.0108 18.76 61.5463 18.6692C61.0765 18.5814 60.6485 18.3835 60.262 18.0756C59.8756 17.7677 59.6574 17.4505 59.6073 17.124C59.5519 16.8005 59.6763 16.5523 59.9806 16.3793Z" fill="#8F1F7F"/>
</svg>
