<svg width="88" height="82" viewBox="0 0 88 82" fill="none" xmlns="http://www.w3.org/2000/svg">
<path d="M13.2404 48.98L8.23499 47.7122C7.98996 45.9581 7.60023 42.4003 8.0016 42.2012C8.40296 42.002 9.51188 39.7847 10.0162 38.7009L13.5359 34.4539C13.6227 33.3688 13.8968 31.1488 14.2981 30.9497C14.7998 30.7008 15.8226 23.9413 15.072 23.6885C14.4715 23.4863 19.3281 24.2862 21.8314 24.7114C23.2497 25.0497 26.1866 25.6766 26.5879 25.4775C26.9893 25.2784 30.4292 25.2389 32.0989 25.2441L36.8632 23.5056L40.8768 21.5143L44.1515 15.5132C44.9047 14.9312 46.5114 13.7172 46.9128 13.5181C47.3141 13.3189 49.748 14.6122 50.9148 15.2837L53.155 19.7991C53.3541 20.2004 54.5629 23.4769 55.1424 25.065C56.8951 25.2374 60.62 25.5203 61.4974 25.2726C62.3748 25.0248 64.1368 25.5521 64.9082 25.8467L68.6535 29.6153C69.4054 29.4506 71.0096 29.0716 71.4109 28.8724C71.9127 28.6235 74.1684 28.1296 74.919 28.3824C75.5195 28.5846 77.0023 29.6411 77.6687 30.1441L77.6609 32.6488L79.4072 34.9084L78.9016 36.4096L79.6444 39.1671L77.6376 40.1627L75.1252 42.6596L71.1116 44.6509L69.1009 46.8989L65.8301 51.6476L66.3202 55.1556L65.8107 57.9092L65.0485 61.4134L61.7893 62.4051L56.0294 62.1368L53.0308 59.8733L50.5301 58.6133L40.4999 62.3392L36.739 63.5799L32.2392 60.8108L29.999 56.2955L28.5172 49.5283L26.0242 45.7635L23.7762 43.7528L16.7484 48.4899L13.2404 48.98Z" fill="#FDFDFA"/>
<path d="M46.7728 13.3266C51.0015 14.9952 51.4066 16.4104 52.0871 17.3376C52.5832 18.0134 52.9729 18.8169 53.146 19.8406C53.4007 21.3466 54.3762 22.8428 54.7327 24.0061C55.0104 24.9122 55.3187 25.9312 55.4492 26.9383C55.5911 28.0324 54.9837 29.1257 55.0963 30.7692C55.3895 31.7355 55.653 32.4184 56.0209 32.6416C56.2427 32.7178 56.5358 32.7187 56.8377 32.7196" stroke="black" stroke-width="1.75648" stroke-linecap="round"/>
<path d="M55.2588 25.9663C59.2816 25.5933 60.8195 25.7171 62.2566 25.5594C64.019 25.3661 66.3221 27.5673 67.1212 28.0587C67.4871 28.2836 67.742 28.7849 68.1679 29.201C69.1358 30.1465 70.7561 28.6219 71.9155 28.3426C72.7833 28.1336 73.9255 28.4506 75.1105 28.6763C76.7935 28.9968 77.2414 29.7629 77.6102 30.133C78.1879 30.713 77.416 31.5983 77.4727 32.0857C77.6353 33.4842 79.094 34.0913 79.3003 34.4312C79.8051 35.2627 78.7927 36.4555 78.8614 37.6396C78.8829 38.0096 79.1668 38.407 79.2129 38.7211C79.3493 39.6509 77.8697 40.2433 77.0781 40.8932C76.3535 41.4881 76.1112 42.5168 74.5739 43.3572C73.048 44.1912 71.288 44.3955 70.4028 45.3124C69.6978 46.0426 69.4364 46.9369 68.9593 47.8387C68.3756 48.9421 67.918 49.6855 67.1763 50.4248C66.4337 51.165 65.9569 51.9887 65.9365 52.8479C65.9113 53.908 66.33 54.8319 66.3727 55.662C66.4222 56.6231 65.6428 57.6115 65.6524 58.5312C65.6628 59.5283 65.8703 60.1612 65.7513 60.5894C65.4339 61.7314 63.3522 61.9315 62.5951 62.1952C61.8278 62.4624 60.8652 62.5757 59.2242 62.615C56.5279 62.6796 55.6551 62.0569 54.8853 61.4057C54.0991 60.7407 53.2654 59.9214 52.1981 59.4123C51.3953 59.0294 50.7217 58.2261 49.9553 56.907C49.4095 55.9676 48.2761 55.2272 47.3132 54.7051C46.1163 54.0064 44.937 52.8224 44.1827 51.8986C44.0194 51.7191 43.8733 51.5721 43.811 51.5985" stroke="black" stroke-width="1.75648" stroke-linecap="round"/>
<path d="M49.3849 59.2525C39.8722 62.8636 39.2206 63.3331 38.2015 63.5849C35.6027 64.2269 34.2538 62.2591 33.0415 61.384C29.9226 59.1328 29.7189 55.3618 29.0938 53.731C28.6421 52.5526 28.3898 51.4942 28.0547 50.1485C27.417 47.5877 26.2186 45.9205 25.6276 45.3258C24.9926 44.6869 24.3596 43.9608 24.0323 43.3816C23.1059 41.742 28.1463 41.7806 29.3482 41.2963C31.4669 40.4302 32.9528 39.5467 33.5614 39.3523C33.6662 39.4831 33.6945 39.8349 33.7235 40.1974" stroke="black" stroke-width="1.75648" stroke-linecap="round"/>
<path d="M24.3898 43.7202C18.9366 46.2772 17.8718 47.393 16.933 48.2689C16.2784 48.8796 11.4782 48.7427 8.74719 48.16C7.76101 47.9496 8.21968 46.1339 8.00136 44.5052C7.71224 42.3484 9.08991 40.4523 9.73098 39.651C10.7725 38.3491 12.7423 36.3479 13.4752 35.1352C14.434 33.5488 14.0954 31.3181 14.439 30.0757C14.7958 28.7856 15.1748 26.9428 15.2674 25.8582C15.304 25.4303 15.2699 24.8959 15.4338 24.3346C15.5068 24.0843 15.685 23.9495 16.0681 23.9778C18.0325 24.1228 18.9669 24.7555 20.3276 24.8929C21.5825 25.0197 22.4599 25.0931 23.5989 25.2286C24.5947 25.3469 25.537 25.4863 26.4413 25.4456C27.6998 25.389 29.1187 25.2612 30.2311 25.1172C31.3065 24.978 32.1995 25.0629 33.6466 25.8192C35.0284 26.5414 35.5978 27.2921 36.8961 28.1976C37.2817 28.4519 37.6913 28.6876 38.034 28.8534C38.3768 29.0192 38.6403 29.108 38.8235 29.0215" stroke="black" stroke-width="1.75648" stroke-linecap="round"/>
<path d="M32.88 25.54C38.2692 23.3097 40.1074 22.2514 40.9436 21.2468C41.7836 20.2376 42.2505 17.9469 43.4878 16.4728C44.4053 15.3798 45.2248 14.8351 46.0276 14.1408C46.2112 13.9821 46.3541 13.8314 46.5325 13.7418C46.7108 13.6522 46.9161 13.6236 47.1679 13.7558C47.4197 13.888 47.7119 14.182 48.1102 14.7592C48.5086 15.3364 49.0042 16.1879 49.5148 17.0652" stroke="black" stroke-width="1.75648" stroke-linecap="round"/>
<path d="M63.1024 46.239L53.512 45.6764" stroke="black" stroke-width="1.75648" stroke-linecap="round"/>
</svg>
