<svg width="319" height="210" viewBox="0 0 319 210" fill="none" xmlns="http://www.w3.org/2000/svg">
<g opacity="0.3">
<path d="M43.4871 94.2944L28.8077 102.818L25.0194 104.239L31.6488 107.553L42.0665 114.183C54.0626 119.707 78.1496 130.756 78.5284 130.756C78.9072 130.756 100.153 139.28 110.729 143.542L135.826 149.224C149.4 148.277 176.644 146.383 177.023 146.383C177.496 146.383 223.902 139.753 225.323 139.28C226.744 138.806 257.997 131.23 258.944 130.756C259.701 130.378 272.834 125.232 279.306 122.706L285.461 116.077L273.623 107.08C264.784 98.8719 247.011 82.3615 246.632 81.9826C246.253 81.6038 225.954 67.9346 215.852 61.1473L189.335 41.259L173.708 28.4736C168.341 30.6834 157.419 35.1978 156.661 35.5766C155.714 36.0501 125.882 50.2561 125.408 50.2561C124.934 50.2561 98.4167 63.5149 97.9432 64.462C97.5644 65.2196 83.8951 74.2483 77.1078 78.6679L43.4871 94.2944Z" fill="black"/>
<path d="M7.97213 114.183L6.078 122.706L11.7604 126.968C15.7065 129.809 23.6934 135.492 24.0722 135.492C24.5457 135.492 55.3252 153.012 56.2723 152.539C57.2193 152.065 93.2077 164.377 94.1548 164.377C95.1018 164.377 138.667 173.374 139.14 172.901C139.614 172.427 178.917 172.901 180.337 172.901C181.758 172.901 213.958 171.007 215.852 171.007C217.746 171.007 252.788 163.43 253.735 163.43C254.682 163.43 272.202 157.274 273.149 157.274C274.097 157.274 295.405 148.751 296.826 148.277C297.962 147.898 305.823 143.7 309.611 141.648L315.767 135.965C311.348 132.808 302.414 126.4 302.035 126.021C301.656 125.642 292.722 119.55 288.302 116.551L276.464 124.127L242.843 135.965L205.435 142.595L164.237 146.857L131.09 147.804L102.678 141.648L76.1606 130.757C70.1625 127.757 58.0717 121.665 57.6929 121.286C57.2193 120.812 37.331 112.289 36.8575 111.342C36.4787 110.584 30.7016 106.291 27.8604 104.239L17.4427 106.606L7.97213 114.183Z" fill="black" stroke="black" stroke-width="1.06344"/>
<path d="M7.02513 158.695L10.8134 167.218L16.0222 172.427C16.401 172.806 26.9134 177.636 32.1223 180.004C42.3821 183.634 62.9965 190.895 63.3753 190.895C63.8488 190.895 99.8372 201.786 100.311 202.259C100.69 202.638 113.096 204.943 119.252 206.048C131.09 206.679 154.956 207.942 155.714 207.942H178.443C183.179 207.153 192.744 205.574 193.123 205.574C193.596 205.574 207.329 206.995 208.276 206.995C209.033 206.995 230.374 203.838 240.949 202.259L269.835 194.209L293.511 186.159L310.558 177.636L316.241 173.848C315.767 162.483 314.915 139.564 315.294 138.806C315.673 138.049 304.718 142.91 299.194 145.436C293.669 148.435 282.525 154.433 282.147 154.433C281.673 154.433 248.052 165.324 247.579 165.324C247.2 165.324 216.484 170.059 201.173 172.427C189.966 172.585 167.457 172.901 167.079 172.901C166.7 172.901 144.823 173.532 133.931 173.848L98.8901 165.798L65.743 157.274L46.8017 148.277C38.1203 143.068 20.5681 132.84 19.8105 133.597C19.0528 134.355 10.9712 126.968 7.02513 123.18L3.23688 120.339L4.18394 132.65L7.02513 158.695Z" fill="black"/>
<path d="M173.234 28C174.356 29.272 175.028 28.1764 176.531 29.7345C178.034 31.2925 179.885 33.098 181.651 34.7257C183.418 36.3533 185.044 37.7485 186.022 38.5493C187.693 39.9172 188.585 40.2627 189.802 40.9858C190.552 41.4316 191.919 42.4935 193.398 43.8022C195.256 45.4471 196.902 46.6366 198.551 47.9466C201.446 50.2462 202.35 50.8295 203.313 51.5557C204.219 52.2396 205.297 53.11 207.02 54.4337C207.814 55.0434 208.58 55.4726 209.656 56.1975C210.765 56.9443 212.481 57.9147 214.13 58.9741C214.932 59.4892 215.829 60.1554 216.907 60.861C217.844 61.4738 219.398 62.3936 223.068 64.8512C225.44 66.4393 226.652 67.5763 227.159 68.0096C228.608 69.2474 229.369 69.7722 230.218 70.476C231.625 71.6427 232.989 72.5451 233.817 73.3577C234.369 73.8989 235.595 74.741 237.663 76.3997C239.901 78.196 241.152 79.3467 242.17 80.1543C243.055 80.8567 244.041 81.7093 245.425 82.8054C246.74 83.8468 247.44 84.5692 249.586 86.3057C251.173 87.5897 253.89 89.8265 254.804 90.6627C255.5 91.2999 256.613 92.6889 257.606 93.79C258.85 95.1692 260.579 96.4217 261.317 96.9216C262.112 97.4596 262.846 97.9984 264.993 99.6105C266.768 100.943 268.168 102.554 268.964 103.242C269.944 104.088 271.676 105.703 272.816 106.454C273.474 106.888 274.734 107.941 275.903 108.775C276.553 109.24 277.402 109.687 279.494 111.134C280.933 112.129 282.048 112.713 282.982 113.251C284.355 114.042 285.161 114.7 286.127 115.283C286.934 115.77 287.486 116.195 289.717 117.724C291.28 118.794 292.468 119.301 293.547 120.07C294.396 120.675 295.585 121.375 297.142 122.492C298.048 123.143 298.871 123.862 299.242 124.36C299.903 125.249 301.478 126.225 302.073 126.619C302.699 127.035 303.29 127.592 304.534 128.462C305.331 128.755 306.009 128.92 306.689 129.107C306.86 129.169 307.028 129.251 307.202 129.336" stroke="black" stroke-width="4.86472" stroke-linecap="round"/>
<path d="M173.9 28.2043C169.26 29.985 166.78 30.8106 165.153 31.3733C162.667 32.233 160.197 34.1281 158.556 34.9985C157.341 35.643 156.571 36.0778 155.749 36.4098C154.944 36.7352 153.967 37.3611 152.861 37.9014C151.637 38.4992 149.556 39.8032 148.244 40.5953C147.359 41.1298 145.926 41.7952 144.508 42.5836C142.528 43.6842 141.11 44.2 140.2 44.5544C139.172 44.9547 138.558 45.2793 136.749 45.921C135.662 46.3064 134.089 46.8113 132.245 47.558C130.372 48.3163 128.192 49.425 126.299 50.2513C125.492 50.6035 124.849 50.8748 123.247 51.6159C119.653 53.2781 116.863 54.3565 116.213 54.7078C114.401 55.6883 112.167 56.6743 110.042 57.8972C108.101 59.0144 106.502 59.8252 105.421 60.4077C104.534 60.8858 103.385 61.3596 101.686 62.3742C100.166 63.2817 99.3613 63.6823 97.9177 64.5304C96.8166 65.1772 95.565 65.9205 94.2931 66.6442C92.7549 67.5194 91.4934 68.2383 89.902 69.2555C88.796 69.9623 87.4082 70.77 84.7539 72.6289C82.9745 73.8751 81.9704 74.376 80.6985 75.2029C79.1953 76.1801 78.1775 76.654 75.2657 78.3295C73.8026 79.1714 72.5664 79.9292 71.4644 80.5714C70.206 81.3048 68.3283 82.3291 65.3842 83.9033C62.7849 85.2931 60.6745 86.4362 59.3482 87.0765C56.4215 88.4896 55.461 88.8422 53.6521 89.6275C52.6674 90.0549 50.9374 90.7447 49.5703 91.2458C47.544 91.9885 44.3066 94.0199 43.0848 94.6852C42.2289 95.1512 41.3566 95.3081 40.5639 95.6389C39.279 96.175 38.3012 96.7978 36.7421 97.6477C35.8052 98.1584 35.0691 98.6232 34.0784 99.1616C33.1127 99.6864 31.7316 100.65 30.4818 101.42C29.4946 102.029 28.4995 102.436 27.423 102.975C26.1638 103.605 25.0465 104.383 23.8825 105.006C23.0607 105.446 22.3242 105.629 21.6156 105.918C20.6862 106.298 19.4387 106.87 18.5568 107.307C17.6511 107.756 16.7742 108.28 15.6136 108.984C14.0826 109.912 13.4877 110.312 11.6507 111.634C10.5445 112.43 9.91914 112.881 8.76105 113.728C6.37673 115.473 5.95292 115.989 5.52724 116.508C5.07429 117.059 4.9877 119.493 5.38195 121.025C5.6424 122.037 6.96571 122.619 7.59107 123.243C8.5169 124.166 10.0789 125.352 11.1019 126.082C11.9778 126.707 13.6407 128.043 14.7563 128.963C15.6227 129.677 16.312 130.329 17.7828 131.447C19.4809 132.738 20.3904 133.397 21.1848 134.019C22.3338 134.918 23.789 135.678 24.5554 136.134C25.792 136.869 27.7518 137.831 30.5515 139.238C32.9269 140.432 34.8346 141.977 35.714 142.661C36.6202 143.366 38.2876 144.297 39.7049 145.065C41.3887 145.976 42.8792 146.414 44.1231 147.075C45.6396 147.88 46.8964 148.607 48.4564 149.396C49.1233 149.733 51.4166 150.675 54.5017 152.083C56.8588 153.159 58.394 153.872 59.9277 154.288C60.8572 154.541 62.9754 155.237 64.3196 155.677C65.3481 156.014 66.7785 156.65 67.8592 156.921C68.8352 157.166 69.8407 157.356 71.0863 157.749C72.268 158.122 73.2937 158.515 74.4288 158.827C76.1523 159.301 77.7119 159.758 79.158 160.36C80.288 160.829 81.2261 161.417 82.0486 161.77C83.1327 162.234 83.945 162.536 84.8525 162.848C85.739 163.152 87.5612 163.777 89.241 164.236C90.3926 164.551 91.6464 164.774 92.6974 164.983C93.6906 165.149 94.593 165.396 95.5582 165.708C95.7859 165.77 96.0102 165.812 96.5812 165.978" stroke="black" stroke-width="4.86472" stroke-linecap="round"/>
<path d="M96.2416 165.48C98.619 165.521 99.6335 165.851 100.768 166.204C102.883 166.863 105.003 167.383 107.027 167.615C108.129 167.741 109.49 167.801 110.823 168.07C111.865 168.28 112.552 168.504 113.598 168.774C115.845 169.354 117.422 169.79 118.357 170.059C119.477 170.381 120.875 170.618 122.321 170.93C123.306 171.142 124.331 171.282 125.296 171.469C126.978 171.794 128.24 171.986 129.459 172.194C130.45 172.364 131.584 172.526 133.082 172.692C134.696 172.871 136.057 172.941 137.981 173.251C139.108 173.432 140.363 173.563 143.266 173.769C147.322 174.058 150.221 173.853 150.842 173.915C152.305 174.061 154.794 174.06 156.648 173.936C157.431 173.884 158.318 173.647 159.311 173.46C159.831 173.361 160.36 173.397 161.626 173.335C164.511 173.194 166.648 173.355 167.997 173.417C171.135 173.562 173.501 173.397 174.403 173.335C177.173 173.144 178.649 173.19 179.929 173.066C181.261 172.937 182.054 172.859 182.988 172.796C184.323 172.706 185.674 172.61 187.46 172.548C189.249 172.485 190.721 172.526 191.993 172.589C192.94 172.635 194.058 172.774 196.887 172.796C198.432 172.808 199.554 172.61 200.492 172.548C201.769 172.462 203.122 172.362 203.976 172.299C204.832 172.236 206.405 172.031 207.375 171.926C208.183 171.838 209.073 171.698 210.036 171.491C210.753 171.338 211.677 171.243 212.585 171.056C213.824 170.802 217.203 170.171 219.466 169.771C221.145 169.474 222.042 169.377 222.923 169.232C224.005 169.053 224.931 169.004 225.727 168.859C226.501 168.718 227.762 168.549 228.898 168.341C229.911 168.155 231.389 167.928 232.185 167.822C233.032 167.711 234.838 167.555 236.064 167.346C237.66 167.075 238.811 166.973 239.942 166.828C240.851 166.712 241.869 166.517 242.717 166.373C243.235 166.284 245.59 165.693 249.24 164.782C252.375 164 253.704 163.7 255.292 163.368C256.829 163.047 258.292 162.623 259.598 162.228C261.001 161.804 262.371 161.504 263.593 161.233C264.6 161.009 265.657 160.467 267.018 160.114C268.275 159.789 268.889 159.43 271.318 158.542C273.538 157.73 274.609 157.152 275.376 156.778C276.157 156.396 277.661 155.869 278.774 155.513C279.6 155.249 280.275 154.996 280.955 154.684C281.654 154.365 282.708 153.837 283.391 153.338C284.003 152.891 284.863 152.758 285.544 152.529C286.273 152.284 286.902 151.969 287.583 151.679C288.264 151.389 288.941 151.141 289.622 150.912C290.351 150.667 291.205 150.271 292.142 149.856C292.816 149.558 293.642 149.358 294.38 149.089C295.05 148.844 295.851 148.53 296.758 148.095C297.666 147.659 298.682 147.162 299.732 146.5C300.425 146.063 300.949 145.381 301.687 144.965C302.368 144.592 302.934 144.301 303.302 144.177C303.445 144.094 303.501 143.971 303.559 143.844" stroke="black" stroke-width="4.86472" stroke-linecap="round"/>
<path d="M303.899 144.217C307.578 142.851 308.484 142.519 309.306 142.023C309.956 141.63 311.03 141.196 311.742 140.593C312.429 140.012 313.072 139.495 313.302 138.997C313.697 138.458 313.981 138.001 314.15 137.712C314.263 137.546 314.432 137.341 314.605 137.13" stroke="black" stroke-width="4.86472" stroke-linecap="round"/>
<path d="M27.249 104.178C29.8286 106.23 31.4379 107.492 32.3393 108.151C35.0363 110.125 35.6845 110.723 37.2385 111.985C39.6826 113.969 41.1801 113.917 41.8606 114.145C42.8438 114.476 44.1233 115.324 44.9194 115.844C45.5766 116.273 46.7844 116.774 48.1456 117.48C49.48 118.173 50.8628 118.806 52.0251 119.325C54.31 120.346 56.0695 121.248 57.1826 121.834C57.9243 122.224 61.487 123.357 64.1762 124.485C65.0572 124.855 66.1023 125.314 66.8407 125.585C67.8772 125.966 69.6097 127.052 71.0584 127.801C72.5778 128.586 74.429 129.293 75.3084 129.667C76.2522 130.069 77.4878 130.661 78.3672 131.159C79.1147 131.582 79.979 132.029 80.8873 132.506C82.2735 133.233 83.1499 134.016 84.3684 134.619C87.2012 136.021 88.4212 136.465 89.2429 136.838C90.0617 137.209 91.1402 137.46 91.9609 137.791C93.4059 138.373 95.4326 139.196 97.115 139.863C98.32 140.341 99.127 140.569 100.287 140.879C101.585 141.226 102.638 141.77 103.517 141.875C104.351 141.975 105.469 142.185 106.716 142.454C107.638 142.653 108.64 143.013 110.452 143.448C112.082 143.84 113.344 144.05 114.138 144.34C115.184 144.721 116.12 145.003 117.026 145.232C118.372 145.572 119.519 145.873 120.735 146.205C122.256 146.621 123.652 146.786 124.898 146.972C127.627 147.381 130.734 147.283 131.556 147.429C132.25 147.552 133.168 147.574 134.104 147.677C135.481 147.829 136.284 147.905 137.051 147.968C137.479 148.003 139.331 148.072 141.935 148.051C144.552 148.03 147.384 148.029 148.294 148.092C149.93 148.205 152.2 148.114 155.112 148.092C156.625 148.081 158.43 148.278 159.791 148.3C161.055 148.32 162.393 148.072 163.39 147.968C164.209 147.884 165.339 147.823 166.279 147.72C167.207 147.618 168.68 147.41 169.706 147.202C171.346 146.869 173.557 146.995 174.857 146.911C176.863 146.783 178.424 146.497 180.351 146.228C181.485 146.07 182.394 146 183.835 145.855C185.665 145.67 186.696 145.709 187.971 145.565C189.949 145.341 191.285 145.087 192.363 144.964C193.232 144.864 194.119 144.714 195.279 144.611C196.492 144.503 197.854 144.301 199.272 144.093C201.031 143.835 203.635 143.471 204.88 143.347C205.687 143.267 206.803 143.14 207.715 142.995C208.935 142.8 211.109 142.561 212.442 142.332C213.682 142.119 215.354 141.815 216.945 141.524C217.726 141.381 218.756 141.193 220.427 140.861C221.982 140.552 223.568 140.322 224.876 140.094C226.26 139.851 228.044 139.288 229.238 138.995C230.156 138.77 231.501 138.333 232.496 138.228C233.4 138.132 234.842 137.711 236.035 137.503C236.856 137.36 237.734 137.047 238.669 136.716C240.315 136.134 241.133 135.928 242.124 135.721C244.148 135.299 246.118 134.56 246.827 134.415C247.026 134.394 247.25 134.394 247.478 134.332C247.706 134.271 247.93 134.148 248.331 133.896" stroke="black" stroke-width="4.86472" stroke-linecap="round"/>
<path d="M249.69 133.151C254.176 131.755 257.216 130.832 258.573 130.418C260.754 129.754 262.707 128.803 264.773 128.118C268.015 127.043 270.42 126.395 270.871 126.23C272.223 125.737 272.798 125.195 273.647 124.8C274.498 124.405 275.177 124.158 275.885 123.826C276.676 123.455 277.498 123.163 278.264 122.811C279.19 122.385 280.047 121.838 280.897 121.361C282.222 120.618 282.936 120.139 283.533 119.599C284.102 119.084 284.468 118.605 284.723 118.107C284.92 117.859 285.148 117.568 285.318 117.237C285.376 117.07 285.376 116.906 285.376 116.737" stroke="black" stroke-width="4.86472" stroke-linecap="round"/>
<path d="M149.49 65.4619C149.886 64.9241 151.689 63.0414 155.718 63.1448C155.953 63.1508 156.173 63.0614 156.488 63.0198C157.195 62.9371 157.76 62.8538 158.359 62.7922C160.309 62.814 161.14 62.8075 161.838 63.021C162.519 63.2293 163.461 63.3988 164.416 64.4323C164.952 65.0124 166.288 65.6759 165.118 67.7735C164.323 69.2003 162.023 71.5458 159.792 71.9533C159.227 72.0565 158.662 72.0324 158.122 71.9937C157.244 71.9309 156.466 71.724 155.658 71.5996C154.579 71.4336 153.41 71.1429 152.656 70.7285C151.976 70.3542 149.161 69.0336 149.119 67.6355C149.09 66.7035 149.165 65.9028 149.49 65.4619Z" fill="black" stroke="black" stroke-width="3.64854" stroke-linecap="round"/>
<path d="M99.2195 93.3175C100.323 92.945 99.5857 93.3181 102.869 93.1117H102.869C103.042 93.1117 103.21 93.1117 103.497 93.0694C104.799 92.863 105.817 92.7797 106.752 92.7598C108.154 92.863 110.196 92.7976 112.277 93.0085C113.296 93.1117 114.224 93.095 115.078 93.2571C115.845 93.4026 116.802 93.5777 117.514 93.9006C118.336 94.273 119.014 94.5217 119.695 94.8537C120.375 95.1857 121.22 95.4105 121.989 96.1811C122.527 96.7201 123.305 97.2511 123.772 97.8386C124.168 98.3366 124.429 98.8268 124.621 99.4769C124.848 100.244 125.078 100.905 125.159 101.466C125.3 102.447 125.694 103.691 125.441 105.634C125.3 106.715 125.321 107.812 125.043 108.368C124.505 109.448 123.823 111.378 122.46 112.432C120.481 113.964 119.641 114.778 118.84 115.122C117.87 115.538 116.659 115.999 115.809 116.22C114.927 116.449 113.679 116.68 112.664 116.883C111.532 117.11 110.493 117.548 108.528 117.338C107.566 117.235 106.753 117.273 105.499 117.089C104.507 116.944 103.495 116.829 102.554 116.758C101.73 116.695 100.52 116.58 99.6367 116.218C98.6715 115.822 97.5688 115.316 96.8031 114.765C95.0383 113.494 93.1853 112.117 92.2455 110.994C91.7077 110.351 91.1485 109.738 90.8877 108.818C90.6881 108.113 90.5237 107.239 89.8367 106.037C88.8188 104.255 88.1543 103.397 88.4535 102.725C88.8256 101.89 89.6956 100.522 90.4383 99.5533C91.0891 98.7047 93.3324 96.148 95.594 94.9743C96.8736 94.3103 98.3213 93.6205 99.2195 93.3175Z" fill="black" stroke="black" stroke-width="3.64854" stroke-linecap="round"/>
<path d="M189.735 88.405C190.5 87.5961 191.852 86.2772 197.639 82.4526C198.66 82.2451 207.074 80.2363 209.166 80.4084C210.443 80.5135 211.767 80.906 212.818 81.1551C213.783 81.3839 214.961 81.6419 215.99 82.0466C216.727 82.3364 217.393 82.6803 218.114 83.0625C218.936 83.4977 219.892 83.7493 220.919 84.4309C221.825 85.0321 222.541 85.5086 223.012 86.0263C223.466 86.5243 223.845 87.1254 224.288 87.8523C224.996 89.0137 225.481 89.8307 225.872 90.6898C226.185 91.3762 226.565 92.3627 226.551 93.2855C226.522 95.2707 226.183 95.9092 225.927 96.7423L225.923 96.7538C225.612 97.767 225.33 98.6864 224.907 99.4145C224.595 99.9535 224.268 100.455 223.801 101.011C223.123 101.819 222.549 102.395 221.819 103.062C221.138 103.684 220.62 104.214 219.663 104.887C218.134 105.964 217.106 106.632 216.353 107.019C215.585 107.414 214.653 108.052 213.406 108.366L213.403 108.367C212.581 108.574 211.58 108.826 210.29 108.904C208.261 109.028 204.934 109.008 203.067 108.53C201.936 108.24 199.947 107.341 198.367 106.685C197.518 106.332 196.265 106.037 195.479 105.524C194.683 105.004 193.245 104.258 192.561 103.221C191.798 102.062 191.352 101.48 190.863 100.902C190.268 100.197 189.612 99.7659 189.362 99.1397C189.024 98.2898 188.369 97.3789 188.571 93.2053C188.628 92.0315 188.576 91.4784 188.742 90.9522C189.082 89.8766 189.06 89.1177 189.735 88.405Z" fill="black"/>
<path d="M197.691 82.4184C191.86 86.2694 190.503 87.5936 189.735 88.405C189.06 89.1177 189.082 89.8766 188.742 90.9522C188.576 91.4784 188.628 92.0315 188.571 93.2053C188.369 97.3789 189.024 98.2898 189.362 99.1397C189.612 99.7659 190.268 100.197 190.863 100.902C191.352 101.48 191.798 102.062 192.561 103.221C193.245 104.258 194.683 105.004 195.479 105.524C196.265 106.037 197.518 106.332 198.367 106.685C199.947 107.341 201.936 108.24 203.067 108.53C204.934 109.008 208.261 109.028 210.29 108.904C211.581 108.826 212.584 108.573 213.406 108.366C214.653 108.052 215.585 107.414 216.353 107.019C217.106 106.632 218.134 105.964 219.663 104.887C220.62 104.214 221.138 103.684 221.819 103.062C222.549 102.395 223.123 101.819 223.801 101.011C224.268 100.455 224.595 99.9535 224.907 99.4145C225.331 98.6836 225.614 97.7601 225.927 96.7423C226.183 95.9092 226.522 95.2707 226.551 93.2855C226.565 92.3627 226.185 91.3762 225.872 90.6898C225.481 89.8307 224.996 89.0137 224.288 87.8523C223.845 87.1254 223.466 86.5243 223.012 86.0263C222.541 85.5086 221.825 85.0321 220.919 84.4309C219.892 83.7493 218.936 83.4977 218.114 83.0625C217.393 82.6803 216.727 82.3364 215.99 82.0466C214.961 81.6419 213.783 81.3839 212.818 81.1551C211.767 80.906 210.443 80.5135 209.166 80.4084C207.061 80.2352 198.557 82.2697 197.621 82.4562" stroke="black" stroke-width="3.64854" stroke-linecap="round"/>
<path d="M161.638 123.097C161.779 122.746 163.527 120.339 166.707 119.991C166.758 119.972 166.842 119.938 166.963 119.897C167.256 119.799 167.769 119.662 168.551 119.618C169.316 119.764 169.938 120.054 170.533 120.448C171.127 120.843 171.629 121.326 171.862 121.837C172.089 122.335 172.656 122.792 172.655 123.602C172.653 124.947 172.521 125.484 171.688 126.419C170.896 127.309 170.066 128.294 168.88 128.281C166.93 128.259 166.084 128.282 165.089 127.948C164.153 127.635 163.331 127.156 162.825 126.579C161.999 125.638 161.284 123.979 161.638 123.097Z" fill="black"/>
<path d="M166.707 119.991C163.527 120.339 161.779 122.746 161.638 123.097C161.284 123.979 161.999 125.638 162.825 126.579C163.331 127.156 164.153 127.635 165.089 127.948C166.084 128.282 166.93 128.259 168.88 128.281C170.066 128.294 170.896 127.309 171.688 126.419C172.521 125.484 172.653 124.947 172.655 123.602C172.656 122.792 172.089 122.335 171.862 121.837C171.629 121.326 171.127 120.843 170.533 120.448C169.938 120.054 169.316 119.764 168.551 119.618C167.445 119.679 166.879 119.928 166.707 119.991ZM166.707 119.991C166.76 119.972 167.097 119.848 167.443 119.722" stroke="black" stroke-width="3.64854" stroke-linecap="round"/>
<path d="M40.8434 128.675C43.1986 130.644 45.5539 132.614 47.1598 133.916C48.7656 135.218 49.5507 135.792 50.1795 136.17C50.8082 136.548 51.2568 136.712 51.7191 136.384" stroke="black" stroke-width="3.64854" stroke-linecap="round"/>
<path d="M115.274 151.802L107.457 155.035" stroke="black" stroke-width="3.64854" stroke-linecap="round"/>
<path d="M194.462 157.771C200.519 158.592 204.087 159.097 205.44 159.221C206.344 159.264 207.69 159.264 208.551 159.182C209.413 159.099 209.749 158.935 210.096 158.766" stroke="black" stroke-width="3.64854" stroke-linecap="round"/>
<path d="M285.207 138.124C282.403 139.437 279.599 140.75 277.986 141.509C276.374 142.267 276.037 142.432 275.359 142.639C274.681 142.847 273.672 143.093 272.632 143.347" stroke="black" stroke-width="3.64854" stroke-linecap="round"/>
<path d="M3 120.102C3.3149 123.019 3.47353 124.435 3.70911 127.225C4.43137 135.779 4.34009 137.22 4.45966 138.722C4.55016 139.859 5.05039 140.932 5.3274 142.077C5.56156 143.045 5.76069 144.323 5.88025 146.218C5.99504 148.038 6.23422 150.403 6.35378 153.12C6.41603 154.534 6.94451 155.612 7.06408 156.757C7.17069 157.777 7.65481 158.69 7.77438 159.638C7.93403 160.904 8.12834 162.478 8.44442 163.426C8.52374 163.664 8.60187 163.899 8.68119 164.176C8.7605 164.453 8.83864 164.765 8.91914 164.85" stroke="black" stroke-width="3.72203" stroke-linecap="round"/>
<path d="M307.954 130.046C308.662 130.595 309.763 131.699 310.988 132.45C311.977 133.28 313.156 134.301 314.299 135.483C314.74 135.963 314.896 136.197 315.294 136.676" stroke="black" stroke-width="3.72203" stroke-linecap="round"/>
<path d="M315.53 137.623C315.53 141.719 315.686 143.774 315.806 147.118C315.864 148.74 316.004 152.274 316.043 156.653C316.16 158.453 316.241 161.82 316.241 166.399C316.241 167.853 316.241 176.064 316.241 175.742" stroke="black" stroke-width="3.72203" stroke-linecap="round"/>
<path d="M8.91895 164.377C13.4838 169.889 17.5846 173.053 20.9821 174.317C23.6975 175.327 27.0552 177.153 30.2941 178.735C33.6716 180.384 36.9899 182.201 39.6914 183.238C41.6205 183.979 44.5758 184.417 47.2655 185.21C50.0936 186.044 52.9479 186.946 55.3155 187.656C57.9299 188.441 60.3634 189.626 62.4208 190.419C64.2861 191.138 66.2067 191.369 68.1813 191.84C70.6831 192.437 72.8362 193.575 74.7326 193.814C76.6922 194.062 78.8311 194.996 80.8886 195.628C82.7995 196.215 84.6744 196.89 86.5709 197.522C88.4674 198.154 90.3568 198.784 92.6463 199.809C94.5643 200.668 96.5127 200.839 98.4092 201.31C100.349 201.792 102.195 202.572 104.092 203.205C106.672 204.065 110.245 203.993 112.22 204.232C114.711 204.534 116.875 205.414 119.164 205.653C122.089 205.958 125.872 206.361 127.768 206.6C129.995 206.881 132.501 207.308 148.154 207.547C151.923 207.604 154.274 207.942 157.35 208.02C164.355 208.198 175.119 208.103 177.408 207.864C179.45 207.651 181.275 206.683 186.143 206.129C189.277 206.048 194.903 206.048 198.035 206.126C201.168 206.204 201.637 206.361 202.12 206.522" stroke="black" stroke-width="3.72203" stroke-linecap="round"/>
<path d="M201.173 206.521C208.276 206.995 213.48 206.128 214.86 206.009C215.538 205.95 217.493 205.811 223.261 205.186C227.41 204.736 233.95 203.311 237.449 202.628C241.827 201.773 243.232 201.393 244.339 201.038C245.848 200.554 247.1 200.209 248.088 199.893C249.22 199.531 250.335 199.419 251.835 199.183C253.427 198.933 254.833 198.552 256.058 198.236C257.117 197.963 258.385 197.842 259.413 197.565C260.497 197.273 262.249 196.895 264.577 196.343C266.541 195.878 267.619 195.474 269.826 194.529C271.13 193.972 272.198 193.58 273.185 193.46C274.431 193.309 275.669 192.87 276.697 192.514C277.717 192.163 278.59 191.529 281.267 190.308C283.397 189.335 284.902 188.925 286.56 188.293C287.981 187.751 289.164 186.95 290.31 186.399C291.942 185.613 293.27 185.293 298.187 183.13C300.323 182.191 301.32 181.505 302.465 180.992C303.582 180.492 305.027 180.084 306.056 179.572C306.963 179.12 308.105 178.588 309.134 177.875C310.071 177.226 311.027 176.613 311.975 175.981C312.924 175.271 313.868 174.639 314.817 174.126C315.055 174.006 315.289 173.928 315.767 173.611" stroke="black" stroke-width="3.72203" stroke-linecap="round"/>
</g>
<path d="M42.4871 69.2944L27.8077 77.818L24.0194 79.2386L30.6488 82.5533L41.0665 89.1827C53.0626 94.7073 77.1496 105.756 77.5284 105.756C77.9072 105.756 99.153 114.28 109.729 118.542L134.826 124.224C148.4 123.277 175.644 121.383 176.023 121.383C176.496 121.383 222.902 114.753 224.323 114.28C225.744 113.806 256.997 106.23 257.944 105.756C258.701 105.378 271.834 100.232 278.306 97.7063L284.461 91.0769L272.623 82.0798C263.784 73.8719 246.011 57.3615 245.632 56.9826C245.253 56.6038 224.954 42.9346 214.852 36.1473L188.335 16.259L172.708 3.47363C167.341 5.68344 156.419 10.1978 155.661 10.5766C154.714 11.0501 124.882 25.2561 124.408 25.2561C123.934 25.2561 97.4167 38.5149 96.9432 39.462C96.5644 40.2196 82.8951 49.2483 76.1078 53.6679L42.4871 69.2944Z" fill="#CBFFAF"/>
<path d="M6.97213 89.1829L5.078 97.7065L10.7604 101.968C14.7065 104.809 22.6934 110.492 23.0722 110.492C23.5457 110.492 54.3252 128.012 55.2723 127.539C56.2193 127.065 92.2077 139.377 93.1548 139.377C94.1018 139.377 137.667 148.374 138.14 147.901C138.614 147.427 177.917 147.901 179.337 147.901C180.758 147.901 212.958 146.007 214.852 146.007C216.746 146.007 251.788 138.43 252.735 138.43C253.682 138.43 271.202 132.274 272.149 132.274C273.097 132.274 294.405 123.751 295.826 123.277C296.962 122.898 304.823 118.7 308.611 116.648L314.767 110.965C310.348 107.808 301.414 101.4 301.035 101.021C300.656 100.642 291.722 94.5496 287.302 91.5506L275.464 99.1271L241.843 110.965L204.435 117.595L163.237 121.857L130.09 122.804L101.678 116.648L75.1606 105.757C69.1625 102.757 57.0717 96.6647 56.6929 96.2859C56.2193 95.8124 36.331 87.2888 35.8575 86.3417C35.4787 85.5841 29.7016 81.2907 26.8604 79.2388L16.4427 81.6064L6.97213 89.1829Z" fill="#59F405" stroke="black" stroke-width="1.06344"/>
<path d="M6.02513 133.695L9.81337 142.218L15.0222 147.427C15.401 147.806 25.9134 152.636 31.1223 155.004C41.3821 158.634 61.9965 165.895 62.3753 165.895C62.8488 165.895 98.8372 176.786 99.3107 177.259C99.6896 177.638 112.096 179.943 118.252 181.048C130.09 181.679 153.956 182.942 154.714 182.942H177.443C182.179 182.153 191.744 180.574 192.123 180.574C192.596 180.574 206.329 181.995 207.276 181.995C208.033 181.995 229.374 178.838 239.949 177.259L268.835 169.209L292.511 161.159L309.558 152.636L315.241 148.848C314.767 137.483 313.915 114.564 314.294 113.806C314.673 113.049 303.718 117.91 298.194 120.436C292.669 123.435 281.525 129.433 281.147 129.433C280.673 129.433 247.052 140.324 246.579 140.324C246.2 140.324 215.484 145.059 200.173 147.427C188.966 147.585 166.457 147.901 166.079 147.901C165.7 147.901 143.823 148.532 132.931 148.848L97.8901 140.798L64.743 132.274L45.8017 123.277C37.1203 118.068 19.5681 107.84 18.8105 108.597C18.0528 109.355 9.97122 101.968 6.02513 98.1798L2.23688 95.3386L3.18394 107.65L6.02513 133.695Z" fill="#276F00"/>
<path d="M172.234 3C173.356 4.27204 174.028 3.17643 175.531 4.73447C177.034 6.29251 178.885 8.09799 180.651 9.72566C182.418 11.3533 184.044 12.7485 185.022 13.5493C186.693 14.9172 187.585 15.2627 188.802 15.9858C189.552 16.4316 190.919 17.4935 192.398 18.8022C194.256 20.4471 195.902 21.6366 197.551 22.9466C200.446 25.2462 201.35 25.8295 202.313 26.5557C203.219 27.2396 204.297 28.11 206.02 29.4337C206.814 30.0434 207.58 30.4726 208.656 31.1975C209.765 31.9443 211.481 32.9147 213.13 33.9741C213.932 34.4892 214.829 35.1554 215.907 35.861C216.844 36.4738 218.398 37.3936 222.068 39.8512C224.44 41.4393 225.652 42.5763 226.159 43.0096C227.608 44.2474 228.369 44.7722 229.218 45.476C230.625 46.6427 231.989 47.5451 232.817 48.3577C233.369 48.8989 234.595 49.741 236.663 51.3997C238.901 53.196 240.152 54.3467 241.17 55.1543C242.055 55.8567 243.041 56.7093 244.425 57.8054C245.74 58.8468 246.44 59.5692 248.586 61.3057C250.173 62.5897 252.89 64.8265 253.804 65.6627C254.5 66.2999 255.613 67.6889 256.606 68.79C257.85 70.1692 259.579 71.4217 260.317 71.9216C261.112 72.4596 261.846 72.9984 263.993 74.6105C265.768 75.9435 267.168 77.5544 267.964 78.242C268.944 79.0878 270.676 80.7028 271.816 81.4544C272.474 81.8885 273.734 82.941 274.903 83.7753C275.553 84.2397 276.402 84.6868 278.494 86.1342C279.933 87.1294 281.048 87.7133 281.982 88.2511C283.355 89.0417 284.161 89.7004 285.127 90.2829C285.934 90.7703 286.486 91.195 288.717 92.7238C290.28 93.7943 291.468 94.3011 292.547 95.0696C293.396 95.6751 294.585 96.3752 296.142 97.4924C297.048 98.1431 297.871 98.8621 298.242 99.3601C298.903 100.249 300.478 101.225 301.073 101.619C301.699 102.035 302.29 102.592 303.534 103.462C304.331 103.755 305.009 103.92 305.689 104.107C305.86 104.169 306.028 104.251 306.202 104.336" stroke="black" stroke-width="4.86472" stroke-linecap="round"/>
<path d="M172.9 3.20435C168.26 4.98496 165.78 5.81061 164.153 6.37327C161.667 7.233 159.197 9.12812 157.556 9.99853C156.341 10.643 155.571 11.0778 154.749 11.4098C153.944 11.7352 152.967 12.3611 151.861 12.9014C150.637 13.4992 148.556 14.8032 147.244 15.5953C146.359 16.1298 144.926 16.7952 143.508 17.5836C141.528 18.6842 140.11 19.2 139.2 19.5544C138.172 19.9547 137.558 20.2793 135.749 20.921C134.662 21.3064 133.089 21.8113 131.245 22.558C129.372 23.3163 127.192 24.425 125.299 25.2513C124.492 25.6035 123.849 25.8748 122.247 26.6159C118.653 28.2781 115.863 29.3565 115.213 29.7078C113.401 30.6883 111.167 31.6743 109.042 32.8972C107.101 34.0144 105.502 34.8252 104.421 35.4077C103.534 35.8858 102.385 36.3596 100.686 37.3742C99.1662 38.2817 98.3613 38.6823 96.9177 39.5304C95.8166 40.1772 94.565 40.9205 93.2931 41.6442C91.7549 42.5194 90.4934 43.2383 88.902 44.2555C87.796 44.9623 86.4082 45.77 83.7539 47.6289C81.9745 48.8751 80.9704 49.376 79.6985 50.2029C78.1953 51.1801 77.1775 51.654 74.2657 53.3295C72.8026 54.1714 71.5664 54.9292 70.4644 55.5714C69.206 56.3048 67.3283 57.3291 64.3842 58.9033C61.7849 60.2931 59.6745 61.4362 58.3482 62.0765C55.4215 63.4896 54.461 63.8422 52.6521 64.6275C51.6674 65.0549 49.9374 65.7447 48.5703 66.2458C46.544 66.9885 43.3066 69.0199 42.0848 69.6852C41.2289 70.1512 40.3566 70.3081 39.5639 70.6389C38.279 71.175 37.3012 71.7978 35.7421 72.6477C34.8052 73.1584 34.0691 73.6232 33.0784 74.1616C32.1127 74.6864 30.7316 75.65 29.4818 76.4203C28.4946 77.0287 27.4995 77.4356 26.423 77.9746C25.1638 78.6051 24.0465 79.3828 22.8825 80.0058C22.0607 80.4456 21.3242 80.6287 20.6156 80.9185C19.6862 81.2984 18.4387 81.8697 17.5568 82.3068C16.6511 82.7556 15.7742 83.2798 14.6136 83.9836C13.0826 84.9119 12.4877 85.3116 10.6507 86.634C9.5445 87.4303 8.91914 87.8805 7.76105 88.7279C5.37673 90.4726 4.95292 90.9891 4.52724 91.5076C4.07429 92.0594 3.9877 94.4932 4.38195 96.0251C4.6424 97.0371 5.96571 97.6192 6.59107 98.2428C7.5169 99.166 9.07887 100.352 10.1019 101.082C10.9778 101.707 12.6407 103.043 13.7563 103.963C14.6227 104.677 15.312 105.329 16.7828 106.447C18.4809 107.738 19.3904 108.397 20.1848 109.019C21.3338 109.918 22.789 110.678 23.5554 111.134C24.792 111.869 26.7518 112.831 29.5515 114.238C31.9269 115.432 33.8346 116.977 34.714 117.661C35.6202 118.366 37.2876 119.297 38.7049 120.065C40.3887 120.976 41.8792 121.414 43.1231 122.075C44.6396 122.88 45.8964 123.607 47.4564 124.396C48.1233 124.733 50.4166 125.675 53.5017 127.083C55.8588 128.159 57.394 128.872 58.9277 129.288C59.8572 129.541 61.9754 130.237 63.3196 130.677C64.3481 131.014 65.7785 131.65 66.8592 131.921C67.8352 132.166 68.8407 132.356 70.0863 132.749C71.268 133.122 72.2937 133.515 73.4288 133.827C75.1523 134.301 76.7119 134.758 78.158 135.36C79.288 135.829 80.2261 136.417 81.0486 136.77C82.1327 137.234 82.945 137.536 83.8525 137.848C84.739 138.152 86.5612 138.777 88.241 139.236C89.3926 139.551 90.6464 139.774 91.6974 139.983C92.6906 140.149 93.593 140.396 94.5582 140.708C94.7859 140.77 95.0102 140.812 95.5812 140.978" stroke="black" stroke-width="4.86472" stroke-linecap="round"/>
<path d="M95.2416 140.48C97.619 140.521 98.6335 140.851 99.7678 141.204C101.883 141.863 104.003 142.383 106.027 142.615C107.129 142.741 108.49 142.801 109.823 143.07C110.865 143.28 111.552 143.504 112.598 143.774C114.845 144.354 116.422 144.79 117.357 145.059C118.477 145.381 119.875 145.618 121.321 145.93C122.306 146.142 123.331 146.282 124.296 146.469C125.978 146.794 127.24 146.986 128.459 147.194C129.45 147.364 130.584 147.526 132.082 147.692C133.696 147.871 135.057 147.941 136.981 148.251C138.108 148.432 139.363 148.563 142.266 148.769C146.322 149.058 149.221 148.853 149.842 148.915C151.305 149.061 153.794 149.06 155.648 148.936C156.431 148.884 157.318 148.647 158.311 148.46C158.831 148.361 159.36 148.397 160.626 148.335C163.511 148.194 165.648 148.355 166.997 148.417C170.135 148.562 172.501 148.397 173.403 148.335C176.173 148.144 177.649 148.19 178.929 148.066C180.261 147.937 181.054 147.859 181.988 147.796C183.323 147.706 184.674 147.61 186.46 147.548C188.249 147.485 189.721 147.526 190.993 147.589C191.94 147.635 193.058 147.774 195.887 147.796C197.432 147.808 198.554 147.61 199.492 147.548C200.769 147.462 202.122 147.362 202.976 147.299C203.832 147.236 205.405 147.031 206.375 146.926C207.183 146.838 208.073 146.698 209.036 146.491C209.753 146.338 210.677 146.243 211.585 146.056C212.824 145.802 216.203 145.171 218.466 144.771C220.145 144.474 221.042 144.377 221.923 144.232C223.005 144.053 223.931 144.004 224.727 143.859C225.501 143.718 226.762 143.549 227.898 143.341C228.911 143.155 230.389 142.928 231.185 142.822C232.032 142.711 233.838 142.555 235.064 142.346C236.66 142.075 237.811 141.973 238.942 141.828C239.851 141.712 240.869 141.517 241.717 141.373C242.235 141.284 244.59 140.693 248.24 139.782C251.375 139 252.704 138.7 254.292 138.368C255.829 138.047 257.292 137.623 258.598 137.228C260.001 136.804 261.371 136.504 262.593 136.233C263.6 136.009 264.657 135.467 266.018 135.114C267.275 134.789 267.889 134.43 270.318 133.542C272.538 132.73 273.609 132.152 274.376 131.778C275.157 131.396 276.661 130.869 277.774 130.513C278.6 130.249 279.275 129.996 279.955 129.684C280.654 129.365 281.708 128.837 282.391 128.338C283.003 127.891 283.863 127.758 284.544 127.529C285.273 127.284 285.902 126.969 286.583 126.679C287.264 126.389 287.941 126.141 288.622 125.912C289.351 125.667 290.205 125.271 291.142 124.856C291.816 124.558 292.642 124.358 293.38 124.089C294.05 123.844 294.851 123.53 295.758 123.095C296.666 122.659 297.682 122.162 298.732 121.5C299.425 121.063 299.949 120.381 300.687 119.965C301.368 119.592 301.934 119.301 302.302 119.177C302.445 119.094 302.501 118.971 302.559 118.844" stroke="black" stroke-width="4.86472" stroke-linecap="round"/>
<path d="M302.899 119.217C306.578 117.851 307.484 117.519 308.306 117.023C308.956 116.63 310.03 116.196 310.742 115.593C311.429 115.012 312.072 114.495 312.302 113.997C312.697 113.458 312.981 113.001 313.15 112.712C313.263 112.546 313.432 112.341 313.605 112.13" stroke="black" stroke-width="4.86472" stroke-linecap="round"/>
<path d="M26.249 79.178C28.8286 81.2297 30.4379 82.4918 31.3393 83.1514C34.0363 85.1249 34.6845 85.7235 36.2385 86.985C38.6826 88.9689 40.1801 88.9166 40.8606 89.1454C41.8438 89.4759 43.1233 90.3242 43.9194 90.844C44.5766 91.273 45.7844 91.7741 47.1456 92.4804C48.48 93.1728 49.8628 93.8059 51.0251 94.325C53.31 95.3455 55.0695 96.248 56.1826 96.8337C56.9243 97.2239 60.487 98.3569 63.1762 99.4853C64.0572 99.855 65.1023 100.314 65.8407 100.585C66.8772 100.966 68.6097 102.052 70.0584 102.801C71.5778 103.586 73.429 104.293 74.3084 104.667C75.2522 105.069 76.4878 105.661 77.3672 106.159C78.1147 106.582 78.979 107.029 79.8873 107.506C81.2735 108.233 82.1499 109.016 83.3684 109.619C86.2012 111.021 87.4212 111.465 88.2429 111.838C89.0617 112.209 90.1402 112.46 90.9609 112.791C92.4059 113.373 94.4326 114.196 96.115 114.863C97.32 115.341 98.127 115.569 99.2868 115.879C100.585 116.226 101.638 116.77 102.517 116.875C103.351 116.975 104.469 117.185 105.716 117.454C106.638 117.653 107.64 118.013 109.452 118.448C111.082 118.84 112.344 119.05 113.138 119.34C114.184 119.721 115.12 120.003 116.026 120.232C117.372 120.572 118.519 120.873 119.735 121.205C121.256 121.621 122.652 121.786 123.898 121.972C126.627 122.381 129.734 122.283 130.556 122.429C131.25 122.552 132.168 122.574 133.104 122.677C134.481 122.829 135.284 122.905 136.051 122.968C136.479 123.003 138.331 123.072 140.935 123.051C143.552 123.03 146.384 123.029 147.294 123.092C148.93 123.205 151.2 123.114 154.112 123.092C155.625 123.081 157.43 123.278 158.791 123.3C160.055 123.32 161.393 123.072 162.39 122.968C163.209 122.884 164.339 122.823 165.279 122.72C166.207 122.618 167.68 122.41 168.706 122.202C170.346 121.869 172.557 121.995 173.857 121.911C175.863 121.783 177.424 121.497 179.351 121.228C180.485 121.07 181.394 121 182.835 120.855C184.665 120.67 185.696 120.709 186.971 120.565C188.949 120.341 190.285 120.087 191.363 119.964C192.232 119.864 193.119 119.714 194.279 119.611C195.492 119.503 196.854 119.301 198.272 119.093C200.031 118.835 202.635 118.471 203.88 118.347C204.687 118.267 205.803 118.14 206.715 117.995C207.935 117.8 210.109 117.561 211.442 117.332C212.682 117.119 214.354 116.815 215.945 116.524C216.726 116.381 217.756 116.193 219.427 115.861C220.982 115.552 222.568 115.322 223.876 115.094C225.26 114.851 227.044 114.288 228.238 113.995C229.156 113.77 230.501 113.333 231.496 113.228C232.4 113.132 233.842 112.711 235.035 112.503C235.856 112.36 236.734 112.047 237.669 111.716C239.315 111.134 240.133 110.928 241.124 110.721C243.148 110.299 245.118 109.56 245.827 109.415C246.026 109.394 246.25 109.394 246.478 109.332C246.706 109.271 246.93 109.148 247.331 108.896" stroke="black" stroke-width="4.86472" stroke-linecap="round"/>
<path d="M248.69 108.151C253.176 106.755 256.216 105.832 257.573 105.418C259.754 104.754 261.707 103.803 263.773 103.118C267.015 102.043 269.42 101.395 269.871 101.23C271.223 100.737 271.798 100.195 272.647 99.8002C273.498 99.4048 274.177 99.1579 274.885 98.8259C275.676 98.4553 276.498 98.1632 277.264 97.8107C278.19 97.3847 279.047 96.8377 279.897 96.3608C281.222 95.6183 281.936 95.1391 282.533 94.5989C283.102 94.0843 283.468 93.6047 283.723 93.1067C283.92 92.8586 284.148 92.5677 284.318 92.2369C284.376 92.0703 284.376 91.9062 284.376 91.7371" stroke="black" stroke-width="4.86472" stroke-linecap="round"/>
<path d="M148.49 40.4619C148.886 39.9241 150.689 38.0414 154.718 38.1448C154.953 38.1508 155.173 38.0614 155.488 38.0198C156.195 37.9371 156.76 37.8538 157.359 37.7922C159.309 37.814 160.14 37.8075 160.838 38.021C161.519 38.2293 162.461 38.3988 163.416 39.4323C163.952 40.0124 165.288 40.6759 164.118 42.7735C163.323 44.2003 161.023 46.5458 158.792 46.9533C158.227 47.0565 157.662 47.0324 157.122 46.9937C156.244 46.9309 155.466 46.724 154.658 46.5996C153.579 46.4336 152.41 46.1429 151.656 45.7285C150.976 45.3542 148.161 44.0336 148.119 42.6355C148.09 41.7035 148.165 40.9028 148.49 40.4619Z" fill="#59F405" stroke="black" stroke-width="3.64854" stroke-linecap="round"/>
<path d="M98.2195 68.3175C99.3232 67.945 98.5857 68.3181 101.869 68.1117H101.869C102.042 68.1117 102.21 68.1117 102.497 68.0694C103.799 67.863 104.817 67.7797 105.752 67.7598C107.154 67.863 109.196 67.7976 111.277 68.0085C112.296 68.1117 113.224 68.095 114.078 68.2571C114.845 68.4026 115.802 68.5777 116.514 68.9006C117.336 69.273 118.014 69.5217 118.695 69.8537C119.375 70.1857 120.22 70.4105 120.989 71.1811C121.527 71.7201 122.305 72.2511 122.772 72.8386C123.168 73.3366 123.429 73.8268 123.621 74.4769C123.848 75.2441 124.078 75.9052 124.159 76.4657C124.3 77.4474 124.694 78.6909 124.441 80.6338C124.3 81.715 124.321 82.8121 124.043 83.3681C123.505 84.448 122.823 86.3778 121.46 87.4323C119.481 88.9642 118.641 89.7777 117.84 90.1219C116.87 90.5384 115.659 90.9995 114.809 91.2199C113.927 91.4486 112.679 91.6796 111.664 91.8832C110.532 92.1102 109.493 92.5483 107.528 92.3377C106.566 92.2345 105.753 92.2731 104.499 92.089C103.507 91.9435 102.495 91.8293 101.554 91.7576C100.73 91.6948 99.52 91.5804 98.6367 91.218C97.6715 90.8219 96.5688 90.3164 95.8031 89.765C94.0383 88.4942 92.1853 87.1169 91.2455 85.9937C90.7077 85.3508 90.1485 84.7383 89.8877 83.8176C89.6881 83.1126 89.5237 82.2389 88.8367 81.0367C87.8188 79.2554 87.1543 78.3965 87.4535 77.7254C87.8256 76.8904 88.6956 75.5217 89.4383 74.5533C90.0891 73.7047 92.3324 71.148 94.594 69.9743C95.8736 69.3103 97.3213 68.6205 98.2195 68.3175Z" fill="#59F405" stroke="black" stroke-width="3.64854" stroke-linecap="round"/>
<path d="M188.735 63.405C189.5 62.5961 190.852 61.2772 196.639 57.4526C197.66 57.2451 206.074 55.2363 208.166 55.4084C209.443 55.5135 210.767 55.906 211.818 56.1551C212.783 56.3839 213.961 56.6419 214.99 57.0466C215.727 57.3364 216.393 57.6803 217.114 58.0625C217.936 58.4977 218.892 58.7493 219.919 59.4309C220.825 60.0321 221.541 60.5086 222.012 61.0263C222.466 61.5243 222.845 62.1254 223.288 62.8523C223.996 64.0137 224.481 64.8307 224.872 65.6898C225.185 66.3762 225.565 67.3627 225.551 68.2855C225.522 70.2707 225.183 70.9092 224.927 71.7423L224.923 71.7538C224.612 72.767 224.33 73.6864 223.907 74.4145C223.595 74.9535 223.268 75.4548 222.801 76.011C222.123 76.8187 221.549 77.3946 220.819 78.0621C220.138 78.6838 219.62 79.2135 218.663 79.8875C217.134 80.9643 216.106 81.632 215.353 82.0194C214.585 82.4142 213.653 83.0521 212.406 83.366L212.403 83.3668C211.581 83.5737 210.58 83.8258 209.29 83.9044C207.261 84.0282 203.934 84.008 202.067 83.5295C200.936 83.2398 198.947 82.3405 197.367 81.6849C196.518 81.3324 195.265 81.0371 194.479 80.5241C193.683 80.0044 192.245 79.2576 191.561 78.2206C190.798 77.0624 190.352 76.4803 189.863 75.9016C189.268 75.1972 188.612 74.7659 188.362 74.1397C188.024 73.2898 187.369 72.3789 187.571 68.2053C187.628 67.0315 187.576 66.4784 187.742 65.9522C188.082 64.8766 188.06 64.1177 188.735 63.405Z" fill="#59F405"/>
<path d="M196.691 57.4184C190.86 61.2694 189.503 62.5936 188.735 63.405C188.06 64.1177 188.082 64.8766 187.742 65.9522C187.576 66.4784 187.628 67.0315 187.571 68.2053C187.369 72.3789 188.024 73.2898 188.362 74.1397C188.612 74.7659 189.268 75.1972 189.863 75.9016C190.352 76.4803 190.798 77.0624 191.561 78.2206C192.245 79.2576 193.683 80.0044 194.479 80.5241C195.265 81.0371 196.518 81.3324 197.367 81.6849C198.947 82.3405 200.936 83.2398 202.067 83.5295C203.934 84.008 207.261 84.0282 209.29 83.9044C210.581 83.8257 211.584 83.5731 212.406 83.366C213.653 83.0521 214.585 82.4142 215.353 82.0194C216.106 81.632 217.134 80.9643 218.663 79.8875C219.62 79.2135 220.138 78.6838 220.819 78.0621C221.549 77.3946 222.123 76.8187 222.801 76.011C223.268 75.4548 223.595 74.9535 223.907 74.4145C224.331 73.6836 224.614 72.7601 224.927 71.7423C225.183 70.9092 225.522 70.2707 225.551 68.2855C225.565 67.3627 225.185 66.3762 224.872 65.6898C224.481 64.8307 223.996 64.0137 223.288 62.8523C222.845 62.1254 222.466 61.5243 222.012 61.0263C221.541 60.5086 220.825 60.0321 219.919 59.4309C218.892 58.7493 217.936 58.4977 217.114 58.0625C216.393 57.6803 215.727 57.3364 214.99 57.0466C213.961 56.6419 212.783 56.3839 211.818 56.1551C210.767 55.906 209.443 55.5135 208.166 55.4084C206.061 55.2352 197.557 57.2697 196.621 57.4562" stroke="black" stroke-width="3.64854" stroke-linecap="round"/>
<path d="M160.638 98.0969C160.779 97.7457 162.527 95.3386 165.707 94.9908C165.758 94.9724 165.842 94.9382 165.963 94.8973C166.256 94.7986 166.769 94.6615 167.551 94.6184C168.316 94.7639 168.938 95.0536 169.533 95.4484C170.127 95.8432 170.629 96.3257 170.862 96.8373C171.089 97.3353 171.656 97.7924 171.655 98.6024C171.653 99.9466 171.521 100.484 170.688 101.419C169.896 102.309 169.066 103.294 167.88 103.281C165.93 103.259 165.084 103.282 164.089 102.948C163.153 102.635 162.331 102.156 161.825 101.579C160.999 100.638 160.284 98.9795 160.638 98.0969Z" fill="#59F405"/>
<path d="M165.707 94.9908C162.527 95.3386 160.779 97.7457 160.638 98.0969C160.284 98.9795 160.999 100.638 161.825 101.579C162.331 102.156 163.153 102.635 164.089 102.948C165.084 103.282 165.93 103.259 167.88 103.281C169.066 103.294 169.896 102.309 170.688 101.419C171.521 100.484 171.653 99.9466 171.655 98.6024C171.656 97.7924 171.089 97.3353 170.862 96.8373C170.629 96.3257 170.127 95.8432 169.533 95.4484C168.938 95.0536 168.316 94.7639 167.551 94.6184C166.445 94.6793 165.879 94.928 165.707 94.9908ZM165.707 94.9908C165.76 94.9715 166.097 94.8484 166.443 94.7216" stroke="black" stroke-width="3.64854" stroke-linecap="round"/>
<path d="M39.8434 103.675C42.1986 105.644 44.5539 107.614 46.1598 108.916C47.7656 110.218 48.5507 110.792 49.1795 111.17C49.8082 111.548 50.2568 111.712 50.7191 111.384" stroke="black" stroke-width="3.64854" stroke-linecap="round"/>
<path d="M114.274 126.802L106.457 130.035" stroke="black" stroke-width="3.64854" stroke-linecap="round"/>
<path d="M193.462 132.771C199.519 133.592 203.087 134.097 204.44 134.221C205.344 134.264 206.69 134.264 207.551 134.182C208.413 134.099 208.749 133.935 209.096 133.766" stroke="black" stroke-width="3.64854" stroke-linecap="round"/>
<path d="M284.207 113.124C281.403 114.437 278.599 115.75 276.986 116.509C275.374 117.267 275.037 117.432 274.359 117.639C273.681 117.847 272.672 118.093 271.632 118.347" stroke="black" stroke-width="3.64854" stroke-linecap="round"/>
<path d="M2 95.1018C2.3149 98.0188 2.47353 99.4346 2.70911 102.225C3.43137 110.779 3.34009 112.22 3.45966 113.722C3.55016 114.859 4.05039 115.932 4.3274 117.077C4.56156 118.045 4.76069 119.323 4.88025 121.218C4.99504 123.038 5.23422 125.403 5.35378 128.12C5.41603 129.534 5.94451 130.612 6.06408 131.757C6.17069 132.777 6.65481 133.69 6.77438 134.638C6.93403 135.904 7.12834 137.478 7.44442 138.426C7.52374 138.664 7.60187 138.899 7.68119 139.176C7.7605 139.453 7.83864 139.765 7.91914 139.85" stroke="black" stroke-width="3.72203" stroke-linecap="round"/>
<path d="M306.954 105.046C307.662 105.595 308.763 106.699 309.988 107.45C310.977 108.28 312.156 109.301 313.299 110.483C313.74 110.963 313.896 111.197 314.294 111.676" stroke="black" stroke-width="3.72203" stroke-linecap="round"/>
<path d="M314.53 112.623C314.53 116.719 314.686 118.774 314.806 122.118C314.864 123.74 315.004 127.274 315.043 131.653C315.16 133.453 315.241 136.82 315.241 141.399C315.241 142.853 315.241 151.064 315.241 150.742" stroke="black" stroke-width="3.72203" stroke-linecap="round"/>
<path d="M7.91895 139.377C12.4838 144.889 16.5846 148.053 19.9821 149.317C22.6975 150.327 26.0552 152.153 29.2941 153.735C32.6716 155.384 35.9899 157.201 38.6914 158.238C40.6205 158.979 43.5758 159.417 46.2655 160.21C49.0936 161.044 51.9479 161.946 54.3155 162.656C56.9299 163.441 59.3634 164.626 61.4208 165.419C63.2861 166.138 65.2067 166.369 67.1813 166.84C69.6831 167.437 71.8362 168.575 73.7326 168.814C75.6922 169.062 77.8311 169.996 79.8886 170.628C81.7995 171.215 83.6744 171.89 85.5709 172.522C87.4674 173.154 89.3568 173.784 91.6463 174.809C93.5643 175.668 95.5127 175.839 97.4092 176.31C99.3493 176.792 101.195 177.572 103.092 178.205C105.672 179.065 109.245 178.993 111.22 179.232C113.711 179.534 115.875 180.414 118.164 180.653C121.089 180.958 124.872 181.361 126.768 181.6C128.995 181.881 131.501 182.308 147.154 182.547C150.923 182.604 153.274 182.942 156.35 183.02C163.355 183.198 174.119 183.103 176.408 182.864C178.45 182.651 180.275 181.683 185.143 181.129C188.277 181.048 193.903 181.048 197.035 181.126C200.168 181.204 200.637 181.361 201.12 181.522" stroke="black" stroke-width="3.72203" stroke-linecap="round"/>
<path d="M200.173 181.521C207.276 181.995 212.48 181.128 213.86 181.009C214.538 180.95 216.493 180.811 222.261 180.186C226.41 179.736 232.95 178.311 236.449 177.628C240.827 176.773 242.232 176.393 243.339 176.038C244.848 175.554 246.1 175.209 247.088 174.893C248.22 174.531 249.335 174.419 250.835 174.183C252.427 173.933 253.833 173.552 255.058 173.236C256.117 172.963 257.385 172.842 258.413 172.565C259.497 172.273 261.249 171.895 263.577 171.343C265.541 170.878 266.619 170.474 268.826 169.529C270.13 168.972 271.198 168.58 272.185 168.46C273.431 168.309 274.669 167.87 275.697 167.514C276.717 167.163 277.59 166.529 280.267 165.308C282.397 164.335 283.902 163.925 285.56 163.293C286.981 162.751 288.164 161.95 289.31 161.399C290.942 160.613 292.27 160.293 297.187 158.13C299.323 157.191 300.32 156.505 301.465 155.992C302.582 155.492 304.027 155.084 305.056 154.572C305.963 154.12 307.105 153.588 308.134 152.875C309.071 152.226 310.027 151.613 310.975 150.981C311.924 150.271 312.868 149.639 313.817 149.126C314.055 149.006 314.289 148.928 314.767 148.611" stroke="black" stroke-width="3.72203" stroke-linecap="round"/>
</svg>
