<svg width="282" height="155" viewBox="0 0 282 155" fill="none" xmlns="http://www.w3.org/2000/svg">
<g opacity="0.3">
<path d="M148 129L149 149.5C149.833 149.833 151.6 150.5 152 150.5C152.5 150.5 165.5 141.5 166 141C166.4 140.6 184.167 129.833 193 124.5C201 119.5 217.1 109.6 217.5 110C217.9 110.4 237.333 98.1667 247 92L269 81L279 77.5C279.5 74.8333 280.5 69.4 280.5 69C280.5 68.6 280.167 59.8333 280 55.5L275.5 60C271.333 62 262.9 66.1 262.5 66.5C262.1 66.9 229.333 82 213 89.5L183 106.5L159 121L148 129Z" fill="black"/>
<path d="M13 76.5L16 84L23 88L38 98L66 112.5L109.5 132C119.167 137.167 138.5 147.6 138.5 148C138.5 148.4 145.5 151.167 149 152.5V139V129L141 123L113.5 111L87 97C79.5 92.6667 64.4 83.9 64 83.5C63.6 83.1 45.5 74.3333 36.5 70L17.5 62L9.5 60L13 76.5Z" fill="black"/>
<path d="M128.84 119.439C129.617 119.698 140.488 126.687 141.782 126.945H149.806C152.308 124.875 157.726 120.682 159.383 120.475C161.453 120.216 186.302 104.168 188.631 103.65C190.961 103.133 226.68 82.167 228.233 81.6493C229.786 81.1317 257.222 68.7076 259.293 67.9311C261.364 67.1546 272.235 59.6484 274.564 59.3896C276.894 59.1307 277.152 54.9894 277.929 53.6952C278.705 52.401 274.823 49.8127 274.564 49.0362C274.357 48.415 259.293 41.8751 251.787 38.6828L222.797 32.9885C211.667 31.2629 189.252 27.8118 188.631 27.8118H153.947H125.993L107.616 29.1059L74.4851 32.212C63.7866 35.4905 42.2343 42.1512 41.6131 42.5653C40.8366 43.083 15.4708 53.1775 14.4355 53.4364C13.6072 53.6435 11.6745 56.6287 10.8118 58.0954L15.4708 62.2368C21.0789 64.0486 32.4503 67.724 33.0715 67.9311C33.6927 68.1382 53.5195 77.6805 63.3552 82.4258C67.9279 85.5319 77.2805 91.7957 78.1087 92.0027C79.1441 92.2616 96.2271 102.615 97.7802 102.615C99.3332 102.615 128.064 119.18 128.84 119.439Z" fill="black" stroke="#F69F1C" stroke-width="0.517669"/>
<path d="M9.51733 58.6131L17.8 53.9541C22.4591 51.0207 31.9842 45.1538 32.8124 45.1538C33.8478 45.1538 49.8955 39.4594 50.9309 39.9771C51.9662 40.4947 74.4848 34.5415 75.2613 34.5415C75.8825 34.5415 102.784 30.0551 116.157 27.8118L131.428 26C138.417 26.6039 152.705 27.8118 153.947 27.8118H173.36C174.395 27.8118 202.09 31.1767 202.867 31.4355C203.643 31.6944 239.104 35.8357 239.88 35.8357C240.501 35.8357 248.594 38.5966 252.563 39.9771L267.058 45.9303C269.646 46.8793 275.03 48.8292 275.858 49.0363C276.686 49.2433 278.101 52.5737 278.705 54.213C277.325 55.8522 274.305 59.4414 273.27 60.6838C272.234 61.9262 268.007 62.7545 266.022 63.0133L253.857 59.6485L240.657 54.7306L210.891 45.1538C200.451 43.9459 179.365 41.5818 178.536 41.7889C177.708 41.996 152.48 40.6673 139.97 39.9771C126.942 41.5301 100.731 44.7396 100.109 45.1538C99.4882 45.5679 77.5908 50.1579 66.7198 52.4011C57.7468 55.5071 39.5939 61.7192 38.7656 61.7192C37.7303 61.7192 28.4123 65.8605 27.6358 65.8605C27.0145 65.8605 17.8863 63.0996 13.3999 61.7192L9.51733 58.6131Z" fill="black"/>
<path d="M151.027 126.569C153.23 125.13 155.434 123.692 157.582 122.123C159.73 120.554 161.755 118.898 162.977 117.957C164.489 116.794 166.057 116.009 168.188 114.713C171.215 112.874 172.257 111.958 173.884 111.14C175.166 110.496 176.293 110.104 177.016 109.796C177.838 109.446 178.877 108.699 179.932 108.08C180.995 107.457 182.365 106.718 183.842 106.077C185.287 105.451 186.401 104.647 189.04 103.175C190.763 102.215 191.512 101.609 194.844 99.8523C196.555 98.9506 197.53 98.5263 198.523 97.9551C200.369 96.8926 201.501 96.3259 202.435 95.9066C203.345 95.4979 204.447 94.8731 205.504 94.2563C206.258 93.8159 206.977 93.3753 207.939 92.9791C209.352 92.3974 211.002 91.4866 213.05 90.4056C214.641 89.566 215.818 88.9297 216.905 88.4225C217.807 88.0014 218.648 87.4768 220.481 86.5094C221.61 85.9137 222.977 85.1444 224.634 84.3077C226.172 83.5311 227.789 82.5927 229.118 81.8412C229.864 81.4194 230.442 80.9602 231.134 80.4544C232.24 79.6466 233.269 79.2881 234.203 78.8688C235.081 78.4746 235.857 77.9674 236.789 77.548C237.907 77.0453 238.745 76.6889 239.587 76.3376C241.04 75.7313 242.232 75.1938 243.228 74.7084C243.923 74.3692 244.701 74.0923 245.424 73.8493C246.469 73.4982 247.589 72.7715 248.312 72.4189C249.077 72.0459 250.055 71.6277 250.839 71.2302C251.553 70.8682 252.282 70.5262 253.455 70.064C254.331 69.7183 254.99 69.2927 255.713 69.0067C256.412 68.73 257.156 68.413 257.879 68.0604C258.575 67.7206 259.322 67.4885 260.045 67.2237C260.853 66.9276 261.488 66.564 262.211 66.2113C262.923 65.8638 263.473 65.4625 264.196 65.1547C264.919 64.8457 265.46 64.67 265.761 64.4508C265.883 64.3187 265.942 64.1443 266.004 63.8326" stroke="black" stroke-width="4.60173" stroke-linecap="round"/>
<path d="M269.794 61.8516C271.115 61.1925 271.957 60.7527 272.679 60.4879C273.596 60.1523 274.303 59.4768 275.026 59.0357C275.85 58.533 276.289 57.8919 276.802 57.363C277.263 56.8886 277.613 56.2199 277.916 55.6242C278.231 55.0026 278.278 53.8478 278.098 53.0045C277.981 52.4536 277.736 51.5127 277.347 50.781C276.961 50.0541 275.574 49.5712 274.851 49.2832C274.102 48.9851 273.408 48.6017 272.685 48.2709C272.011 47.9623 271.242 47.6772 270.519 47.3028C269.735 46.8966 268.957 46.4885 268.172 46.0263C267.508 45.6347 266.61 45.4319 265.796 45.0793C264.617 44.5686 263.119 44.1112 262.397 43.7803C261.722 43.4718 260.953 43.2738 260.231 42.9879C259.531 42.7112 258.668 42.307 257.884 42.0191C257.077 41.7227 256.141 41.2504 255.207 40.7432C254.475 40.3458 253.734 40.0168 252.711 39.5545C251.94 39.2062 251.207 38.9602 250.245 38.6076C248.934 38.1271 247.181 37.9036 245.733 37.5728C244.038 37.1856 242.543 37.1534 241.73 37.022C240.559 36.8325 239.716 36.7572 238.722 36.6258C237.669 36.4864 236.828 36.4059 236.014 36.3392C235.006 36.2565 233.821 36.0096 232.197 35.7455C231.129 35.5719 229.673 35.3942 228.105 35.1729C226.54 34.9522 225.096 34.6889 223.773 34.6222C222.247 34.5453 221.063 34.2477 219.741 34.0285C218.841 33.8792 217.876 33.6323 217.092 33.456C216.363 33.2922 215.648 33.104 214.926 32.9059C214.156 32.6948 213.483 32.4436 212.61 32.2891C211.872 32.1584 211.017 32.0474 210.233 31.871C209.45 31.6951 208.609 31.5191 207.587 31.3427C206.69 31.1881 205.602 31.1228 204.069 31.0561C202.946 31.0073 201.631 30.8587 200.578 30.7042C199.245 30.5086 198.263 30.5496 197.267 30.44C196.458 30.3509 195.494 30.2855 194.56 30.1541C193.783 30.0448 192.967 29.7149 191.883 29.4937C191.093 29.3324 190.379 29.1417 189.476 28.8558C188.571 28.5688 187.433 28.6134 186.408 28.4371C185.396 28.2631 184.065 28.2172 182.205 28.0626C176.694 27.6048 174.986 27.9081 173.355 27.7985C170.414 27.6008 169.084 27.644 167.819 27.5343C165.246 27.3112 163.791 27.644 162.345 27.7536C159.466 27.9717 158.254 27.9081 157.197 28.0177C156.806 28.0402 156.443 28.0838 155.607 28.1498C154.949 28.1723 153.817 28.1723 152.651 28.1723" stroke="black" stroke-width="4.60173" stroke-linecap="round"/>
<path d="M16.9167 62.9079C11.1426 60.1356 10.4224 59.6958 9.54968 59.19C9.08284 58.9194 8.9748 58.5071 9.00458 58.1776C9.0574 57.5932 9.87368 57.012 10.7464 56.3285C11.4458 55.7808 12.0397 55.3373 12.7923 54.8968C13.5308 54.4647 14.5053 54.3679 15.6189 53.9723C16.6402 53.6096 18.7072 52.7011 21.181 51.6623C22.1086 51.2728 23.2269 50.8916 25.7503 49.7056C28.3129 48.5011 29.4866 47.9411 30.5705 47.5006C31.3256 47.1937 32.6706 46.7101 34.1497 46.0702C34.9749 45.7132 36.1036 45.2573 37.7579 44.6834C39.0741 44.2268 40.0168 43.8467 41.0989 43.4723C42.3087 43.0537 43.5618 42.3516 44.9191 41.6681C46.2636 40.9911 49.4424 39.8475 51.4766 39.092C54.2171 38.0742 56.6226 37.4622 59.5322 36.716C61.3626 36.2465 63.0556 35.9222 64.2026 35.6792C65.8659 35.3268 66.8496 35.3041 67.6637 35.1944C68.5857 35.0703 70.0336 34.7784 71.3323 34.4687C72.827 34.1122 73.889 33.809 75.0027 33.6095C75.9151 33.4461 77.0153 33.3678 78.2815 33.1915C79.4206 33.0329 80.5061 32.9716 81.8012 32.7075C82.5948 32.5456 83.5746 32.4433 85.1684 32.267C87.1839 32.044 88.9895 31.7829 90.1041 31.497C91.4647 31.1479 92.3612 31.1225 93.4126 31.0341C95.3883 30.8678 97.2888 30.5071 98.7671 30.2641C100.611 29.9609 102.404 29.6697 103.972 29.4056C104.804 29.2653 105.776 29.2286 107.85 28.8997C109.077 28.7051 110.169 28.481 111.253 28.4143C112.107 28.3618 113.176 28.2169 114.022 28.0406C114.739 27.8911 115.584 27.8207 116.368 27.754C117.102 27.6916 118.169 27.5565 120.596 27.402C124.666 27.1429 127.62 27.4231 128.457 27.4891C131.156 27.7019 132.248 27.6437 133.632 27.7533C136.15 27.9526 137.482 27.9078 138.658 28.0175C140.014 28.0835 142.76 28.172 145.837 28.2816C147.211 28.3041 149.713 28.3041 152.11 28.172" stroke="black" stroke-width="4.60173" stroke-linecap="round"/>
<path d="M17.0972 63.1722C18.7198 63.3915 20.8696 64.0043 23.078 64.7988C23.4205 64.922 23.5915 64.9764 25.0535 65.5655C26.5155 66.1545 29.2555 67.2877 30.9946 67.9805C34.179 69.2489 34.9628 69.3349 38.2001 70.7811C41.8696 72.4205 42.5438 73.2523 43.7161 74.0434C44.7775 74.7597 46.6916 75.4526 47.7475 75.8938C49.5255 76.6366 51.6806 77.7825 54.361 79.2584C55.12 79.6764 55.8988 80.1189 57.4258 80.9298C61.5073 83.0974 62.6981 83.4221 63.6918 83.9061C64.7564 84.4248 65.7052 84.8749 66.6402 85.3808C67.8176 86.0177 68.7737 86.547 69.6193 86.9881C70.4873 87.4409 71.3007 88.087 72.0858 88.6827C73.4339 89.7053 75.1525 90.6413 76.0857 91.2357C77.5722 92.1824 78.3437 92.7546 79.3644 93.4149C80.5151 94.1594 81.3508 94.7806 83.7812 96.0538C85.2079 96.8012 86.8776 97.681 88.568 98.6313C90.5434 99.7418 91.9352 100.37 93.353 101.12C94.4024 101.674 96.0289 102.483 96.8745 102.926C97.622 103.317 98.4981 103.717 99.3708 104.136C100.334 104.599 101.444 105.476 102.26 105.985C102.909 106.39 103.671 106.799 104.695 107.305C105.941 107.922 107.039 108.427 108.484 109.11C109.582 109.63 110.591 110.146 111.764 110.651C112.842 111.116 114.44 111.686 115.524 112.17C117.223 112.928 119.194 113.755 120.217 114.284C121.474 114.933 123.815 115.82 125.213 116.507C126.048 116.917 126.955 117.498 127.769 117.894C128.784 118.388 129.425 118.906 130.595 119.588C131.763 120.268 132.966 121.41 134.177 122.098C134.934 122.529 135.8 123.132 136.884 123.858C137.6 124.339 138.507 124.717 139.292 125.114C140.022 125.485 140.915 125.686 141.668 125.908C142.509 126.155 143.262 126.347 143.984 126.568C144.687 126.783 145.428 127.007 146.299 127.206C147.776 127.185 148.317 127.053 148.677 126.987C148.859 126.965 149.038 126.965 149.222 126.833" stroke="black" stroke-width="4.60173" stroke-linecap="round"/>
<path d="M29.01 66.4742C32.9774 64.715 34.0603 64.2738 34.9628 63.8565C35.4288 63.641 37.5349 62.7404 40.4816 61.4421C42.379 60.6061 43.2657 60.3116 43.9886 60.1135C44.7586 59.9024 46.3847 59.2153 47.7484 58.7927C48.5304 58.5503 49.3413 58.2433 50.6048 57.8688C51.8444 57.5015 52.9512 57.0097 54.4846 56.3949C55.5021 55.9869 56.6226 55.6889 57.4348 55.3812C58.9459 54.8087 60.5935 54.5874 61.4662 54.3464C62.3918 54.0907 63.4815 53.8399 66.4507 52.8526C68.6805 52.1112 70.3982 51.7267 71.2438 51.4625C71.9823 51.2318 72.9865 51.0663 74.1895 50.7585C75.7899 50.3492 77.4953 50.0546 79.2128 49.7019C80.1494 49.5096 80.8093 49.3044 82.0114 49.0633C83.6502 48.7348 86.0401 48.0734 87.0969 47.7426C88.0583 47.4416 89.5309 47.2361 90.6762 46.9501C91.4451 46.7582 92.538 46.6206 94.1039 46.2898C95.4723 46.0006 96.8122 45.6961 97.7463 45.4531C98.5967 45.2318 99.5197 45.078 100.364 44.9248C101.537 44.7118 102.588 44.4625 103.521 44.374C105.201 44.2147 106.617 43.847 107.703 43.7354C108.866 43.616 110.169 43.361 111.282 43.2078C113.197 42.944 114.739 42.6134 116.545 42.3275C117.456 42.1833 118.172 42.0851 119.254 41.887C120.538 41.6519 121.959 41.3376 123.375 41.226C124.789 41.1145 126.233 41.0285 127.287 40.874C128.619 40.6784 131.031 40.7195 133.032 40.6098C134.418 40.5339 135.497 40.4553 136.553 40.3457C137.363 40.2617 139.041 40.1912 141.326 40.0815C145.073 39.9017 148.133 40.0155 149.779 39.9495C154.447 39.7622 155.651 40.0591 156.709 40.1687C157.875 40.2896 158.604 40.3232 159.955 40.4329C161.725 40.5765 162.575 40.5874 163.507 40.7188C164.732 40.8914 165.824 40.9387 166.726 41.0054C167.755 41.0815 168.712 41.2029 170.184 41.2696C172.787 41.3875 177.61 41.5542 178.79 41.6658C179.61 41.7434 180.801 41.8632 182.307 42.0396C183.983 42.2359 185.195 42.2595 186.19 42.414C186.991 42.5382 187.964 42.5685 188.957 42.6999C190.242 42.8699 191.812 42.9198 192.749 42.9865C193.865 43.0661 195.064 43.184 195.817 43.3385C196.897 43.5603 198.252 43.6251 199.036 43.7348C199.752 43.8348 200.598 43.9765 201.533 44.1528C202.299 44.2974 203.125 44.5919 204.06 44.8131C204.812 44.9914 205.652 45.2523 206.437 45.3857C207.224 45.5196 207.88 45.8255 208.752 46.0018C209.588 46.1707 210.407 46.4859 211.13 46.7718C211.877 47.0675 212.991 47.2783 213.837 47.4547C214.57 47.6075 215.28 47.8066 216.183 48.0926C217.066 48.3726 217.807 48.5119 218.68 48.6651C219.506 48.8101 220.154 49.1274 220.877 49.3037C221.599 49.48 222.32 49.6557 223.042 49.832C223.765 50.0083 224.486 50.184 225.208 50.47C225.937 50.7582 226.832 50.8444 228.034 51.1303C228.974 51.354 229.72 51.3727 230.473 51.549C231.391 51.764 232.366 51.901 233.15 51.9895C234.002 52.0856 235.131 52.5165 236.218 52.8473C237.333 53.1868 238.684 53.5731 239.647 53.9257C240.54 54.2523 241.272 54.4976 241.995 54.8502C242.355 55.0259 242.658 55.2465 242.987 55.5535C243.198 55.7299 243.496 55.9478 243.802 56.1723" stroke="black" stroke-width="4.60173" stroke-linecap="round"/>
<path d="M247.052 57.7574C250.539 58.7691 251.38 59.0333 252.462 59.2096C253.73 59.4163 254.928 59.6937 256.011 60.0886C258.207 60.8902 258.961 61.0144 259.833 61.2786C260.593 61.5085 261.488 61.5427 262.211 61.7408C262.981 61.9519 263.773 62.2031 264.557 62.3794C264.917 62.4673 265.28 62.5558 265.64 62.6436C265.821 62.6878 266 62.7314 266.004 62.6442" stroke="black" stroke-width="4.60173" stroke-linecap="round"/>
<path d="M76.8429 61.9803C77.4521 60.8293 78.6488 59.6049 83.5204 57.7572C83.7045 57.5776 83.8832 57.9315 84.0646 57.8219C84.4247 57.6687 84.7875 57.5802 85.1476 57.4924C85.9318 57.361 86.7891 56.9331 92.0155 57.2513C93.816 57.361 94.8798 57.4896 95.6165 57.6033C96.3393 57.7149 97.0595 57.9778 97.7824 58.1541C98.5053 58.3304 99.2691 58.4361 99.9484 58.7048C100.671 58.9908 101.525 59.0464 102.114 59.4979C102.776 60.0051 103.491 60.4902 103.557 61.0611C103.736 62.6229 103.729 65.218 103.131 65.7062C102.35 66.3448 101.672 67.1502 100.785 67.7976C99.9421 68.4131 99.1101 69.1754 97.9566 69.6235C96.9928 69.998 95.9326 70.3655 94.9775 70.4147C93.6824 70.4814 92.3928 70.7895 90.826 70.9212C89.7728 71.0097 88.7905 71.4684 85.9201 71.2065C84.7189 71.0968 82.9201 71.1109 81.5611 70.5672C80.5674 70.1697 79.651 69.7749 79.0359 69.1355C78.4628 68.5398 78.1064 67.9255 77.9241 67.3743C77.6831 66.6459 77.3378 65.764 77.0216 65.0412C76.7806 64.4904 76.2536 63.0938 76.8429 61.9803Z" fill="black" stroke="black" stroke-width="2.93518" stroke-linecap="round"/>
<path d="M106.989 85.3815C108.37 84.92 110.037 84.4853 113.953 84.4373C113.858 84.3949 113.75 84.3364 113.847 84.3711C114.207 84.4365 114.569 84.3915 115.083 84.3262C116.555 84.3493 119.16 84.256 120.705 84.6795C121.428 84.8776 122.183 85.1062 122.871 85.4944C123.656 85.9368 124.604 86.5587 125.309 87.1249C126.24 87.8731 127.142 88.3443 127.141 89.2209C127.139 91.2199 127.059 91.9287 126.839 92.6053C126.659 93.1561 126.509 93.8047 126.025 94.4339C125.212 95.4912 124.451 96.2652 123.315 96.8767C121.717 97.7365 119.947 98.5028 118.502 98.834C116.963 99.1867 115.022 99.8995 111.127 99.6027C109.689 99.4931 108.647 99.4627 107.522 99.0513C106.44 98.6557 105.726 98.3865 104.846 97.8184C104.093 97.3323 102.995 96.6952 102.32 95.8366C101.87 95.264 100.676 94.3509 100.697 93.3681C100.729 91.9172 100.97 91.3034 101.573 90.3759C102.173 89.4527 102.124 88.5821 104.101 87.1843C105.003 86.547 105.743 85.798 106.989 85.3815Z" fill="black" stroke="black" stroke-width="2.93518" stroke-linecap="round"/>
<path d="M170.976 57.2044C172.21 56.5209 173.291 55.9952 178.643 54.1911C178.827 54.0141 179.186 54.1026 179.429 54.0808C179.969 54.059 180.451 54.0141 181.302 53.9487C184.422 53.9718 185.253 54.1291 186.23 54.1693C187.852 54.236 188.572 54.4117 189.295 54.588C190.018 54.7643 190.711 54.9894 191.612 55.2266C192.364 55.4247 193.065 55.7276 193.807 55.9087C194.53 56.0851 195.259 56.3398 195.973 56.7018C196.757 57.0994 197.778 57.4058 198.47 58.0457C199.162 58.6843 199.682 59.2913 199.942 60.0051C200.183 60.6654 200.281 61.6327 200.152 62.3818C200.061 62.9107 199.646 63.5011 199.067 64.209L199.033 64.2511C198.594 64.7876 198.157 65.3217 197.563 65.9485C196.808 66.7436 196.01 67.7231 194.971 68.483C193.018 69.9107 192.133 70.5269 190.731 71.0994C189.224 71.7149 187.805 72.0891 186.79 72.1316C185.195 72.1983 182.469 72.5504 180.593 72.1303C179.116 71.7994 177.651 71.7926 175.868 71.0948C174.058 70.3862 172.537 69.5527 171.992 68.8713C171.481 68.2307 170.786 67.5615 170.187 66.5369C169.737 65.7662 169.339 65.0763 169.287 64.2011C169.195 62.6836 168.318 61.6008 168.746 59.91C168.957 59.0752 169.756 57.8806 170.976 57.2044Z" fill="black" stroke="black" stroke-width="2.93518" stroke-linecap="round"/>
<path d="M48.5037 49.0404C49.5163 48.9096 50.5288 48.7789 51.1994 48.6897C51.8699 48.6006 52.1678 48.557 52.4999 48.5345C52.832 48.5121 53.1894 48.5121 53.5576 48.38" stroke="black" stroke-width="1.89985" stroke-linecap="round"/>
<path d="M191.097 35.1724C192.765 35.9569 194.16 36.4918 195.33 36.7989C196.678 37.1931 197.593 37.4612 197.983 37.5491C198.194 37.5933 198.432 37.6369 199.039 37.946" stroke="black" stroke-width="1.89985" stroke-linecap="round"/>
<path d="M137.128 33.0588C135.758 33.4075 134.388 33.7562 133.593 33.9794C132.798 34.2026 132.619 34.2898 132.435 34.3796" stroke="black" stroke-width="1.89985" stroke-linecap="round"/>
<path d="M248.676 50.4933C250.165 50.4061 251.654 50.3189 252.54 50.2958C253.427 50.2727 253.665 50.3163 254.026 50.4041C254.387 50.4919 254.863 50.6227 255.715 50.7574" stroke="black" stroke-width="1.89985" stroke-linecap="round"/>
<path d="M138.568 63.884C140.449 63.6276 145.394 64.6741 143.924 67.3918C142.026 70.9043 133.547 67.2456 138.568 63.884Z" fill="black"/>
<path d="M145.688 103.093C146.856 102.934 149.929 103.584 149.015 105.272C147.836 107.455 142.569 105.182 145.688 103.093Z" fill="black"/>
<path d="M181.42 85.4618C183.173 85.2227 187.784 86.1985 186.413 88.7324C184.644 92.0073 176.738 88.5961 181.42 85.4618Z" fill="black"/>
<path d="M9.625 59.25C10.4575 62.7475 10.7075 63.8275 11.2687 66.0544C11.41 66.6148 11.7463 68.07 12.3294 70.1938C12.8906 72.2376 13.375 73.9975 13.5825 74.7056C13.7619 75.3179 13.875 75.9975 14.1031 76.7881C14.4799 78.0939 14.7075 79.3725 14.7913 79.9769C15.0413 80.4988 15.2075 80.9975 15.3538 81.5187C15.375 81.665 15.375 81.83 15.375 82" stroke="black" stroke-width="3.5" stroke-linecap="round"/>
<path d="M15.25 82.625C17.6425 84.3987 20.035 86.1725 21.6181 87.3131C23.8783 88.9416 25.0375 89.705 25.91 90.3494C26.3582 90.6804 26.865 90.9525 28.6875 92.1325C30.51 93.3125 33.645 95.375 36.0231 96.8294C38.4012 98.2838 39.9275 99.0675 41.3325 99.8425C42.7375 100.618 43.975 101.36 53.2131 105.888C62.4512 110.416 79.6525 118.708 88.6375 123.02C97.6225 127.333 97.87 127.415 98.2244 127.581C99.7619 128.303 100.745 128.748 102.492 129.455C103.081 129.694 103.777 130.035 105.046 130.597C106.315 131.159 108.13 131.943 109.168 132.408C110.206 132.874 110.412 132.998 111.467 133.474C114.408 134.801 116.581 135.749 116.997 135.978C117.396 136.197 117.996 136.456 120.993 137.986C123.611 139.322 128.485 141.742 131.054 143.037C134.04 144.542 135.2 144.955 136.06 145.374C136.851 145.759 137.62 146.04 138.663 146.561C139.373 146.915 140.122 147.333 142.076 148.433C142.885 148.889 143.745 149.165 145.161 149.727C146.145 150.117 146.622 150.415 147.123 150.645C147.249 150.707 147.372 150.79 147.498 150.853C147.624 150.916 147.748 150.957 148 151.125" stroke="black" stroke-width="3.5" stroke-linecap="round"/>
<path d="M147.375 127.75C147.916 130.665 148.247 133.145 148.499 134.851C148.704 136.237 148.707 137.33 148.854 138.433C148.917 138.909 148.916 139.455 148.999 141.626C149.07 143.465 149.082 146.808 149.083 148.591C149.042 150.498 149 151.409 148.938 152.431C148.876 152.67 148.752 152.34 148.625 152" stroke="black" stroke-width="3" stroke-linecap="round"/>
<path d="M150.625 150.875C151.452 150.337 153.532 149.005 155.327 147.879C155.665 147.667 155.83 147.585 156.08 147.419C156.33 147.252 156.66 147.005 162.358 143.598C168.055 140.191 179.11 133.633 188.889 127.469C198.667 121.306 206.835 115.738 214.899 110.559C222.964 105.38 230.677 100.76 237.25 97.0806C243.823 93.4012 249.02 90.8025 251.821 89.4225C254.855 87.9282 255.331 87.7513 255.85 87.4813C257.134 86.813 258.325 86.295 260.7 85.1706C261.768 84.6648 262.705 84.2925 264.202 83.6069C264.538 83.4534 264.705 83.4175 266.11 82.7156C267.515 82.0138 270.155 80.6525 271.598 79.9306C273.523 78.9669 274.535 78.42 275.269 78.0219C276.419 77.398 278.205 76.3775 278.748 76.0012C279.236 75.6636 279.458 75.045 279.645 74.44C279.946 73.4699 280.083 72.6275 280.146 72.1063C280.163 71.9596 280.207 71.795 280.229 70.5756C280.25 69.3563 280.25 67.0875 280.229 65.8569C280.207 64.5013 280.125 62.8487 280.104 60.4744C280.094 59.2427 279.793 58.4225 279.646 57.7313C279.625 57.42 279.501 56.8375 279.231 56.1094C279.085 55.7937 278.92 55.5875 278.75 55.375" stroke="black" stroke-width="3.5" stroke-linecap="round"/>
<path d="M38 87.25C40.31 87.25 42.62 87.25 44.0163 87.2913C45.4125 87.3325 45.825 87.415 46.1613 87.4988C46.4975 87.5825 46.745 87.665 47.25 87.75" stroke="black" stroke-width="2" stroke-linecap="round"/>
<path d="M82 108.75L88.75 112.25" stroke="black" stroke-width="2" stroke-linecap="round"/>
<path d="M134 134.5L136.25 137" stroke="black" stroke-width="2" stroke-linecap="round"/>
<path d="M202 97.25C201.34 99.3125 200.68 101.375 200.257 102.561C199.835 103.748 199.67 103.995 199.5 104.25" stroke="black" stroke-width="2" stroke-linecap="round"/>
</g>
<path d="M142 104L143 124.5C143.833 124.833 145.6 125.5 146 125.5C146.5 125.5 159.5 116.5 160 116C160.4 115.6 178.167 104.833 187 99.5C195 94.5 211.1 84.6 211.5 85C211.9 85.4 231.333 73.1667 241 67L263 56L273 52.5C273.5 49.8333 274.5 44.4 274.5 44C274.5 43.6 274.167 34.8333 274 30.5L269.5 35C265.333 37 256.9 41.1 256.5 41.5C256.1 41.9 223.333 57 207 64.5L177 81.5L153 96L142 104Z" fill="#5F39DC"/>
<path d="M7 51.5L10 59L17 63L32 73L60 87.5L103.5 107C113.167 112.167 132.5 122.6 132.5 123C132.5 123.4 139.5 126.167 143 127.5V114V104L135 98L107.5 86L81 72C73.5 67.6667 58.4 58.9 58 58.5C57.6 58.1 39.5 49.3333 30.5 45L11.5 37L3.5 35L7 51.5Z" fill="#704CE7"/>
<path d="M122.84 94.4392C123.617 94.698 134.488 101.687 135.782 101.945H143.806C146.308 99.8747 151.726 95.6816 153.383 95.4745C155.453 95.2157 180.302 79.1679 182.631 78.6503C184.961 78.1326 220.68 57.167 222.233 56.6493C223.786 56.1317 251.222 43.7076 253.293 42.9311C255.364 42.1546 266.235 34.6484 268.564 34.3896C270.894 34.1307 271.152 29.9894 271.929 28.6952C272.705 27.401 268.823 24.8127 268.564 24.0362C268.357 23.415 253.293 16.8751 245.787 13.6828L216.797 7.98846C205.667 6.26289 183.252 2.81177 182.631 2.81177H147.947H119.993L101.616 4.10594L68.4851 7.21195C57.7866 10.4905 36.2343 17.1512 35.6131 17.5653C34.8366 18.083 9.47079 28.1775 8.43545 28.4364C7.60718 28.6435 5.67455 31.6287 4.81177 33.0954L9.47079 37.2368C15.0789 39.0486 26.4503 42.724 27.0715 42.9311C27.6927 43.1382 47.5195 52.6805 57.3552 57.4258C61.9279 60.5319 71.2805 66.7957 72.1087 67.0027C73.1441 67.2616 90.2271 77.6149 91.7802 77.6149C93.3332 77.6149 122.064 94.1804 122.84 94.4392Z" fill="#D1C6F5" stroke="#F69F1C" stroke-width="0.517669"/>
<path d="M3.51733 33.6131L11.8 28.9541C16.4591 26.0207 25.9842 20.1538 26.8124 20.1538C27.8478 20.1538 43.8955 14.4594 44.9309 14.9771C45.9662 15.4947 68.4848 9.54154 69.2613 9.54154C69.8825 9.54154 96.784 5.05507 110.157 2.81184L125.428 1C132.417 1.60395 146.705 2.81184 147.947 2.81184H167.36C168.395 2.81184 196.09 6.17669 196.867 6.43552C197.643 6.69436 233.104 10.8357 233.88 10.8357C234.501 10.8357 242.594 13.5966 246.563 14.9771L261.058 20.9303C263.646 21.8793 269.03 23.8292 269.858 24.0363C270.686 24.2433 272.101 27.5737 272.705 29.213C271.325 30.8522 268.305 34.4414 267.27 35.6838C266.234 36.9262 262.007 37.7545 260.022 38.0133L247.857 34.6485L234.657 29.7306L204.891 20.1538C194.451 18.9459 173.365 16.5818 172.536 16.7889C171.708 16.996 146.48 15.6673 133.97 14.9771C120.942 16.5301 94.7306 19.7396 94.1094 20.1538C93.4882 20.5679 71.5908 25.1579 60.7198 27.4011C51.7468 30.5071 33.5939 36.7192 32.7656 36.7192C31.7303 36.7192 22.4123 40.8605 21.6358 40.8605C21.0145 40.8605 11.8863 38.0996 7.39985 36.7192L3.51733 33.6131Z" fill="#AA90FF"/>
<path d="M145.027 101.569C147.23 100.13 149.434 98.692 151.582 97.1229C153.73 95.5539 155.755 93.8976 156.977 92.9573C158.489 91.7936 160.057 91.0091 162.188 89.7135C165.215 87.8739 166.257 86.9584 167.884 86.1402C169.166 85.4956 170.293 85.104 171.016 84.7963C171.838 84.4462 172.877 83.6988 173.932 83.08C174.995 82.4568 176.365 81.7176 177.842 81.077C179.287 80.4506 180.401 79.6467 183.04 78.1753C184.763 77.2152 185.512 76.6089 188.844 74.8523C190.555 73.9506 191.53 73.5263 192.523 72.9551C194.369 71.8926 195.501 71.3259 196.435 70.9066C197.345 70.4979 198.447 69.8731 199.504 69.2563C200.258 68.8159 200.977 68.3753 201.939 67.9791C203.352 67.3974 205.002 66.4866 207.05 65.4056C208.641 64.566 209.818 63.9297 210.905 63.4225C211.807 63.0014 212.648 62.4768 214.481 61.5094C215.61 60.9137 216.977 60.1444 218.634 59.3077C220.172 58.5311 221.789 57.5927 223.118 56.8412C223.864 56.4194 224.442 55.9602 225.134 55.4544C226.24 54.6466 227.269 54.2881 228.203 53.8688C229.081 53.4746 229.857 52.9674 230.789 52.548C231.907 52.0453 232.745 51.6889 233.587 51.3376C235.04 50.7313 236.232 50.1938 237.228 49.7084C237.923 49.3692 238.701 49.0923 239.424 48.8493C240.469 48.4982 241.589 47.7715 242.312 47.4189C243.077 47.0459 244.055 46.6277 244.839 46.2302C245.553 45.8682 246.282 45.5262 247.455 45.064C248.331 44.7183 248.99 44.2927 249.713 44.0067C250.412 43.73 251.156 43.413 251.879 43.0604C252.575 42.7206 253.322 42.4885 254.045 42.2237C254.853 41.9276 255.488 41.564 256.211 41.2113C256.923 40.8638 257.473 40.4625 258.196 40.1547C258.919 39.8457 259.46 39.67 259.761 39.4508C259.883 39.3187 259.942 39.1443 260.004 38.8326" stroke="black" stroke-width="4.60173" stroke-linecap="round"/>
<path d="M263.794 36.8516C265.115 36.1925 265.957 35.7527 266.679 35.4879C267.596 35.1523 268.303 34.4768 269.026 34.0357C269.85 33.533 270.289 32.8919 270.802 32.363C271.263 31.8886 271.613 31.2199 271.916 30.6242C272.231 30.0026 272.278 28.8478 272.098 28.0045C271.981 27.4536 271.736 26.5127 271.347 25.781C270.961 25.0541 269.574 24.5712 268.851 24.2832C268.102 23.9851 267.408 23.6017 266.685 23.2709C266.011 22.9623 265.242 22.6772 264.519 22.3028C263.735 21.8966 262.957 21.4885 262.172 21.0263C261.508 20.6347 260.61 20.4319 259.796 20.0793C258.617 19.5686 257.119 19.1112 256.397 18.7803C255.722 18.4718 254.953 18.2738 254.231 17.9879C253.531 17.7112 252.668 17.307 251.884 17.0191C251.077 16.7227 250.141 16.2504 249.207 15.7432C248.475 15.3458 247.734 15.0168 246.711 14.5545C245.94 14.2062 245.207 13.9602 244.245 13.6076C242.934 13.1271 241.181 12.9036 239.733 12.5728C238.038 12.1856 236.543 12.1534 235.73 12.022C234.559 11.8325 233.716 11.7572 232.722 11.6258C231.669 11.4864 230.828 11.4059 230.014 11.3392C229.006 11.2565 227.821 11.0096 226.197 10.7455C225.129 10.5719 223.673 10.3942 222.105 10.1729C220.54 9.95225 219.096 9.68888 217.773 9.62218C216.247 9.54527 215.063 9.24775 213.741 9.0285C212.841 8.87923 211.876 8.63227 211.092 8.45595C210.363 8.29219 209.648 8.10397 208.926 7.90586C208.156 7.69485 207.483 7.44359 206.61 7.28907C205.872 7.15845 205.017 7.04737 204.233 6.87105C203.45 6.6951 202.609 6.51906 201.587 6.34274C200.69 6.18809 199.602 6.12284 198.069 6.05614C196.946 6.0073 195.631 5.85869 194.578 5.70416C193.245 5.50859 192.263 5.54963 191.267 5.44001C190.458 5.35091 189.494 5.28548 188.56 5.15406C187.783 5.04475 186.967 4.71491 185.883 4.49368C185.093 4.33238 184.379 4.1417 183.476 3.85576C182.571 3.56881 181.433 3.6134 180.408 3.43708C179.396 3.26306 178.065 3.21717 176.205 3.06264C170.694 2.60479 168.986 2.90811 167.355 2.79849C164.414 2.60079 163.084 2.64396 161.819 2.53434C159.246 2.31124 157.791 2.64396 156.345 2.75359C153.466 2.9717 152.254 2.90811 151.197 3.01774C150.806 3.04019 150.443 3.08377 149.607 3.14981C148.949 3.17227 147.817 3.17227 146.651 3.17227" stroke="black" stroke-width="4.60173" stroke-linecap="round"/>
<path d="M10.9167 37.9079C5.14258 35.1356 4.42239 34.6958 3.54968 34.19C3.08284 33.9194 2.9748 33.5071 3.00458 33.1776C3.0574 32.5932 3.87368 32.012 4.74638 31.3285C5.44578 30.7808 6.03965 30.3373 6.79233 29.8968C7.5308 29.4647 8.50525 29.3679 9.61892 28.9723C10.6402 28.6096 12.7072 27.7011 15.181 26.6623C16.1086 26.2728 17.2269 25.8916 19.7503 24.7056C22.3129 23.5011 23.4866 22.9411 24.5705 22.5006C25.3256 22.1937 26.6706 21.7101 28.1497 21.0702C28.9749 20.7132 30.1036 20.2573 31.7579 19.6834C33.0741 19.2268 34.0168 18.8467 35.0989 18.4723C36.3087 18.0537 37.5618 17.3516 38.9191 16.6681C40.2636 15.9911 43.4424 14.8475 45.4766 14.092C48.2171 13.0742 50.6226 12.4622 53.5322 11.716C55.3626 11.2465 57.0556 10.9222 58.2026 10.6792C59.8659 10.3268 60.8496 10.3041 61.6637 10.1944C62.5857 10.0703 64.0336 9.7784 65.3323 9.46869C66.827 9.11222 67.889 8.80897 69.0027 8.60953C69.9151 8.44614 71.0153 8.36784 72.2815 8.19151C73.4206 8.03289 74.5061 7.97161 75.8012 7.70746C76.5948 7.54559 77.5746 7.44331 79.1684 7.26699C81.1839 7.04401 82.9895 6.78293 84.1041 6.49698C85.4647 6.14792 86.3612 6.12255 87.4126 6.03406C89.3883 5.86777 91.2888 5.50708 92.7671 5.26406C94.6114 4.96086 96.4041 4.66972 97.9717 4.40557C98.8042 4.26529 99.7758 4.22858 101.85 3.89972C103.077 3.70505 104.169 3.48104 105.253 3.41434C106.107 3.36178 107.176 3.21688 108.022 3.04056C108.739 2.89111 109.584 2.82066 110.368 2.75396C111.102 2.69158 112.169 2.55651 114.596 2.40198C118.666 2.14295 121.62 2.42311 122.457 2.48915C125.156 2.70195 126.248 2.64368 127.632 2.7533C130.15 2.95264 131.482 2.90783 132.658 3.01745C134.014 3.08349 136.76 3.17198 139.837 3.2816C141.211 3.30405 143.713 3.30405 146.11 3.17198" stroke="black" stroke-width="4.60173" stroke-linecap="round"/>
<path d="M11.0972 38.1722C12.7198 38.3915 14.8696 39.0043 17.078 39.7988C17.4205 39.922 17.5915 39.9764 19.0535 40.5655C20.5155 41.1545 23.2555 42.2877 24.9946 42.9805C28.179 44.2489 28.9628 44.3349 32.2001 45.7811C35.8696 47.4205 36.5438 48.2523 37.7161 49.0434C38.7775 49.7597 40.6916 50.4526 41.7475 50.8938C43.5255 51.6366 45.6806 52.7825 48.361 54.2584C49.12 54.6764 49.8988 55.1189 51.4258 55.9298C55.5073 58.0974 56.6981 58.4221 57.6918 58.9061C58.7564 59.4248 59.7052 59.8749 60.6402 60.3808C61.8176 61.0177 62.7737 61.547 63.6193 61.9881C64.4873 62.4409 65.3007 63.087 66.0858 63.6827C67.4339 64.7053 69.1525 65.6413 70.0857 66.2357C71.5722 67.1824 72.3437 67.7546 73.3644 68.4149C74.5151 69.1594 75.3508 69.7806 77.7812 71.0538C79.2079 71.8012 80.8776 72.681 82.568 73.6313C84.5434 74.7418 85.9352 75.37 87.353 76.1196C88.4024 76.6743 90.0289 77.4833 90.8745 77.9257C91.622 78.3168 92.4981 78.7168 93.3708 79.1362C94.3336 79.5988 95.4438 80.4761 96.2597 80.9852C96.9087 81.3903 97.6712 81.7995 98.6946 82.3053C99.9413 82.9216 101.039 83.4267 102.484 84.1102C103.582 84.6297 104.591 85.1463 105.764 85.6515C106.842 86.1159 108.44 86.6863 109.524 87.1703C111.223 87.9282 113.194 88.7546 114.217 89.2836C115.474 89.9331 117.815 90.8203 119.213 91.5071C120.048 91.9172 120.955 92.4976 121.769 92.8938C122.784 93.3876 123.425 93.9055 124.595 94.5877C125.763 95.2685 126.966 96.4097 128.177 97.0985C128.934 97.5287 129.8 98.132 130.884 98.8584C131.6 99.3387 132.507 99.7169 133.292 100.114C134.022 100.485 134.915 100.686 135.668 100.908C136.509 101.155 137.262 101.347 137.984 101.568C138.687 101.783 139.428 102.007 140.299 102.206C141.776 102.185 142.317 102.053 142.677 101.987C142.859 101.965 143.038 101.965 143.222 101.833" stroke="black" stroke-width="4.60173" stroke-linecap="round"/>
<path d="M23.01 41.4742C26.9774 39.715 28.0603 39.2738 28.9628 38.8565C29.4288 38.641 31.5349 37.7404 34.4816 36.4421C36.379 35.6061 37.2657 35.3116 37.9886 35.1135C38.7586 34.9024 40.3847 34.2153 41.7484 33.7927C42.5304 33.5503 43.3413 33.2433 44.6048 32.8688C45.8444 32.5015 46.9512 32.0097 48.4846 31.3949C49.5021 30.9869 50.6226 30.6889 51.4348 30.3812C52.9459 29.8087 54.5935 29.5874 55.4662 29.3464C56.3918 29.0907 57.4815 28.8399 60.4507 27.8526C62.6805 27.1112 64.3982 26.7267 65.2438 26.4625C65.9823 26.2318 66.9865 26.0663 68.1895 25.7585C69.7899 25.3492 71.4953 25.0546 73.2128 24.7019C74.1494 24.5096 74.8093 24.3044 76.0114 24.0633C77.6502 23.7348 80.0401 23.0734 81.0969 22.7426C82.0583 22.4416 83.5309 22.2361 84.6762 21.9501C85.4451 21.7582 86.538 21.6206 88.1039 21.2898C89.4723 21.0006 90.8122 20.6961 91.7463 20.4531C92.5967 20.2318 93.5197 20.078 94.3635 19.9248C95.5366 19.7118 96.5881 19.4625 97.5213 19.374C99.2013 19.2147 100.617 18.847 101.703 18.7354C102.866 18.616 104.169 18.361 105.282 18.2078C107.197 17.944 108.739 17.6134 110.545 17.3275C111.456 17.1833 112.172 17.0851 113.254 16.887C114.538 16.6519 115.959 16.3376 117.375 16.226C118.789 16.1145 120.233 16.0285 121.287 15.874C122.619 15.6784 125.031 15.7195 127.032 15.6098C128.418 15.5339 129.497 15.4553 130.553 15.3457C131.363 15.2617 133.041 15.1912 135.326 15.0815C139.073 14.9017 142.133 15.0155 143.779 14.9495C148.447 14.7622 149.651 15.0591 150.709 15.1687C151.875 15.2896 152.604 15.3232 153.955 15.4329C155.725 15.5765 156.575 15.5874 157.507 15.7188C158.732 15.8914 159.824 15.9387 160.726 16.0054C161.755 16.0815 162.712 16.2029 164.184 16.2696C166.787 16.3875 171.61 16.5542 172.79 16.6658C173.61 16.7434 174.801 16.8632 176.307 17.0396C177.983 17.2359 179.195 17.2595 180.19 17.414C180.991 17.5382 181.964 17.5685 182.957 17.6999C184.242 17.8699 185.812 17.9198 186.749 17.9865C187.865 18.0661 189.064 18.184 189.817 18.3385C190.897 18.5603 192.252 18.6251 193.036 18.7348C193.752 18.8348 194.598 18.9765 195.533 19.1528C196.299 19.2974 197.125 19.5919 198.06 19.8131C198.812 19.9914 199.652 20.2523 200.437 20.3857C201.224 20.5196 201.88 20.8255 202.752 21.0018C203.588 21.1707 204.407 21.4859 205.13 21.7718C205.877 22.0675 206.991 22.2783 207.837 22.4547C208.57 22.6075 209.28 22.8066 210.183 23.0926C211.066 23.3726 211.807 23.5119 212.68 23.6651C213.506 23.8101 214.154 24.1274 214.877 24.3037C215.599 24.48 216.32 24.6557 217.042 24.832C217.765 25.0083 218.486 25.184 219.208 25.47C219.937 25.7582 220.832 25.8444 222.034 26.1303C222.974 26.354 223.72 26.3727 224.473 26.549C225.391 26.764 226.366 26.901 227.15 26.9895C228.002 27.0856 229.131 27.5165 230.218 27.8473C231.333 28.1868 232.684 28.5731 233.647 28.9257C234.54 29.2523 235.272 29.4976 235.995 29.8502C236.355 30.0259 236.658 30.2465 236.987 30.5535C237.198 30.7299 237.496 30.9478 237.802 31.1723" stroke="black" stroke-width="4.60173" stroke-linecap="round"/>
<path d="M241.052 32.7574C244.539 33.7691 245.38 34.0333 246.462 34.2096C247.73 34.4163 248.928 34.6937 250.011 35.0886C252.207 35.8902 252.961 36.0144 253.833 36.2786C254.593 36.5085 255.488 36.5427 256.211 36.7408C256.981 36.9519 257.773 37.2031 258.557 37.3794C258.917 37.4673 259.28 37.5558 259.64 37.6436C259.821 37.6878 260 37.7314 260.004 37.6442" stroke="black" stroke-width="4.60173" stroke-linecap="round"/>
<path d="M70.8429 36.9803C71.4521 35.8293 72.6488 34.6049 77.5204 32.7572C77.7045 32.5776 77.8832 32.9315 78.0646 32.8219C78.4247 32.6687 78.7875 32.5802 79.1476 32.4924C79.9318 32.361 80.7891 31.9331 86.0155 32.2513C87.816 32.361 88.8798 32.4896 89.6165 32.6033C90.3393 32.7149 91.0595 32.9778 91.7824 33.1541C92.5053 33.3304 93.2691 33.4361 93.9484 33.7048C94.6713 33.9908 95.5254 34.0464 96.1144 34.4979C96.7759 35.0051 97.4909 35.4902 97.5566 36.0611C97.7362 37.6229 97.7289 40.218 97.1315 40.7062C96.3499 41.3448 95.6716 42.1502 94.785 42.7976C93.9421 43.4131 93.1101 44.1754 91.9566 44.6235C90.9928 44.998 89.9326 45.3655 88.9775 45.4147C87.6824 45.4814 86.3928 45.7895 84.826 45.9212C83.7728 46.0097 82.7905 46.4684 79.9201 46.2065C78.7189 46.0968 76.9201 46.1109 75.5611 45.5672C74.5674 45.1697 73.651 44.7749 73.0359 44.1355C72.4628 43.5398 72.1064 42.9255 71.9241 42.3743C71.6831 41.6459 71.3378 40.764 71.0216 40.0412C70.7806 39.4904 70.2536 38.0938 70.8429 36.9803Z" fill="#AA90FF" stroke="black" stroke-width="2.93518" stroke-linecap="round"/>
<path d="M100.989 60.3815C102.37 59.92 104.037 59.4853 107.953 59.4373C107.858 59.3949 107.75 59.3364 107.847 59.3711C108.207 59.4365 108.569 59.3915 109.083 59.3262C110.555 59.3493 113.16 59.256 114.705 59.6795C115.428 59.8776 116.183 60.1062 116.871 60.4944C117.656 60.9368 118.604 61.5587 119.309 62.1249C120.24 62.8731 121.142 63.3443 121.141 64.2209C121.139 66.2199 121.059 66.9287 120.839 67.6053C120.659 68.1561 120.509 68.8047 120.025 69.4339C119.212 70.4912 118.451 71.2652 117.315 71.8767C115.717 72.7365 113.947 73.5028 112.502 73.834C110.963 74.1867 109.022 74.8995 105.127 74.6027C103.689 74.4931 102.647 74.4627 101.522 74.0513C100.44 73.6557 99.7258 73.3865 98.846 72.8184C98.0934 72.3323 96.9954 71.6952 96.32 70.8366C95.8696 70.264 94.6759 69.3509 94.6973 68.3681C94.7289 66.9172 94.9698 66.3034 95.5727 65.3759C96.1729 64.4527 96.1239 63.5821 98.1015 62.1843C99.0031 61.547 99.7434 60.798 100.989 60.3815Z" fill="#AA90FF" stroke="black" stroke-width="2.93518" stroke-linecap="round"/>
<path d="M164.976 32.2044C166.21 31.5209 167.291 30.9952 172.643 29.1911C172.827 29.0141 173.186 29.1026 173.429 29.0808C173.969 29.059 174.451 29.0141 175.302 28.9487C178.422 28.9718 179.253 29.1291 180.23 29.1693C181.852 29.236 182.572 29.4117 183.295 29.588C184.018 29.7643 184.711 29.9894 185.612 30.2266C186.364 30.4247 187.065 30.7276 187.807 30.9087C188.53 31.0851 189.259 31.3398 189.973 31.7018C190.757 32.0994 191.778 32.4058 192.47 33.0457C193.162 33.6843 193.682 34.2913 193.942 35.0051C194.183 35.6654 194.281 36.6327 194.152 37.3818C194.061 37.9107 193.646 38.5011 193.067 39.209L193.033 39.2511C192.594 39.7876 192.157 40.3217 191.563 40.9485C190.808 41.7436 190.01 42.7231 188.971 43.483C187.018 44.9107 186.133 45.5269 184.731 46.0994C183.224 46.7149 181.805 47.0891 180.79 47.1316C179.195 47.1983 176.469 47.5504 174.593 47.1303C173.116 46.7994 171.651 46.7926 169.868 46.0948C168.058 45.3862 166.537 44.5527 165.992 43.8713C165.481 43.2307 164.786 42.5615 164.187 41.5369C163.737 40.7662 163.339 40.0763 163.287 39.2011C163.195 37.6836 162.318 36.6008 162.746 34.91C162.957 34.0752 163.756 32.8806 164.976 32.2044Z" fill="#AA90FF" stroke="black" stroke-width="2.93518" stroke-linecap="round"/>
<path d="M42.5037 24.0404C43.5163 23.9096 44.5288 23.7789 45.1994 23.6897C45.8699 23.6006 46.1678 23.557 46.4999 23.5345C46.832 23.5121 47.1894 23.5121 47.5576 23.38" stroke="black" stroke-width="1.89985" stroke-linecap="round"/>
<path d="M185.097 10.1724C186.765 10.9569 188.16 11.4918 189.33 11.7989C190.678 12.1931 191.593 12.4612 191.983 12.5491C192.194 12.5933 192.432 12.6369 193.039 12.946" stroke="black" stroke-width="1.89985" stroke-linecap="round"/>
<path d="M131.128 8.05884C129.758 8.40752 128.388 8.7562 127.593 8.97941C126.798 9.20261 126.619 9.28978 126.435 9.37959" stroke="black" stroke-width="1.89985" stroke-linecap="round"/>
<path d="M242.676 25.4933C244.165 25.4061 245.654 25.3189 246.54 25.2958C247.427 25.2727 247.665 25.3163 248.026 25.4041C248.387 25.4919 248.863 25.6227 249.715 25.7574" stroke="black" stroke-width="1.89985" stroke-linecap="round"/>
<path d="M132.568 38.884C134.449 38.6276 139.394 39.6741 137.924 42.3918C136.026 45.9043 127.547 42.2456 132.568 38.884Z" fill="black"/>
<path d="M139.688 78.0931C140.856 77.9338 143.929 78.584 143.015 80.2724C141.836 82.4547 136.569 80.1816 139.688 78.0931Z" fill="black"/>
<path d="M175.42 60.4618C177.173 60.2227 181.784 61.1985 180.413 63.7324C178.644 67.0073 170.738 63.5961 175.42 60.4618Z" fill="black"/>
<path d="M3.625 34.25C4.4575 37.7475 4.7075 38.8275 5.26875 41.0544C5.41 41.6148 5.74625 43.07 6.32938 45.1938C6.89057 47.2376 7.375 48.9975 7.5825 49.7056C7.7619 50.3179 7.875 50.9975 8.10313 51.7881C8.4799 53.0939 8.7075 54.3725 8.79125 54.9769C9.04125 55.4988 9.2075 55.9975 9.35375 56.5187C9.375 56.665 9.375 56.83 9.375 57" stroke="black" stroke-width="3.5" stroke-linecap="round"/>
<path d="M9.25 57.625C11.6425 59.3987 14.035 61.1725 15.6181 62.3131C17.8783 63.9416 19.0375 64.705 19.91 65.3494C20.3582 65.6804 20.865 65.9525 22.6875 67.1325C24.51 68.3125 27.645 70.375 30.0231 71.8294C32.4012 73.2838 33.9275 74.0675 35.3325 74.8425C36.7375 75.6175 37.975 76.36 47.2131 80.8881C56.4512 85.4162 73.6525 93.7075 82.6375 98.02C91.6225 102.333 91.87 102.415 92.2244 102.581C93.7619 103.303 94.745 103.748 96.4919 104.455C97.081 104.694 97.7775 105.035 99.0462 105.597C100.315 106.159 102.13 106.943 103.168 107.408C104.206 107.874 104.412 107.998 105.467 108.474C108.408 109.801 110.581 110.749 110.997 110.978C111.396 111.197 111.996 111.456 114.993 112.986C117.611 114.322 122.485 116.742 125.054 118.037C128.04 119.542 129.2 119.955 130.06 120.374C130.851 120.759 131.62 121.04 132.663 121.561C133.373 121.915 134.122 122.333 136.076 123.433C136.885 123.889 137.745 124.165 139.161 124.727C140.145 125.117 140.622 125.415 141.123 125.645C141.249 125.707 141.372 125.79 141.498 125.853C141.624 125.916 141.748 125.957 142 126.125" stroke="black" stroke-width="3.5" stroke-linecap="round"/>
<path d="M141.375 102.75C141.916 105.665 142.247 108.145 142.499 109.851C142.704 111.237 142.707 112.33 142.854 113.433C142.917 113.909 142.916 114.455 142.999 116.626C143.07 118.465 143.082 121.808 143.083 123.591C143.042 125.498 143 126.409 142.938 127.431C142.876 127.67 142.752 127.34 142.625 127" stroke="black" stroke-width="3" stroke-linecap="round"/>
<path d="M144.625 125.875C145.452 125.337 147.532 124.005 149.327 122.879C149.665 122.667 149.83 122.585 150.08 122.419C150.33 122.252 150.66 122.005 156.358 118.598C162.055 115.191 173.11 108.633 182.889 102.469C192.667 96.3063 200.835 90.7375 208.899 85.5588C216.964 80.38 224.677 75.76 231.25 72.0806C237.823 68.4012 243.02 65.8025 245.821 64.4225C248.855 62.9282 249.331 62.7513 249.85 62.4813C251.134 61.813 252.325 61.295 254.7 60.1706C255.768 59.6648 256.705 59.2925 258.202 58.6069C258.538 58.4534 258.705 58.4175 260.11 57.7156C261.515 57.0138 264.155 55.6525 265.598 54.9306C267.523 53.9669 268.535 53.42 269.269 53.0219C270.419 52.398 272.205 51.3775 272.748 51.0012C273.236 50.6636 273.458 50.045 273.645 49.44C273.946 48.4699 274.083 47.6275 274.146 47.1063C274.163 46.9596 274.207 46.795 274.229 45.5756C274.25 44.3563 274.25 42.0875 274.229 40.8569C274.207 39.5013 274.125 37.8487 274.104 35.4744C274.094 34.2427 273.793 33.4225 273.646 32.7313C273.625 32.42 273.501 31.8375 273.231 31.1094C273.085 30.7937 272.92 30.5875 272.75 30.375" stroke="black" stroke-width="3.5" stroke-linecap="round"/>
<path d="M32 62.25C34.31 62.25 36.62 62.25 38.0163 62.2913C39.4125 62.3325 39.825 62.415 40.1613 62.4988C40.4975 62.5825 40.745 62.665 41.25 62.75" stroke="black" stroke-width="2" stroke-linecap="round"/>
<path d="M76 83.75L82.75 87.25" stroke="black" stroke-width="2" stroke-linecap="round"/>
<path d="M128 109.5L130.25 112" stroke="black" stroke-width="2" stroke-linecap="round"/>
<path d="M196 72.25C195.34 74.3125 194.68 76.375 194.257 77.5613C193.835 78.7475 193.67 78.995 193.5 79.25" stroke="black" stroke-width="2" stroke-linecap="round"/>
</svg>
