<svg width="215" height="171" viewBox="0 0 215 171" fill="none" xmlns="http://www.w3.org/2000/svg">
<g opacity="0.3">
<path d="M144.589 166.77L150.892 168.71L163.499 156.587L183.865 140.586L189.684 137.677L196.472 130.888C196.86 130.5 204.069 119.412 207.625 113.917L212.958 110.038L211.504 82.3988C211.019 75.6103 210.049 61.9363 210.049 61.5484C210.049 61.1604 205.2 47.8097 202.776 41.1829L200.836 55.2448V68.3369C199.058 73.0242 195.405 82.4957 195.017 82.8836C194.629 83.2716 187.421 93.3897 183.865 98.4002L169.318 117.796L150.892 136.707L144.104 141.556L144.589 166.77Z" fill="black"/>
<path d="M131.011 133.313L142.649 140.101L149.922 137.192L167.863 120.221C173.197 112.947 184.059 98.4004 184.834 98.4004C185.61 98.4004 194.209 82.2373 198.411 74.1558C199.543 68.4987 201.903 56.8936 202.291 55.7299C202.678 54.5661 201.806 45.5471 201.321 41.1831L194.047 37.3039L168.833 33.4248C168.025 38.1121 166.312 47.6807 165.924 48.4565C165.536 49.2323 163.176 59.7706 162.044 64.9428C158.489 72.2162 151.377 86.957 151.377 87.7328C151.377 88.7026 139.739 103.249 139.739 104.219C139.739 105.189 125.193 114.402 124.708 116.341C124.32 117.893 119.051 120.221 116.465 121.19L131.011 133.313Z" fill="black"/>
<path d="M7.84841 31.4851L4.45416 34.8794L16.0916 44.5772C20.6173 48.4564 29.7656 56.3116 30.1535 56.6995C30.5414 57.0875 50.3573 72.0545 60.2168 79.4895L87.8557 101.795L115.979 121.19L122.283 117.796L146.043 96.9456L155.256 79.4895L164.954 55.7297L168.833 34.8794L130.526 35.3643L92.2197 32.9398L39.8513 31.4851H7.84841Z" fill="black"/>
<path d="M6.39419 63.0029L10.2733 68.3367C12.3745 71.2461 16.6739 77.0648 17.0618 77.0648C17.5467 77.0648 39.8518 97.9152 40.3367 97.9152C40.8216 97.9152 70.8849 121.19 71.3698 121.19C71.7577 121.19 103.534 144.465 119.374 156.102C125.678 159.658 138.382 166.77 138.77 166.77C139.255 166.77 143.619 166.77 144.104 166.285C144.492 165.897 144.265 148.667 144.104 140.101L118.889 124.584L107.737 115.371C100.302 109.876 85.0438 98.4971 83.4921 96.9454C81.9405 95.3938 59.5708 78.5195 48.5799 70.2763L25.305 51.8504C19.3247 46.6782 7.17002 36.2368 6.39419 35.8489C5.4244 35.364 2.99994 32.4547 2.99994 32.9395C2.99994 33.3275 5.26277 53.1434 6.39419 63.0029Z" fill="black"/>
<path d="M3.55304 31.8196C6.39114 31.565 7.66663 31.4809 9.89482 31.4166C10.5084 31.3989 11.025 31.3536 15.6267 31.2689C20.2284 31.1842 28.8993 31.0582 33.6245 31.0143C38.8661 30.9655 39.8584 31.0556 40.8128 31.0766C42.5976 31.1159 43.5126 31.3103 45.4789 31.416C47.4332 31.521 48.8512 31.3956 49.9744 31.3319C54.3473 31.0841 55.4044 31.4376 56.5346 31.5433C56.968 31.5838 57.4925 31.607 59.1056 31.6706C64.9688 31.902 65.9007 31.8196 66.8308 31.9253C68.1533 32.0756 69.092 32.0743 70.5989 32.1799C71.6453 32.2533 73.1464 32.3289 74.515 32.4346C76.6803 32.6018 78.7774 32.7109 79.9093 32.8166C81.554 32.9701 82.9501 32.9656 85.0356 33.0712C87.8471 33.2137 90.1472 33.1349 91.2739 33.1986C92.7983 33.2847 93.8623 33.2622 94.8985 33.3259C99.2976 33.5962 100.588 33.4749 101.631 33.5806C103.933 33.8137 105.342 33.7295 106.649 33.8352C107.605 33.9125 108.651 33.9842 109.782 34.0899C110.566 34.1632 111.721 34.2388 112.654 34.3445C113.518 34.4422 114.683 34.4935 115.872 34.5992C116.827 34.684 118.333 34.7482 119.729 34.8538C120.887 34.9415 122.509 35.0028 124.136 35.1085C124.943 35.161 125.762 35.1722 127.404 35.2358C130.708 35.3638 133.244 35.2154 134.255 35.1518C136.89 34.9859 138.174 35.0028 139.823 34.8971C142.229 34.743 143.391 34.7482 144.611 34.6425C146.805 34.4525 150.271 34.4935 152.587 34.3878C154.761 34.2886 157.531 34.2388 161.273 34.3445C163.03 34.3942 166.075 34.3662 167.728 34.3872C170.998 34.4287 173.905 34.5775 175.294 34.6628C176.716 34.7501 177.845 34.9595 179.385 35.2142" stroke="black" stroke-width="4.86472" stroke-linecap="round"/>
<path d="M178.103 35.1006C182.275 36.0326 191.059 35.9945 192.337 36.4625C193.226 36.7881 193.962 36.9724 196.132 37.7128C197.329 38.1213 197.964 38.373 198.834 38.564C199.318 38.6702 199.706 38.8403 200.024 38.967C200.703 39.2372 200.693 39.9417 201.069 40.4516C201.475 41.0007 201.448 41.7243 201.592 42.3609C201.736 42.9934 201.796 43.675 201.94 44.5249C202.084 45.3707 202.144 46.2215 202.288 47.0708C202.518 48.4217 202.492 50.706 202.319 52.3555C202.243 53.0747 201.97 54.3247 201.825 55.7877C201.417 59.9219 201.622 60.7802 201.477 62.007C201.138 64.8893 201.274 65.6594 200.927 66.9747C200.522 68.5142 200.23 69.3545 199.912 70.2872C199.661 71.0241 199.245 71.9418 198.897 73.0667C198.681 73.7628 198.26 74.5316 197.824 75.2962C197.495 75.8734 197.331 76.4848 196.954 77.3539C196.619 78.1264 196.346 78.8175 196.054 79.414C195.812 79.9091 195.765 80.432 195.677 80.963C195.544 81.7642 194.839 82.8487 194.46 83.5095C194.082 84.1678 193.851 84.7612 193.329 85.3768C192.797 86.0059 191.94 87.1346 191.213 87.8387C190.624 88.4087 190.37 88.963 189.965 89.515C189.412 90.2678 188.863 91.125 188.37 91.8915C187.917 92.5959 187.297 93.0375 186.428 94.2872C185.978 94.934 185.672 95.4567 185.267 96.2201C184.786 97.1244 184.05 98.1281 183.527 98.9156C182.912 99.8399 182.31 100.973 181.786 101.907C181.401 102.595 180.803 103.349 179.671 104.728C179.115 105.407 178.482 106.277 178.103 106.938C177.686 107.664 177.031 108.485 176.306 109.399C175.868 109.95 175.35 110.818 174.74 111.585C173.97 112.553 173.321 113.196 172.738 113.814C172.102 114.487 171.462 115.277 171.114 115.872C170.642 116.676 170.07 117.23 169.606 117.845C169.089 118.53 168.101 119.435 166.94 120.349C166.25 120.892 165.605 121.6 164.62 122.429C163.735 123.172 163.11 123.978 162.444 124.53C161.501 125.31 160.733 126.015 160.209 126.525C159.658 127.062 159.108 127.755 158.47 128.435C157.767 129.184 157.02 129.835 156.411 130.451C155.895 130.972 155.568 131.575 154.961 132.276C154.273 133.069 153.599 133.612 152.902 134.271C152.309 134.831 151.685 135.394 151.016 136.053C150.493 136.57 149.944 137.009 149.276 137.37C148.384 137.852 147.393 138.748 146.637 139.153C145.89 139.552 145.476 139.895 145.216 140.086C144.704 140.462 143.68 139.729 142.58 139.41C142.117 139.263 141.428 139.011 140.786 138.692C140.144 138.373 139.57 137.994 138.978 137.605" stroke="black" stroke-width="4.86472" stroke-linecap="round"/>
<path d="M169.256 34.2144C167.69 41.0875 167.575 42.1876 167.487 42.9548C167.379 43.8927 167.227 44.6502 167.139 45.353C167.035 46.1852 166.764 46.858 166.617 47.4546C166.553 47.7121 166.127 49.6032 165.605 52.3401C165.323 53.816 165.253 54.5843 164.82 56.4255C164.546 57.5904 164.383 58.2768 164.21 58.8498C163.961 59.676 163.861 60.1867 163.573 61.0137C163.376 61.5768 163.225 62.3488 162.848 63.3687C162.522 64.2511 162.354 65.0226 161.544 66.888C161.254 67.5574 160.792 68.8794 160.038 70.6391C159.198 72.601 158.815 74.0655 158.47 74.9116C157.944 76.2 156.619 78.2991 155.344 80.4198C154.376 82.029 154.235 82.8511 153.829 83.5502C152.832 85.2656 152.262 86.289 151.596 87.2217C151.121 87.8879 150.811 88.5809 150.349 89.4079C150.003 90.0259 149.422 90.8702 148.812 91.6571C148.285 92.3375 147.05 94.0458 145.485 96.0608C144.421 97.4301 143.795 98.0032 143.273 98.6182C142.436 99.6035 142.114 100.336 141.62 101.079C140.623 102.579 139.159 103.687 137.851 104.878C137.219 105.454 136.316 105.982 135.214 106.85C132.433 109.042 131.673 109.674 131.121 110.333C130.559 111.003 129.759 111.711 129.033 112.391C128.287 113.09 127.612 113.537 126.772 114.512C125.732 115.719 124.076 116.593 122.482 117.737C121.264 118.611 119.726 119.776 118.536 120.35C117.693 120.669 116.997 121.093 116.592 121.411C116.416 121.56 116.301 121.686 116.009 122.071" stroke="black" stroke-width="4.86472" stroke-linecap="round"/>
<path d="M70.2149 43.0073L70.2448 43L70.2457 43C70.6596 43 71.0611 43 71.3506 43.0216C71.6404 43.0433 71.8126 43.0853 71.9875 43.128C72.6844 43.3412 73.3517 43.7117 74.0756 44.0199C74.7725 44.3166 75.3954 44.6465 76.1637 44.7406C76.8607 44.8259 77.5434 45.0114 78.2519 45.2715C79.0079 45.5491 80.1059 45.8012 80.4548 46.3334C80.8037 46.8657 81.0963 47.4736 81.4119 47.9893C81.7838 48.5971 81.9241 49.0962 82.0726 49.6242L82.0783 49.6446C82.2515 50.2602 82.2753 50.7763 82.4551 51.5972C82.5995 52.2567 83.4535 53.2618 82.9179 54.2501C82.596 54.8441 81.823 55.3913 80.8559 55.862C79.8084 56.372 78.5763 57.0102 77.7246 56.9851C76.9685 56.9628 75.9113 56.9213 74.4445 56.6228C73.1995 56.3694 72.2848 56.4505 70.8782 55.8799C69.775 55.4323 68.7404 55.0482 68.0949 54.6486C67.1683 54.075 66.759 53.5452 65.9502 52.5254C65.4282 51.8671 65.0047 51.1798 64.6756 50.5315C64.3842 49.9572 63.9507 49.295 63.8056 48.7062C63.6324 48.004 63.6763 47.2904 64.1858 46.8179C64.7357 46.308 65.6089 44.6416 66.9412 43.911C67.2869 43.7215 67.8285 43.5894 70.2149 43.0073Z" fill="black" stroke="black" stroke-width="3.64854" stroke-linecap="round"/>
<path d="M72.8288 74.2572C72.8001 73.4302 73.7167 72.1682 74.2788 71.7312C75.0365 71.1421 75.412 71.2274 75.6165 71.1421C76.6945 70.8022 78.0813 70.7194 78.9226 70.9543C79.3568 71.23 79.6759 71.5471 79.9658 71.7603C80.5157 72.1646 81.0463 72.7014 81.3283 73.3748C81.6746 74.2018 81.676 74.7275 81.471 75.2415C81.2083 75.9004 80.8489 76.5748 79.7857 77.215C79.2942 77.5111 78.6351 77.7255 77.929 77.6155C76.9729 77.4665 76.29 77.2869 75.4364 76.7866C74.7107 76.3613 72.8667 75.3494 72.8288 74.2572Z" fill="black" stroke="black" stroke-width="3.64854" stroke-linecap="round"/>
<path d="M115.148 63.7312C116.882 63.3295 121.313 61.7392 126.469 61.7328C126.948 61.7173 127.544 61.7154 127.934 61.6959C128.948 61.5902 129.793 61.5111 131.036 61.7392C131.847 61.8882 132.847 61.7595 133.935 62.5897C134.631 63.1207 135.209 63.6287 135.674 64.1387C136.138 64.6486 136.5 65.324 136.862 66.2402C137.123 66.8998 137.92 67.8434 137.557 70.7222C137.412 71.8656 137.387 72.6392 137.179 73.2872C136.831 74.3689 136.631 75.0412 136.571 75.9624C136.483 77.2974 136.248 77.8888 136.019 78.4644C135.432 79.9407 134.505 81.7542 133.349 83.1761C132.71 83.9618 132.129 84.8938 131.115 85.5304C130.1 86.1671 129.286 86.6704 128.36 87.0787C126.958 87.6976 125.009 88.3473 123.894 88.4354C123.081 88.4997 120.557 88.8717 118.818 88.4558C117.565 88.1559 116.246 87.6195 115.484 87.4582C114.787 87.3105 113.687 87.2852 111.739 86.7999C110.026 86.3733 108.728 85.8026 107.682 85.037C106.724 84.3361 105.871 83.8416 105.362 83.2755C104.521 82.3396 103.866 81.4755 103.275 80.8358C102.784 80.3049 102.222 79.39 101.884 78.3727C101.566 77.4171 101.201 76.7345 101.422 74.7623C101.566 73.4699 101.759 72.6975 102.119 72.0286C102.554 71.2188 102.986 70.3617 103.627 69.5457C104.18 68.8428 104.782 67.7322 106.415 66.8711C107.66 66.2148 108.735 65.8382 109.573 65.5151C110.625 65.1096 111.947 64.473 115.148 63.7312Z" fill="black"/>
<path d="M126.469 61.7328C121.313 61.7392 116.882 63.3295 115.148 63.7312C111.947 64.473 110.625 65.1096 109.573 65.5151C108.735 65.8382 107.66 66.2148 106.415 66.8711C104.782 67.7322 104.18 68.8428 103.627 69.5457C102.986 70.3617 102.554 71.2188 102.119 72.0286C101.759 72.6975 101.566 73.4699 101.422 74.7623C101.201 76.7345 101.566 77.4171 101.884 78.3727C102.222 79.39 102.784 80.3049 103.275 80.8358C103.866 81.4755 104.521 82.3396 105.362 83.2755C105.871 83.8416 106.724 84.3361 107.682 85.037C108.728 85.8026 110.026 86.3733 111.739 86.7999C113.687 87.2852 114.787 87.3105 115.484 87.4582C116.246 87.6195 117.565 88.1559 118.818 88.4558C120.557 88.8717 123.081 88.4997 123.894 88.4354C125.009 88.3473 126.958 87.6976 128.36 87.0787C129.286 86.6704 130.1 86.1671 131.115 85.5304C132.129 84.8938 132.71 83.9618 133.349 83.1761C134.505 81.7542 135.432 79.9407 136.019 78.4644C136.248 77.8888 136.483 77.2974 136.571 75.9624C136.631 75.0412 136.831 74.3689 137.179 73.2872C137.387 72.6392 137.412 71.8656 137.557 70.7222C137.92 67.8434 137.123 66.8998 136.862 66.2402C136.5 65.324 136.138 64.6486 135.674 64.1387C135.209 63.6287 134.631 63.1207 133.935 62.5897C132.847 61.7595 131.847 61.8882 131.036 61.7392C129.793 61.5111 128.948 61.5902 127.934 61.6959C127.501 61.7175 126.811 61.7175 126.313 61.7385" stroke="black" stroke-width="3.64854" stroke-linecap="round"/>
<path d="M178.827 65.4104L179.523 53.9509" stroke="black" stroke-width="3.64854" stroke-linecap="round"/>
<path d="M173.432 85.6545L168.734 89.0924" stroke="black" stroke-width="3.64854" stroke-linecap="round"/>
<path d="M148.549 113.285L149.593 117.615" stroke="black" stroke-width="3.64854" stroke-linecap="round"/>
<path d="M3.87067 33.9194C7.63797 36.7181 9.25452 38.2384 10.5074 39.3481C11.4865 40.2153 12.5085 41.1313 13.2907 41.7457C13.8571 42.1905 15.284 43.5429 17.3712 45.2612C18.6272 46.2951 19.5246 47.1565 20.399 47.8173C21.1345 48.3732 22.7646 49.866 24.1393 51.1686C25.4138 52.3763 26.485 53.6909 27.2149 54.544C27.822 55.2535 29.0359 56.2375 30.026 57.111C31.5348 58.442 32.5753 59.1253 33.7673 59.9128C34.9565 60.6985 35.7701 61.5471 37.3301 62.7319C39.8692 64.6603 41.4463 65.6165 42.4686 66.4702C43.0996 66.9972 44.0617 67.6155 44.9596 68.2299C45.6203 68.682 47.1851 69.9431 49.3594 71.513C50.2918 72.1863 51.424 72.9175 53.1319 74.1462C55.2929 75.7009 56.1257 76.3579 56.9984 77.0811C58.2182 78.092 61.1024 80.1268 62.3649 81.1772C63.4239 82.0584 64.6557 83.1928 65.7554 84.0619C66.7773 84.8694 68.3586 86.3251 70.0178 87.6691C71.3955 88.785 73.4014 90.2723 74.603 91.2572C75.5216 92.0101 76.3109 92.6992 77.2697 93.4631C78.7284 94.6254 80.1356 95.8773 81.8217 97.3243C82.863 98.218 84.6042 99.6564 85.71 100.594C86.5503 101.307 87.8547 102.376 88.87 103.119C90.2641 104.139 91.3348 104.795 92.0622 105.349C92.9025 105.988 93.8893 106.876 94.4983 107.28C95.1675 107.724 96.148 108.445 97.165 109.062C98.3058 109.755 99.2244 110.357 100.239 110.929C101.22 111.483 102.009 112.012 103.283 112.881C104.055 113.407 104.793 113.795 105.461 114.156C106.123 114.513 106.707 114.941 107.721 115.619C108.691 116.267 110.069 116.764 111.577 117.846C112.335 118.389 112.682 118.972 113.291 119.482C113.854 119.953 114.363 120.5 114.916 120.989C115.467 121.477 116.163 121.901 116.627 122.411C117.034 122.92 117.266 123.302 117.526 123.535C117.671 123.642 117.843 123.726 118.021 123.813" stroke="black" stroke-width="4.86472" stroke-linecap="round"/>
<path d="M118.021 124.959C121.549 126.099 124.797 128.135 125.994 128.989C126.659 129.465 127.759 130.007 131.06 132.357C132.236 133.194 138.108 137.037 138.838 137.677" stroke="black" stroke-width="4.86472" stroke-linecap="round"/>
<path d="M3.55282 33.6672C3.47281 35.3474 3.39281 37.0275 3.75163 40.1733C4.11045 43.319 4.91052 47.8794 5.32268 50.3888C5.87935 53.7779 5.97729 55.0753 6.21852 56.6124C6.37975 57.7373 6.46218 59.5969 6.50218 61.5352C6.54219 62.2735 6.62219 62.5135 6.21973 62.5184" stroke="black" stroke-width="3.72203" stroke-linecap="round"/>
<path d="M143.445 140.829C143.687 142.836 143.847 146.235 144.17 150.168C144.426 153.294 144.492 158.741 144.534 161.663C144.577 164.586 144.497 164.826 144.456 165.27C144.414 165.713 144.414 166.353 144.414 167.013" stroke="black" stroke-width="3.72203" stroke-linecap="round"/>
<path d="M117.26 125.797C116.533 133.148 116.693 134.598 116.976 136.296C117.284 138.138 117.26 139.127 117.461 140.818C118.007 145.402 117.745 147.68 117.946 149.791C117.987 151.714 118.067 153.191 118.189 153.715C118.23 153.998 118.23 154.318 118.23 154.648" stroke="black" stroke-width="3.72203" stroke-linecap="round"/>
<path d="M8.40186 66.155C10.8021 69.0353 13.2023 71.9156 15.5589 74.5994C17.9155 77.2833 20.1557 79.6835 25.1901 84.4003C30.2245 89.1171 37.9852 96.0778 43.1432 100.504C48.3013 104.929 50.6215 106.61 52.0968 107.635C55.2095 109.799 57.0463 110.843 60.8333 113.38C63.2501 114.999 65.1295 116.094 66.6569 117.422C70.9925 121.189 72.8005 122.233 75.1849 124.292C79.0612 127.641 82.411 130.069 84.4439 131.571C85.6243 132.443 86.8672 133.468 88.4431 134.561C90.4049 135.922 94.1212 138.467 96.0426 140.098C97.3509 141.208 99.2271 142.356 102.016 143.974C103.983 145.115 105.531 146.72 107.073 147.816C108.244 148.649 109.415 149.552 110.869 150.442C113.355 151.962 115.073 153.028 119.223 155.164C121.888 156.536 123.317 157.392 124.288 158C125.193 158.566 126.226 158.93 127.679 159.696C129.077 160.433 130.105 160.787 131.076 161.595C131.911 162.29 133.014 162.566 134.025 163.332C135.079 164.131 136.166 164.423 137.137 164.83C138.107 165.235 139.076 165.718 140.047 166.243C140.53 166.445 141.018 166.608 141.501 166.769C141.745 166.85 141.985 166.93 142.232 167.255" stroke="black" stroke-width="3.72203" stroke-linecap="round"/>
<path d="M203.086 41.4255C203.886 43.0257 204.686 44.6258 205.819 48.3304C206.951 52.035 208.391 57.7955 209.213 60.9631C210.142 64.5447 210.44 65.3429 210.561 69.3493C210.67 72.9543 210.602 79.7563 210.642 83.5397C210.698 88.8637 211.005 90.4725 211.127 91.9696C211.297 94.0439 211.572 96.1263 211.773 98.7496C212.21 104.444 212.057 105.907 212.298 107.406C212.459 108.171 212.622 108.823 212.743 109.387C212.784 109.711 212.784 110.111 212.542 110.523" stroke="black" stroke-width="3.72203" stroke-linecap="round"/>
<path d="M149.021 168.468C149.988 168.388 150.956 167.745 152.287 166.615C155.623 163.784 158.219 161.369 159.805 160.067C160.705 159.328 164.024 156.369 168.628 152.573C171.847 149.918 173.663 148.349 175.158 146.736C177.28 144.446 178.352 143.743 180.047 142.531C181.945 141.173 183.763 140.106 184.939 139.416C185.999 138.795 187.24 138.569 188.615 137.64C190.234 136.547 191.202 135.742 192.173 134.932C193.492 133.832 194.436 132.348 195.968 130.492C197.473 128.669 198.878 126.694 199.69 125.558C200.433 124.518 201.224 123.217 201.832 122.164C202.365 121.239 202.922 120.226 204.575 118.45C205.543 117.41 206.073 116.186 206.761 115.173C207.404 114.225 208.575 113.277 210.031 111.861C210.597 111.415 211.005 111.01 211.287 110.526C211.41 110.283 211.49 110.043 211.815 110.28" stroke="black" stroke-width="3.72203" stroke-linecap="round"/>
<path d="M147.324 167.255L144.657 166.528" stroke="black" stroke-width="3.72203" stroke-linecap="round"/>
<path d="M183.933 140.101C185.053 136.421 186.173 132.74 186.75 130.724C187.327 128.708 187.327 128.468 187.367 128.145C187.407 127.821 187.487 127.421 187.812 126.524" stroke="black" stroke-width="3.72203" stroke-linecap="round"/>
<path d="M27.7975 64.4578L29.4947 70.034" stroke="black" stroke-width="2.12687" stroke-linecap="round"/>
<path d="M60.2855 103.734H65.6193" stroke="black" stroke-width="2.12687" stroke-linecap="round"/>
<path d="M96.6524 139.859C96.4124 136.978 96.1723 134.098 96.0087 132.454C95.845 130.811 95.765 130.491 95.7238 129.846C95.6826 129.201 95.6826 128.241 95.6826 127.251" stroke="black" stroke-width="2.12687" stroke-linecap="round"/>
<path d="M112.896 47.729C111.936 48.5291 111.441 49.5813 111.561 50.5911C111.607 50.9771 111.921 51.0408 112.165 51.042C112.655 51.0445 113.136 50.7208 113.54 50.3583C113.733 50.1844 113.783 49.9159 113.705 49.6722C113.386 49.1885 112.899 48.8612 112.415 48.74C112.171 48.6988 111.931 48.6988 112.169 49.1837" stroke="black" stroke-width="2.12687" stroke-linecap="round"/>
</g>
<path d="M143.589 138.77L149.892 140.71L162.499 128.587L182.865 112.586L188.684 109.677L195.472 102.888C195.86 102.5 203.069 91.4122 206.625 85.9168L211.958 82.0376L210.504 54.3988C210.019 47.6103 209.049 33.9363 209.049 33.5484C209.049 33.1604 204.2 19.8097 201.776 13.1829L199.836 27.2448V40.3369C198.058 45.0242 194.405 54.4957 194.017 54.8836C193.629 55.2716 186.421 65.3897 182.865 70.4002L168.318 89.7959L149.892 108.707L143.104 113.556L143.589 138.77Z" fill="#095EA1"/>
<path d="M130.011 105.313L141.649 112.101L148.922 109.192L166.863 92.2206C172.197 84.9472 183.059 70.4004 183.834 70.4004C184.61 70.4004 193.209 54.2373 197.411 46.1558C198.543 40.4987 200.903 28.8936 201.291 27.7299C201.678 26.5661 200.806 17.5471 200.321 13.1831L193.047 9.30395L167.833 5.4248C167.025 10.1121 165.312 19.6807 164.924 20.4565C164.536 21.2323 162.176 31.7706 161.044 36.9428C157.489 44.2162 150.377 58.957 150.377 59.7328C150.377 60.7026 138.739 75.2494 138.739 76.2192C138.739 77.1889 124.193 86.4019 123.708 88.3415C123.32 89.8931 118.051 92.2206 115.465 93.1904L130.011 105.313Z" fill="#1CC2FF"/>
<path d="M6.84841 3.48511L3.45416 6.87936L15.0916 16.5772C19.6173 20.4564 28.7656 28.3116 29.1535 28.6995C29.5414 29.0875 49.3573 44.0545 59.2168 51.4895L86.8557 73.7946L114.979 93.1903L121.283 89.796L145.043 68.9456L154.256 51.4895L163.954 27.7297L167.833 6.87936L129.526 7.36425L91.2197 4.93979L38.8513 3.48511H6.84841Z" fill="#BFEEFF"/>
<path d="M5.39419 35.0029L9.27333 40.3367C11.3745 43.2461 15.6739 49.0648 16.0618 49.0648C16.5467 49.0648 38.8518 69.9152 39.3367 69.9152C39.8216 69.9152 69.8849 93.1901 70.3698 93.1901C70.7577 93.1901 102.534 116.465 118.374 128.102C124.678 131.658 137.382 138.77 137.77 138.77C138.255 138.77 142.619 138.77 143.104 138.285C143.492 137.897 143.265 120.667 143.104 112.101L117.889 96.5843L106.737 87.3714C99.3018 81.8759 84.0438 70.4971 82.4921 68.9454C80.9405 67.3938 58.5708 50.5195 47.5799 42.2763L24.305 23.8504C18.3247 18.6782 6.17002 8.23682 5.39419 7.84891C4.4244 7.36401 1.99994 4.45466 1.99994 4.93955C1.99994 5.32746 4.26277 25.1434 5.39419 35.0029Z" fill="#2386D4"/>
<path d="M2.55304 3.81961C5.39114 3.56495 6.66663 3.48092 8.89482 3.41661C9.5084 3.39891 10.025 3.35359 14.6267 3.26891C19.2284 3.18424 27.8993 3.05819 32.6245 3.01426C37.8661 2.96553 38.8584 3.05564 39.8128 3.07665C41.5976 3.11593 42.5126 3.3103 44.4789 3.41598C46.4332 3.52102 47.8512 3.39561 48.9744 3.33194C53.3473 3.08409 54.4044 3.43762 55.5346 3.54331C55.968 3.58383 56.4925 3.60697 58.1056 3.67063C63.9688 3.90204 64.9007 3.81961 65.8308 3.92529C67.1533 4.07556 68.092 4.07426 69.5989 4.17995C70.6453 4.25333 72.1464 4.32892 73.515 4.4346C75.6803 4.60181 77.7774 4.7109 78.9093 4.81659C80.554 4.97014 81.9501 4.96556 84.0356 5.07124C86.8471 5.21371 89.1472 5.13491 90.2739 5.19857C91.7983 5.28471 92.8623 5.26223 93.8985 5.3259C98.2976 5.59617 99.5877 5.47487 100.631 5.58055C102.933 5.81375 104.342 5.72953 105.649 5.83521C106.605 5.91248 107.651 5.98418 108.782 6.08987C109.566 6.16318 110.721 6.23884 111.654 6.34452C112.518 6.44225 113.683 6.4935 114.872 6.59918C115.827 6.68402 117.333 6.74815 118.729 6.85384C119.887 6.94151 121.509 7.00281 123.136 7.10849C123.943 7.16096 124.762 7.17216 126.404 7.23582C129.708 7.36385 132.244 7.21545 133.255 7.15178C135.89 6.98586 137.174 7.00281 138.823 6.89713C141.229 6.74299 142.391 6.74815 143.611 6.64247C145.805 6.45255 149.271 6.4935 151.587 6.38781C153.761 6.2886 156.531 6.23884 160.273 6.34452C162.03 6.39415 165.075 6.36617 166.728 6.38718C169.998 6.42871 172.905 6.57753 174.294 6.66284C175.716 6.75011 176.845 6.95952 178.385 7.21417" stroke="black" stroke-width="4.86472" stroke-linecap="round"/>
<path d="M177.103 7.10059C181.275 8.03263 190.059 7.99453 191.337 8.46246C192.226 8.78815 192.962 8.97241 195.132 9.71282C196.329 10.1213 196.964 10.373 197.834 10.564C198.318 10.6702 198.706 10.8403 199.024 10.967C199.703 11.2372 199.693 11.9417 200.069 12.4516C200.475 13.0007 200.448 13.7243 200.592 14.3609C200.736 14.9934 200.796 15.675 200.94 16.5249C201.084 17.3707 201.144 18.2215 201.288 19.0708C201.518 20.4217 201.492 22.706 201.319 24.3555C201.243 25.0747 200.97 26.3247 200.825 27.7877C200.417 31.9219 200.622 32.7802 200.477 34.007C200.138 36.8893 200.274 37.6594 199.927 38.9747C199.522 40.5142 199.23 41.3545 198.912 42.2872C198.661 43.0241 198.245 43.9418 197.897 45.0667C197.681 45.7628 197.26 46.5316 196.824 47.2962C196.495 47.8734 196.331 48.4848 195.954 49.3539C195.619 50.1264 195.346 50.8175 195.054 51.414C194.812 51.9091 194.765 52.432 194.677 52.963C194.544 53.7642 193.839 54.8487 193.46 55.5095C193.082 56.1678 192.851 56.7612 192.329 57.3768C191.797 58.0059 190.94 59.1346 190.213 59.8387C189.624 60.4087 189.37 60.963 188.965 61.515C188.412 62.2678 187.863 63.125 187.37 63.8915C186.917 64.5959 186.297 65.0375 185.428 66.2872C184.978 66.934 184.672 67.4567 184.267 68.2201C183.786 69.1244 183.05 70.1281 182.527 70.9156C181.912 71.8399 181.31 72.9726 180.786 73.9072C180.401 74.5951 179.803 75.3485 178.671 76.7281C178.115 77.4065 177.482 78.2771 177.103 78.9379C176.686 79.664 176.031 80.4849 175.306 81.3985C174.868 81.9504 174.35 82.8176 173.74 83.5847C172.97 84.5532 172.321 85.1961 171.738 85.8136C171.102 86.4872 170.462 87.2766 170.114 87.8719C169.642 88.6757 169.07 89.2298 168.606 89.8455C168.089 90.5304 167.101 91.4351 165.94 92.3487C165.25 92.8919 164.605 93.5997 163.62 94.4286C162.735 95.1722 162.11 95.9782 161.444 96.5302C160.501 97.3104 159.733 98.0155 159.209 98.5254C158.658 99.062 158.108 99.7548 157.47 100.435C156.767 101.184 156.02 101.835 155.411 102.451C154.895 102.972 154.568 103.575 153.961 104.276C153.273 105.069 152.599 105.612 151.902 106.271C151.309 106.831 150.685 107.394 150.016 108.053C149.493 108.57 148.944 109.009 148.276 109.37C147.384 109.852 146.393 110.748 145.637 111.153C144.89 111.552 144.476 111.895 144.216 112.086C143.704 112.462 142.68 111.729 141.58 111.41C141.117 111.263 140.428 111.011 139.786 110.692C139.144 110.373 138.57 109.994 137.978 109.605" stroke="black" stroke-width="4.86472" stroke-linecap="round"/>
<path d="M168.256 6.21436C166.69 13.0875 166.575 14.1876 166.487 14.9548C166.379 15.8927 166.227 16.6502 166.139 17.353C166.035 18.1852 165.764 18.858 165.617 19.4546C165.553 19.7121 165.127 21.6032 164.605 24.3401C164.323 25.816 164.253 26.5843 163.82 28.4255C163.546 29.5904 163.383 30.2768 163.21 30.8498C162.961 31.676 162.861 32.1867 162.573 33.0137C162.376 33.5768 162.225 34.3488 161.848 35.3687C161.522 36.2511 161.354 37.0226 160.544 38.888C160.254 39.5574 159.792 40.8794 159.038 42.6391C158.198 44.601 157.815 46.0655 157.47 46.9116C156.944 48.2 155.619 50.2991 154.344 52.4198C153.376 54.029 153.235 54.8511 152.829 55.5502C151.832 57.2656 151.262 58.289 150.596 59.2217C150.121 59.8879 149.811 60.5809 149.349 61.4079C149.003 62.0259 148.422 62.8702 147.812 63.6571C147.285 64.3375 146.05 66.0458 144.485 68.0608C143.421 69.4301 142.795 70.0032 142.273 70.6182C141.436 71.6035 141.114 72.3358 140.62 73.0794C139.623 74.5786 138.159 75.6871 136.851 76.8776C136.219 77.4535 135.316 77.9815 134.214 78.8499C131.433 81.0424 130.673 81.6741 130.121 82.333C129.559 83.0027 128.759 83.7113 128.033 84.3912C127.287 85.0903 126.612 85.5372 125.772 86.5119C124.732 87.7193 123.076 88.5931 121.482 89.7371C120.264 90.6109 118.726 91.7763 117.536 92.3499C116.693 92.6688 115.997 93.0928 115.592 93.4105C115.416 93.5601 115.301 93.6862 115.009 94.0707" stroke="black" stroke-width="4.86472" stroke-linecap="round"/>
<path d="M69.2149 15.0073L69.2448 15L69.2457 15C69.6596 15 70.0611 15 70.3506 15.0216C70.6404 15.0433 70.8126 15.0853 70.9875 15.128C71.6844 15.3412 72.3517 15.7117 73.0756 16.0199C73.7725 16.3166 74.3954 16.6465 75.1637 16.7406C75.8607 16.8259 76.5434 17.0114 77.2519 17.2715C78.0079 17.5491 79.1059 17.8012 79.4548 18.3334C79.8037 18.8657 80.0963 19.4736 80.4119 19.9893C80.7838 20.5971 80.9241 21.0962 81.0726 21.6242L81.0783 21.6446C81.2515 22.2602 81.2753 22.7763 81.4551 23.5972C81.5995 24.2567 82.4535 25.2618 81.9179 26.2501C81.596 26.8441 80.823 27.3913 79.8559 27.862C78.8084 28.372 77.5763 29.0102 76.7246 28.9851C75.9685 28.9628 74.9113 28.9213 73.4445 28.6228C72.1995 28.3694 71.2848 28.4505 69.8782 27.8799C68.775 27.4323 67.7404 27.0482 67.0949 26.6486C66.1683 26.075 65.759 25.5452 64.9502 24.5254C64.4282 23.8671 64.0047 23.1798 63.6756 22.5315C63.3842 21.9572 62.9507 21.295 62.8056 20.7062C62.6324 20.004 62.6763 19.2904 63.1858 18.8179C63.7357 18.308 64.6089 16.6416 65.9412 15.911C66.2869 15.7215 66.8285 15.5894 69.2149 15.0073Z" fill="#1CC2FF" stroke="black" stroke-width="3.64854" stroke-linecap="round"/>
<path d="M71.8288 46.2572C71.8001 45.4302 72.7167 44.1682 73.2788 43.7312C74.0365 43.1421 74.412 43.2274 74.6165 43.1421C75.6945 42.8022 77.0813 42.7194 77.9226 42.9543C78.3568 43.23 78.6759 43.5471 78.9658 43.7603C79.5157 44.1646 80.0463 44.7014 80.3283 45.3748C80.6746 46.2018 80.676 46.7275 80.471 47.2415C80.2083 47.9004 79.8489 48.5748 78.7857 49.215C78.2942 49.5111 77.6351 49.7255 76.929 49.6155C75.9729 49.4665 75.29 49.2869 74.4364 48.7866C73.7107 48.3613 71.8667 47.3494 71.8288 46.2572Z" fill="#1CC2FF" stroke="black" stroke-width="3.64854" stroke-linecap="round"/>
<path d="M114.148 35.7312C115.882 35.3295 120.313 33.7392 125.469 33.7328C125.948 33.7173 126.544 33.7154 126.934 33.6959C127.948 33.5902 128.793 33.5111 130.036 33.7392C130.847 33.8882 131.847 33.7595 132.935 34.5897C133.631 35.1207 134.209 35.6287 134.674 36.1387C135.138 36.6486 135.5 37.324 135.862 38.2402C136.123 38.8998 136.92 39.8434 136.557 42.7222C136.412 43.8656 136.387 44.6392 136.179 45.2872C135.831 46.3689 135.631 47.0412 135.571 47.9624C135.483 49.2974 135.248 49.8888 135.019 50.4644C134.432 51.9407 133.505 53.7542 132.349 55.1761C131.71 55.9618 131.129 56.8938 130.115 57.5304C129.1 58.1671 128.286 58.6704 127.36 59.0787C125.958 59.6976 124.009 60.3473 122.894 60.4354C122.081 60.4997 119.557 60.8717 117.818 60.4558C116.565 60.1559 115.246 59.6195 114.484 59.4582C113.787 59.3105 112.687 59.2852 110.739 58.7999C109.026 58.3733 107.728 57.8026 106.682 57.037C105.724 56.3361 104.871 55.8416 104.362 55.2755C103.521 54.3396 102.866 53.4755 102.275 52.8358C101.784 52.3049 101.222 51.39 100.884 50.3727C100.566 49.4171 100.201 48.7345 100.422 46.7623C100.566 45.4699 100.759 44.6975 101.119 44.0286C101.554 43.2188 101.986 42.3617 102.627 41.5457C103.18 40.8428 103.782 39.7322 105.415 38.8711C106.66 38.2148 107.735 37.8382 108.573 37.5151C109.625 37.1096 110.947 36.473 114.148 35.7312Z" fill="#1CC2FF"/>
<path d="M125.469 33.7328C120.313 33.7392 115.882 35.3295 114.148 35.7312C110.947 36.473 109.625 37.1096 108.573 37.5151C107.735 37.8382 106.66 38.2148 105.415 38.8711C103.782 39.7322 103.18 40.8428 102.627 41.5457C101.986 42.3617 101.554 43.2188 101.119 44.0286C100.759 44.6975 100.566 45.4699 100.422 46.7623C100.201 48.7345 100.566 49.4171 100.884 50.3727C101.222 51.39 101.784 52.3049 102.275 52.8358C102.866 53.4755 103.521 54.3396 104.362 55.2755C104.871 55.8416 105.724 56.3361 106.682 57.037C107.728 57.8026 109.026 58.3733 110.739 58.7999C112.687 59.2852 113.787 59.3105 114.484 59.4582C115.246 59.6195 116.565 60.1559 117.818 60.4558C119.557 60.8717 122.081 60.4997 122.894 60.4354C124.009 60.3473 125.958 59.6976 127.36 59.0787C128.286 58.6704 129.1 58.1671 130.115 57.5304C131.129 56.8938 131.71 55.9618 132.349 55.1761C133.505 53.7542 134.432 51.9407 135.019 50.4644C135.248 49.8888 135.483 49.2974 135.571 47.9624C135.631 47.0412 135.831 46.3689 136.179 45.2872C136.387 44.6392 136.412 43.8656 136.557 42.7222C136.92 39.8434 136.123 38.8998 135.862 38.2402C135.5 37.324 135.138 36.6486 134.674 36.1387C134.209 35.6287 133.631 35.1207 132.935 34.5897C131.847 33.7595 130.847 33.8882 130.036 33.7392C128.793 33.5111 127.948 33.5902 126.934 33.6959C126.501 33.7175 125.811 33.7175 125.313 33.7385" stroke="black" stroke-width="3.64854" stroke-linecap="round"/>
<path d="M177.827 37.4104L178.523 25.9509" stroke="black" stroke-width="3.64854" stroke-linecap="round"/>
<path d="M172.432 57.6545L167.734 61.0924" stroke="black" stroke-width="3.64854" stroke-linecap="round"/>
<path d="M147.549 85.2854L148.593 89.6146" stroke="black" stroke-width="3.64854" stroke-linecap="round"/>
<path d="M2.87067 5.91943C6.63797 8.7181 8.25452 10.2384 9.50739 11.3481C10.4865 12.2153 11.5085 13.1313 12.2907 13.7457C12.8571 14.1905 14.284 15.5429 16.3712 17.2612C17.6272 18.2951 18.5246 19.1565 19.399 19.8173C20.1345 20.3732 21.7646 21.866 23.1393 23.1686C24.4138 24.3763 25.485 25.6909 26.2149 26.544C26.822 27.2535 28.0359 28.2375 29.026 29.111C30.5348 30.442 31.5753 31.1253 32.7673 31.9128C33.9565 32.6985 34.7701 33.5471 36.3301 34.7319C38.8692 36.6603 40.4463 37.6165 41.4686 38.4702C42.0996 38.9972 43.0617 39.6155 43.9596 40.2299C44.6203 40.682 46.1851 41.9431 48.3594 43.513C49.2918 44.1863 50.424 44.9175 52.1319 46.1462C54.2929 47.7009 55.1257 48.3579 55.9984 49.0811C57.2182 50.092 60.1024 52.1268 61.3649 53.1772C62.4239 54.0584 63.6557 55.1928 64.7554 56.0619C65.7773 56.8694 67.3586 58.3251 69.0178 59.6691C70.3955 60.785 72.4014 62.2723 73.603 63.2572C74.5216 64.0101 75.3109 64.6992 76.2697 65.4631C77.7284 66.6254 79.1356 67.8773 80.8217 69.3243C81.863 70.218 83.6042 71.6564 84.71 72.5941C85.5503 73.3068 86.8547 74.3761 87.87 75.119C89.2641 76.1392 90.3348 76.7953 91.0622 77.3486C91.9025 77.9877 92.8893 78.8759 93.4983 79.2801C94.1675 79.7243 95.148 80.4445 96.165 81.0621C97.3058 81.7547 98.2244 82.357 99.2389 82.9294C100.22 83.4827 101.009 84.0123 102.283 84.8807C103.055 85.4068 103.793 85.7949 104.461 86.1558C105.123 86.5132 105.707 86.9408 106.721 87.6188C107.691 88.2669 109.069 88.7642 110.577 89.8458C111.335 90.3892 111.682 90.972 112.291 91.482C112.854 91.9527 113.363 92.5 113.916 92.9889C114.467 93.4772 115.163 93.9006 115.627 94.4105C116.034 94.9205 116.266 95.3025 116.526 95.5355C116.671 95.6424 116.843 95.7265 117.021 95.813" stroke="black" stroke-width="4.86472" stroke-linecap="round"/>
<path d="M117.021 96.9595C120.549 98.0991 123.797 100.135 124.994 100.989C125.659 101.465 126.759 102.007 130.06 104.357C131.236 105.194 137.108 109.037 137.838 109.677" stroke="black" stroke-width="4.86472" stroke-linecap="round"/>
<path d="M2.55282 5.66724C2.47281 7.34739 2.39281 9.02754 2.75163 12.1733C3.11045 15.319 3.91052 19.8794 4.32268 22.3888C4.87935 25.7779 4.97729 27.0753 5.21852 28.6124C5.37975 29.7373 5.46218 31.5969 5.50218 33.5352C5.54219 34.2735 5.62219 34.5135 5.21973 34.5184" stroke="black" stroke-width="3.72203" stroke-linecap="round"/>
<path d="M142.445 112.829C142.687 114.836 142.847 118.235 143.17 122.168C143.426 125.294 143.492 130.741 143.534 133.663C143.577 136.586 143.497 136.826 143.456 137.27C143.414 137.713 143.414 138.353 143.414 139.013" stroke="black" stroke-width="3.72203" stroke-linecap="round"/>
<path d="M116.26 97.7969C115.533 105.148 115.693 106.598 115.976 108.296C116.284 110.138 116.26 111.127 116.461 112.818C117.007 117.402 116.745 119.68 116.946 121.791C116.987 123.714 117.067 125.191 117.189 125.715C117.23 125.998 117.23 126.318 117.23 126.648" stroke="black" stroke-width="3.72203" stroke-linecap="round"/>
<path d="M7.40186 38.155C9.80207 41.0353 12.2023 43.9156 14.5589 46.5994C16.9155 49.2833 19.1557 51.6835 24.1901 56.4003C29.2245 61.1171 36.9852 68.0778 42.1432 72.5036C47.3013 76.9295 49.6215 78.6096 51.0968 79.6352C54.2095 81.799 56.0463 82.8428 59.8333 85.38C62.2501 86.9992 64.1295 88.0941 65.6569 89.4215C69.9925 93.1894 71.8005 94.2329 74.1849 96.2925C78.0612 99.6406 81.411 102.069 83.4439 103.571C84.6243 104.443 85.8672 105.468 87.4431 106.561C89.4049 107.922 93.1212 110.467 95.0426 112.098C96.3509 113.208 98.2271 114.356 101.016 115.974C102.983 117.115 104.531 118.72 106.073 119.816C107.244 120.649 108.415 121.552 109.869 122.442C112.355 123.962 114.073 125.028 118.223 127.164C120.888 128.536 122.317 129.392 123.288 130C124.193 130.566 125.226 130.93 126.679 131.696C128.077 132.433 129.105 132.787 130.076 133.595C130.911 134.29 132.014 134.566 133.025 135.332C134.079 136.131 135.166 136.423 136.137 136.83C137.107 137.235 138.076 137.718 139.047 138.243C139.53 138.445 140.018 138.608 140.501 138.769C140.745 138.85 140.985 138.93 141.232 139.255" stroke="black" stroke-width="3.72203" stroke-linecap="round"/>
<path d="M202.086 13.4255C202.886 15.0257 203.686 16.6258 204.819 20.3304C205.951 24.035 207.391 29.7955 208.213 32.9631C209.142 36.5447 209.44 37.3429 209.561 41.3493C209.67 44.9543 209.602 51.7563 209.642 55.5397C209.698 60.8637 210.005 62.4725 210.127 63.9696C210.297 66.0439 210.572 68.1263 210.773 70.7496C211.21 76.4437 211.057 77.9066 211.298 79.4061C211.459 80.171 211.622 80.8232 211.743 81.3869C211.784 81.7106 211.784 82.1106 211.542 82.5228" stroke="black" stroke-width="3.72203" stroke-linecap="round"/>
<path d="M148.021 140.468C148.988 140.388 149.956 139.745 151.287 138.615C154.623 135.784 157.219 133.369 158.805 132.067C159.705 131.328 163.024 128.369 167.628 124.573C170.847 121.918 172.663 120.349 174.158 118.736C176.28 116.446 177.352 115.743 179.047 114.531C180.945 113.173 182.763 112.106 183.939 111.416C184.999 110.795 186.24 110.569 187.615 109.64C189.234 108.547 190.202 107.742 191.173 106.932C192.492 105.832 193.436 104.348 194.968 102.492C196.473 100.669 197.878 98.694 198.69 97.5581C199.433 96.5185 200.224 95.2173 200.832 94.1639C201.365 93.2386 201.922 92.2255 203.575 90.4496C204.543 89.4098 205.073 88.1864 205.761 87.173C206.404 86.2247 207.575 85.277 209.031 83.8611C209.597 83.415 210.005 83.0101 210.287 82.5265C210.41 82.2828 210.49 82.0428 210.815 82.2804" stroke="black" stroke-width="3.72203" stroke-linecap="round"/>
<path d="M146.324 139.255L143.657 138.528" stroke="black" stroke-width="3.72203" stroke-linecap="round"/>
<path d="M182.933 112.101C184.053 108.421 185.173 104.74 185.75 102.724C186.327 100.708 186.327 100.468 186.367 100.145C186.407 99.821 186.487 99.421 186.812 98.5239" stroke="black" stroke-width="3.72203" stroke-linecap="round"/>
<path d="M26.7975 36.4578L28.4947 42.034" stroke="black" stroke-width="2.12687" stroke-linecap="round"/>
<path d="M59.2855 75.7341H64.6193" stroke="black" stroke-width="2.12687" stroke-linecap="round"/>
<path d="M95.6524 111.859C95.4124 108.978 95.1723 106.098 95.0087 104.454C94.845 102.811 94.765 102.491 94.7238 101.846C94.6826 101.201 94.6826 100.241 94.6826 99.2515" stroke="black" stroke-width="2.12687" stroke-linecap="round"/>
<path d="M111.896 19.729C110.936 20.5291 110.441 21.5813 110.561 22.5911C110.607 22.9771 110.921 23.0408 111.165 23.042C111.655 23.0445 112.136 22.7208 112.54 22.3583C112.733 22.1844 112.783 21.9159 112.705 21.6722C112.386 21.1885 111.899 20.8612 111.415 20.74C111.171 20.6988 110.931 20.6988 111.169 21.1837" stroke="black" stroke-width="2.12687" stroke-linecap="round"/>
</svg>
