<svg width="214" height="124" viewBox="0 0 214 124" fill="none" xmlns="http://www.w3.org/2000/svg">
<g opacity="0.3">
<path d="M9.81323 113.5C10.9799 114.5 13.5132 116.5 14.3132 116.5L47.3132 115.5C82.9799 116.5 154.513 118.5 155.313 118.5C156.113 118.5 172.98 119.167 181.313 119.5L209.313 121.5V99C208.813 98.3333 179.513 95.6 178.313 96C176.813 96.5 129.813 97 128.813 97C128.013 97 110.48 95 101.813 94L75.3132 92L43.8132 93H16.8132H5.31323L3.81323 95.5L9.81323 113.5Z" fill="black"/>
<path d="M122.813 31L129.313 36.5L139.813 41L161.813 55L174.313 75L181.813 94.5L200.813 97C203.813 97.5 209.913 98.2 210.313 97C210.713 95.8 208.813 87.8333 207.813 84L204.313 73.5L190.813 59.5C187.813 55.6667 181.613 47.9 180.813 47.5C180.013 47.1 170.147 36.3333 165.313 31L149.313 22.5L140.813 21.5L124.313 26.5L122.813 31Z" fill="black"/>
<path d="M20.3132 83L6.81323 93C8.31323 93 11.5132 93.1 12.3132 93.5C13.3132 94 29.8132 93 30.8132 93C31.6132 93 70.8132 94.3333 90.3132 95L118.813 96L172.813 95.5C175.313 95.3333 180.413 94.9 180.813 94.5C181.213 94.1 180.313 89 179.813 86.5L170.813 67L160.313 54.5L140.313 40.5C136.313 38.3333 128.113 33.9 127.313 33.5C126.513 33.1 124.313 30.6667 123.313 29.5L115.813 31.5L72.8132 52C63.6466 57.3333 45.2132 68.3 44.8132 69.5C44.4132 70.7 28.3132 79 20.3132 83Z" fill="black"/>
<path d="M5.91211 93.0599C7.57005 91.7601 10.2005 89.9206 12.9808 88.1048C14.1362 87.3502 15.2336 86.6763 17.7339 85.129C19.3084 84.1547 21.6554 82.9318 22.9338 82.2195C25.3586 80.8686 27.2608 79.8017 28.4854 79.1452C29.7132 78.4871 31.1437 77.7036 32.1656 77.2185C33.3747 76.6445 34.0792 75.9942 35.5721 75.0981C36.996 74.2434 38.4429 73.195 39.7896 72.4492C41.0613 71.7449 41.9742 71.0916 42.9906 70.4141C43.228 70.2559 43.4096 70.1725 44.7742 69.218C46.1387 68.2635 48.6849 66.4438 50.0853 65.463C52.6411 63.6731 54.7138 62.2948 55.9088 61.4867C56.926 60.7988 58.0619 60.3254 59.108 59.7359C61.2856 58.5087 62.6661 57.8754 63.7445 57.3063C65.5749 56.3402 67.5718 55.1629 68.529 54.702C70.5349 53.7364 71.6987 52.8862 72.8946 52.3171C74.6605 51.4766 76.5397 50.5676 77.8595 49.9754C79.2737 49.3409 81.3808 48.3382 82.5857 47.8301C83.6509 47.3808 84.912 46.8047 87.1863 45.732C88.4758 45.1237 90.1119 44.3993 93.2789 43.0654C96.6901 41.6285 99.3885 40.2386 100.613 39.6924C101.458 39.3154 103.209 38.4044 105.659 37.2457C107.86 36.2049 109.257 35.4686 110.486 34.8108C111.419 34.3114 112.43 33.8485 113.209 33.5622C114.069 33.2464 114.942 32.5355 115.721 31.9224C116.334 31.4408 117.156 31.0913 117.874 30.8484C118.532 30.6261 119.309 30.5214 120.028 30.2799C120.77 30.0302 121.462 29.7337 122.151 29.3614C122.833 28.9929 123.436 28.552 124.333 28.1798C125.33 27.7661 126.246 27.3704 126.996 26.9981C127.942 26.5286 129.056 25.4902 130.461 24.7891C131.884 24.0795 132.885 23.6074 134.26 22.6674C135.184 22.0357 136.473 21.5934 137.431 21.3518C138.337 21.1235 139.046 21.0236 140.659 21.0006C141.572 20.9876 142.276 21.1969 143.144 21.3505C143.934 21.4905 144.788 21.5908 145.536 21.7877C146.456 22.0298 147.121 22.3785 147.869 22.6844C148.873 23.0951 149.992 23.2976 150.71 23.5818C151.522 23.9029 152.741 24.39 153.909 25.1121C155.082 25.8374 156.451 26.6666 157.08 27.1478C157.958 27.8194 159.082 28.1975 160.367 29.0719C161.871 30.0944 163.686 31.304 164.497 31.7655C165.341 32.2459 165.961 33.2734 166.858 34.0178C167.826 34.821 168.294 35.5054 169.012 36.2065C169.731 36.9076 170.447 37.6928 171.403 38.6558C172.693 39.9542 173.26 40.6705 173.886 41.327C174.579 42.0528 175.41 42.5953 176.07 43.1875C176.807 43.8479 178.098 44.5621 178.941 45.2665C179.887 46.0567 181.744 47.4926 182.65 48.308C183.292 48.8861 183.545 49.8586 183.936 50.714C184.453 51.8436 185.103 52.6184 185.55 53.1876C186.279 54.114 187.015 54.9817 187.673 55.8561C188.235 56.6027 188.928 57.1691 189.349 57.8919C189.842 58.7396 190.306 59.3144 191.29 60.1672C191.889 60.6856 192.219 61.2839 192.728 61.962C193.394 62.851 194.548 63.6892 195.328 64.4783C196.372 65.5331 197.243 66.1418 197.871 66.6676C198.444 67.1474 199.037 67.586 199.695 68.3515C200.397 69.1691 201.011 69.9493 201.49 70.5842C201.984 71.2381 202.626 71.9188 202.956 72.4446C203.399 73.1498 204.359 74.0615 204.899 74.7856C205.311 75.3372 205.558 75.9443 205.797 76.6237C206.179 77.7075 206.096 79.5759 206.187 80.4523C206.27 81.2544 206.634 82.1125 207.023 82.9692C207.423 83.8511 207.711 84.6544 207.951 85.2019C208.256 85.901 208.249 86.7971 208.281 87.6302C208.303 88.2109 208.012 88.8112 208.011 90.2535C208.01 91.0052 208.608 91.4817 208.818 92.0076C209.021 92.5162 209.146 93.0573 209.356 93.6921C209.548 94.2705 209.685 94.8954 209.924 95.4429C210.105 96.2517 210.164 96.9974 210.254 97.2594C210.284 97.3913 210.284 97.5213 210.463 97.6552" stroke="black" stroke-width="4.57453" stroke-linecap="round"/>
<path d="M121.466 30.038C124.871 33.2744 125.948 33.8009 126.667 34.1068C127.57 34.4915 131.719 35.8911 134.083 36.7544C135.256 37.1828 135.996 37.8264 137.131 38.5689C138.933 39.7479 140.898 41.0195 142.005 41.6543C144.208 42.9174 144.907 43.5587 145.805 44.1279C147.126 44.9656 148.492 45.7015 149.603 46.4039C150.428 46.9248 151.782 47.7575 152.655 48.4173C153.318 48.9193 154.119 49.467 154.897 49.9272C156.098 50.6382 156.99 51.3051 157.767 51.9833C158.789 52.8736 159.799 53.7971 160.549 54.3479C161.271 54.8777 161.895 55.6379 162.523 56.2727C163.036 56.7908 163.449 57.4314 163.929 58.0885C164.665 59.0967 165.125 59.6634 165.812 60.5601C166.749 61.7821 167.397 63.2031 168.086 64.608C168.516 65.485 169.133 66.1415 169.552 66.7323C170.254 67.7244 170.748 68.6361 171.137 69.2709C171.471 69.8174 171.825 70.3429 172.541 71.1957C173.061 71.8151 173.379 72.4436 173.828 73.0785C174.255 73.6813 174.753 74.673 175.293 75.6157C175.933 76.7327 176.131 78 176.222 78.7891C176.334 79.7615 176.67 80.5393 177.088 81.6323C177.523 82.7696 177.746 83.6457 177.956 84.2609C178.176 84.9059 178.345 85.7044 178.494 86.3826C178.68 87.2283 178.941 88.1964 179.391 89.2264C179.812 90.1928 179.96 91.6941 180.139 92.7504C180.246 93.3839 180.499 94.4093 180.648 95.1583C180.678 95.4203 180.796 95.6842 181.035 95.9461C181.155 96.0781 181.274 96.208 181.396 96.4733" stroke="black" stroke-width="4.57453" stroke-linecap="round"/>
<path d="M163.632 46.3188C165.882 47.0121 167.219 47.4125 167.666 47.4782C168.29 47.5005 168.893 47.5438 169.252 47.7395C169.374 47.8918 169.374 48.1517 169.374 48.4196" stroke="black" stroke-width="3.43089" stroke-linecap="round"/>
<path d="M183.19 69.952C183.664 71.4252 184.138 72.8983 184.411 73.7222C184.685 74.546 184.744 74.676 184.805 75.0725" stroke="black" stroke-width="3.43089" stroke-linecap="round"/>
<path d="M113.365 64.0625C114.357 63.2058 116.028 62.1594 120.928 60.6298C121.233 60.3173 121.35 60.9331 121.62 60.6921C122.126 60.2779 122.724 59.8407 123.748 59.6011C125.956 59.6241 126.715 59.7291 127.39 59.9963C128.109 60.2805 128.799 60.5826 129.693 60.8714C130.441 61.1129 131.312 61.4092 132.055 61.7031C132.774 61.9874 133.505 62.2341 134.239 62.6228C135.107 63.0824 135.878 63.3803 136.541 63.8045C137.26 64.264 137.976 64.6133 138.694 64.9638L138.694 64.9638C139.413 65.3144 140.269 65.6574 142.015 67.1545C142.883 67.8983 143.551 68.5258 143.926 69.0346C144.315 69.5605 144.726 70.0699 144.973 70.6102C145.212 71.136 145.385 71.7525 145.54 72.6682C145.689 73.5466 145.637 74.4242 145.479 75.0525C145.33 75.6447 145.496 76.4278 144.94 77.1316C144.491 77.7008 144.09 78.285 143.354 78.7281C142.513 79.2343 141.591 79.7847 140.842 80.1724C140.123 80.5446 139.071 81.0424 137.97 81.2437C137.012 81.419 134.739 81.4604 132.943 81.3961C131.091 81.3297 129.9 81.2195 128.85 81.1335C128.041 81.0672 127.094 80.9516 125.678 80.7612C124.692 80.6286 123.369 80.2901 122.361 79.9511C121.642 79.7096 120.845 79.3268 119.579 78.5712C118.771 78.0894 118.109 77.6154 117.302 76.9931C115.602 75.6814 115.121 74.9849 114.585 74.3468C113.869 73.4941 112.425 73.1615 111.623 71.0402C111.059 69.5473 111.037 68.2269 111.269 67.4985C111.479 66.84 112.107 65.1488 113.365 64.0625Z" fill="black" stroke="black" stroke-width="3.43089" stroke-linecap="round"/>
<path d="M64.2275 74.1532C64.2275 76.5795 64.2868 77.9594 64.5541 78.2863C64.7288 78.5 65.1175 78.7432 65.3894 78.8772C66.5137 79.4311 68.5303 78.9244 69.2489 78.7058C70.1893 78.4198 70.2672 77.3515 70.4771 76.7594C70.6963 76.1411 70.0303 75.5134 69.7612 74.9429C69.4847 74.357 68.9538 74.0232 68.6855 73.8262C67.9974 73.716 67.2815 73.5413 66.474 73.3877C66.2049 73.3654 65.8496 73.3654 65.3041 73.4967" stroke="black" stroke-width="3.43089" stroke-linecap="round"/>
<path d="M4.88306 93.1655C5.5936 93.1655 6.13728 93.1222 7.88673 93.0348C12.4102 92.8091 15.7063 92.9462 16.154 93.0119C17.1248 93.1542 21.4158 93.1655 25.0242 93.2745C28.8734 93.3907 31.8533 93.2535 32.7774 93.1445C34.671 92.9212 35.3827 92.8162 36.3992 92.7499C37.3643 92.687 38.4331 92.5536 43.6195 92.5307C45.6141 92.5218 47.1642 92.727 48.6283 92.7933C49.9834 92.8546 51.0506 92.9895 56.9548 93.0559C58.3526 93.0715 59.4803 93.1655 61.0638 93.1871C63.9032 93.226 67.5009 93.3834 68.7255 93.4497C69.8423 93.5102 70.9065 93.646 71.8081 93.7123C73.8836 93.8649 77.3696 93.7353 79.1298 93.669C81.4927 93.58 83.8865 93.646 86.4246 93.7123C88.316 93.7617 90.346 93.9086 91.3652 93.9749C92.3895 94.0416 93.6942 94.1712 94.7735 94.3248C96.5379 94.5759 99.6585 94.4784 101.8 94.5874C103.804 94.6894 105.117 94.8277 107.122 95.1119C108.06 95.2449 109.125 95.4395 110.086 95.5505C111.113 95.669 112.531 95.7914 113.823 95.9004C115.64 96.0536 116.959 96.054 118.071 96.1846C119.003 96.2942 120.311 96.4032 122.7 96.4695C125.506 96.5474 129.225 96.4925 130.628 96.4262C131.02 96.4077 131.375 96.3612 133.719 96.3389C136.063 96.3166 140.386 96.3166 142.79 96.2949C145.551 96.27 147.515 96.1853 150.026 96.1636C151.119 96.1542 153.608 96.054 157.373 96.0323C158.83 96.0239 159.362 95.9673 161.887 95.945C164.412 95.9227 168.912 95.9227 171.319 95.9443C173.726 95.966 173.903 96.0093 176.867 96.0317C179.83 96.054 185.574 96.054 188.621 96.0756C191.669 96.0973 191.847 96.1406 192.205 96.1629C192.562 96.1853 210.334 98 210.883 98" stroke="black" stroke-width="4.57453" stroke-linecap="round"/>
<path d="M3.88301 95.25C3.55301 95.415 4.37301 97.5625 6.78051 103.121C8.27988 106.583 10.013 111.485 11.0718 114.24" stroke="black" stroke-width="3.5" stroke-linecap="round"/>
<path d="M12.8831 116C14.1206 115.835 15.3581 115.67 18.1406 115.585C20.9231 115.5 25.2131 115.5 27.7943 115.541C30.3756 115.582 31.1181 115.665 31.8718 115.707C32.6256 115.75 33.3681 115.75 40.7218 115.956C48.0756 116.162 62.0181 116.575 69.3656 116.829C76.7131 117.082 77.0431 117.165 79.3168 117.207C85.7971 117.328 90.3806 117.332 91.0443 117.499C92.8421 117.949 93.8781 117.915 95.5018 118.207C96.781 118.438 101.263 118.5 104.127 118.292C106.378 118.129 109.688 118 112.501 118.207C114.628 118.364 117.113 118.5 120.532 118.707C124.82 118.968 128.128 118.667 129.909 118.542C133.25 118.308 135.631 118.582 136.789 118.707C141.107 119.173 145.758 119 149.084 118.792C151.379 118.649 154.688 118.5 157.003 118.707C157.871 118.785 158.631 118.832 161.109 118.957C167.54 119.282 172.213 119.082 173.208 119.207C176.274 119.592 177.958 119.665 180.623 119.791C181.55 119.835 184.523 120 188.688 120.041C192.374 120.078 195.878 120.415 197.294 120.541C198.477 120.646 199.628 120.915 201.252 121.041C202.721 121.155 204.378 121.415 206.002 121.541C207.164 121.631 207.881 122.082 208.256 122.084C208.383 122.002 208.383 121.755 208.383 121.751C208.383 121.747 208.383 121.995 208.383 122.25" stroke="black" stroke-width="3.5" stroke-linecap="round"/>
<path d="M209.883 97.75C209.966 97.8325 210.048 97.915 210.008 101.753C209.968 105.59 209.803 113.18 209.383 121.5" stroke="black" stroke-width="3.5" stroke-linecap="round"/>
<path d="M107.133 49.5L104.133 53.5" stroke="black" stroke-width="2" stroke-linecap="round"/>
<path d="M96.383 80C96.3005 80.7425 96.218 81.485 96.2992 81.95C96.3805 82.415 96.628 82.58 96.8792 82.6237C97.1305 82.6675 97.378 82.585 97.5055 82.3363C97.633 82.0875 97.633 81.675 97.5092 81.38C97.3855 81.085 97.138 80.92 96.883 80.75" stroke="black" stroke-width="2" stroke-linecap="round"/>
</g>
<path d="M7.81871 92.7051C8.95013 93.6749 11.4069 95.6145 12.1827 95.6145L44.1857 94.6447C78.7747 95.6145 148.147 97.5541 148.923 97.5541C149.698 97.5541 166.055 98.2006 174.137 98.5238L201.291 100.463V78.6432C200.806 77.9967 172.391 75.346 171.228 75.7339C169.773 76.2188 124.193 76.7037 123.223 76.7037C122.447 76.7037 105.444 74.7641 97.039 73.7943L71.3397 71.8547L40.7914 72.8245H14.6072H3.45468L2 75.249L7.81871 92.7051Z" fill="#A4700F"/>
<path d="M117.405 12.6979L123.708 18.0318L133.891 22.3958L155.226 35.9728L167.348 55.3685L174.622 74.2793L193.048 76.7038C195.957 77.1887 201.873 77.8675 202.261 76.7038C202.649 75.5401 200.806 67.8141 199.836 64.0966L196.442 53.9138L183.35 40.3368C180.441 36.6193 174.428 29.0873 173.652 28.6994C172.876 28.3115 163.308 17.8701 158.62 12.6979L143.104 4.45477L134.861 3.48499L118.859 8.33391L117.405 12.6979Z" fill="#EE9F0D"/>
<path d="M18.0015 63.1268L4.90942 72.8247C6.3641 72.8247 9.46742 72.9217 10.2432 73.3096C11.213 73.7945 27.2145 72.8247 28.1843 72.8247C28.9601 72.8247 66.9757 74.1177 85.8865 74.7642L113.525 75.734L165.894 75.2491C168.318 75.0875 173.264 74.6673 173.652 74.2794C174.04 73.8914 173.167 68.9455 172.682 66.5211L163.954 47.6102L153.771 35.4879L134.376 21.9109C130.497 19.8097 122.544 15.5103 121.769 15.1224C120.993 14.7345 118.859 12.3747 117.889 11.2433L110.616 13.1829L68.9153 33.0635C60.0256 38.2357 42.1492 48.871 41.7613 50.0347C41.3734 51.1985 25.7598 59.2477 18.0015 63.1268Z" fill="#FFCE59"/>
<path d="M4.0354 72.8827C5.64325 71.6221 8.19423 69.8382 10.8905 68.0773C12.011 67.3455 13.0752 66.692 15.5 65.1914C17.0269 64.2465 19.303 63.0606 20.5428 62.3698C22.8943 61.0597 24.7391 60.0251 25.9267 59.3884C27.1174 58.7501 28.5046 57.9904 29.4956 57.5199C30.6682 56.9632 31.3514 56.3326 32.7992 55.4635C34.1801 54.6347 35.5833 53.6179 36.8893 52.8947C38.1226 52.2117 39.0078 51.5781 39.9936 50.9211C40.2238 50.7677 40.3999 50.6868 41.7233 49.7612C43.0466 48.8355 45.5158 47.0707 46.874 46.1196C49.3525 44.3838 51.3625 43.0471 52.5214 42.2634C53.508 41.5963 54.6095 41.1372 55.624 40.5655C57.7358 39.3754 59.0746 38.7613 60.1204 38.2093C61.8955 37.2724 63.8321 36.1307 64.7604 35.6838C66.7056 34.7473 67.8343 33.9228 68.994 33.3708C70.7066 32.5558 72.5291 31.6742 73.8089 31.1C75.1804 30.4846 77.2238 29.5122 78.3923 29.0194C79.4254 28.5838 80.6483 28.025 82.8539 26.9847C84.1045 26.3949 85.6911 25.6923 88.7624 24.3987C92.0705 23.0053 94.6874 21.6573 95.875 21.1276C96.6947 20.762 98.3921 19.8785 100.768 18.7549C102.903 17.7455 104.258 17.0315 105.45 16.3936C106.355 15.9092 107.334 15.4602 108.091 15.1827C108.925 14.8764 109.771 14.187 110.527 13.5923C111.12 13.1253 111.918 12.7864 112.615 12.5508C113.252 12.3353 114.006 12.2338 114.703 11.9995C115.423 11.7573 116.094 11.4698 116.762 11.1088C117.424 10.7514 118.008 10.3238 118.878 9.96286C119.845 9.56171 120.733 9.17788 121.461 8.81691C122.378 8.36159 123.458 7.35454 124.822 6.67461C126.201 5.98644 127.172 5.52866 128.505 4.61699C129.402 4.00438 130.652 3.57545 131.581 3.34116C132.459 3.11978 133.147 3.02284 134.711 3.00056C135.597 2.98793 136.279 3.19092 137.121 3.33989C137.887 3.47563 138.715 3.5729 139.441 3.76389C140.333 3.99867 140.977 4.33687 141.703 4.63354C142.677 5.0318 143.762 5.22817 144.459 5.50383C145.246 5.81523 146.427 6.28754 147.56 6.98784C148.698 7.69124 150.026 8.4954 150.636 8.96206C151.487 9.61331 152.577 9.98005 153.824 10.8281C155.282 11.8196 157.042 12.9926 157.829 13.4402C158.647 13.9061 159.248 14.9026 160.119 15.6245C161.057 16.4034 161.511 17.0671 162.208 17.7471C162.904 18.427 163.599 19.1884 164.526 20.1224C165.777 21.3816 166.327 22.0762 166.934 22.7129C167.606 23.4167 168.412 23.9428 169.052 24.5171C169.766 25.1576 171.018 25.8502 171.836 26.5333C172.754 27.2996 174.554 28.6922 175.433 29.4829C176.056 30.0435 176.301 30.9866 176.681 31.8162C177.182 32.9117 177.812 33.6631 178.246 34.215C178.953 35.1134 179.667 35.955 180.305 36.803C180.849 37.527 181.522 38.0763 181.93 38.7772C182.408 39.5993 182.858 40.1568 183.813 40.9838C184.393 41.4866 184.713 42.0667 185.206 42.7244C185.853 43.5865 186.972 44.3994 187.729 45.1646C188.741 46.1876 189.585 46.7779 190.194 47.2878C190.75 47.7531 191.325 48.1785 191.963 48.9208C192.644 49.7137 193.24 50.4704 193.704 51.086C194.183 51.7202 194.806 52.3803 195.126 52.8902C195.555 53.5741 196.487 54.4583 197.01 55.1605C197.409 55.6954 197.649 56.2842 197.881 56.9431C198.252 57.9941 198.171 59.8061 198.259 60.656C198.339 61.4339 198.693 62.266 199.07 63.0969C199.458 63.9521 199.737 64.7311 199.969 65.2621C200.266 65.9401 200.259 66.8091 200.29 67.617C200.311 68.1802 200.029 68.7623 200.028 70.161C200.027 70.8901 200.607 71.3522 200.811 71.8621C201.008 72.3554 201.129 72.8801 201.333 73.4957C201.518 74.0567 201.651 74.6627 201.883 75.1937C202.058 75.978 202.116 76.7012 202.203 76.9552C202.232 77.0832 202.232 77.2093 202.406 77.3391" stroke="black" stroke-width="4.86472" stroke-linecap="round"/>
<path d="M116.098 11.765C119.4 14.9037 120.444 15.4142 121.141 15.7109C122.018 16.084 126.041 17.4413 128.333 18.2785C129.471 18.694 130.189 19.3181 131.29 20.0382C133.037 21.1815 134.943 22.4147 136.017 23.0304C138.153 24.2553 138.83 24.8773 139.701 25.4292C140.983 26.2416 142.307 26.9553 143.385 27.6365C144.184 28.1416 145.498 28.9492 146.344 29.589C146.987 30.0758 147.764 30.607 148.518 31.0533C149.684 31.7428 150.548 32.3896 151.302 33.0473C152.293 33.9107 153.273 34.8063 154 35.3404C154.7 35.8543 155.305 36.5914 155.915 37.2071C156.412 37.7095 156.812 38.3307 157.278 38.968C157.992 39.9457 158.438 40.4953 159.104 41.365C160.012 42.5501 160.641 43.9281 161.309 45.2905C161.726 46.1411 162.325 46.7777 162.73 47.3507C163.411 48.3127 163.891 49.1969 164.268 49.8126C164.592 50.3425 164.935 50.8522 165.629 51.6792C166.134 52.2799 166.442 52.8894 166.878 53.5051C167.292 54.0897 167.775 55.0515 168.299 55.9657C168.919 57.0489 169.111 58.278 169.199 59.0432C169.308 59.9862 169.633 60.7405 170.039 61.8005C170.461 62.9034 170.677 63.7531 170.881 64.3496C171.095 64.9751 171.259 65.7496 171.403 66.4072C171.583 67.2274 171.836 68.1663 172.272 69.1651C172.681 70.1023 172.825 71.5583 172.998 72.5826C173.102 73.197 173.347 74.1914 173.491 74.9178C173.521 75.1718 173.636 75.4278 173.867 75.6818C173.984 75.8098 174.099 75.9358 174.217 76.193" stroke="black" stroke-width="4.86472" stroke-linecap="round"/>
<path d="M156.99 27.554C159.172 28.2262 160.468 28.6146 160.902 28.6783C161.507 28.6999 162.092 28.7419 162.44 28.9316C162.558 29.0793 162.558 29.3315 162.558 29.5912" stroke="black" stroke-width="3.64854" stroke-linecap="round"/>
<path d="M175.957 50.473C176.417 51.9016 176.876 53.3303 177.141 54.1292C177.407 54.9282 177.464 55.0543 177.523 55.4388" stroke="black" stroke-width="3.64854" stroke-linecap="round"/>
<path d="M108.242 44.7613C109.204 43.9305 110.824 42.9157 115.576 41.4323C115.872 41.1293 115.985 41.7264 116.247 41.4928C116.739 41.0911 117.318 40.6671 118.311 40.4347C120.452 40.457 121.188 40.5589 121.843 40.8179C122.54 41.0936 123.209 41.3866 124.077 41.6666C124.802 41.9009 125.647 42.1882 126.367 42.4732C127.064 42.7489 127.773 42.9881 128.485 43.3651C129.326 43.8108 130.074 44.0997 130.718 44.5111C131.415 44.9567 132.109 45.2954 132.806 45.6354L132.806 45.6354C133.503 45.9754 134.333 46.308 136.027 47.7599C136.868 48.4812 137.515 49.0898 137.88 49.5832C138.257 50.0932 138.656 50.5872 138.894 51.1111C139.127 51.6211 139.295 52.219 139.445 53.107C139.59 53.9588 139.539 54.81 139.386 55.4193C139.241 55.9935 139.402 56.753 138.863 57.4355C138.427 57.9875 138.038 58.5541 137.325 58.9838C136.51 59.4747 135.615 60.0085 134.889 60.3845C134.192 60.7454 133.171 61.2282 132.104 61.4234C131.174 61.5934 128.97 61.6335 127.228 61.5711C125.432 61.5068 124.277 61.3999 123.259 61.3165C122.474 61.2522 121.556 61.1401 120.183 60.9555C119.227 60.8269 117.943 60.4986 116.966 60.1699C116.269 59.9356 115.495 59.5644 114.268 58.8317C113.485 58.3644 112.843 57.9047 112.06 57.3012C110.412 56.0292 109.944 55.3537 109.425 54.7349C108.731 53.9079 107.331 53.5854 106.553 51.5281C106.006 50.0804 105.984 48.7999 106.209 48.0935C106.413 47.4549 107.022 45.8148 108.242 44.7613Z" fill="#FA9200" stroke="black" stroke-width="3.64854" stroke-linecap="round"/>
<path d="M60.5886 54.5471C60.5886 56.9001 60.646 58.2383 60.9053 58.5553C61.0747 58.7625 61.4517 58.9984 61.7153 59.1283C62.8057 59.6655 64.7614 59.1742 65.4583 58.9622C66.3702 58.6848 66.4458 57.6488 66.6494 57.0745C66.8619 56.475 66.2161 55.8662 65.9551 55.3129C65.687 54.7447 65.172 54.421 64.9119 54.23C64.2446 54.1231 63.5503 53.9537 62.7672 53.8047C62.5062 53.7831 62.1617 53.7831 61.6327 53.9104" stroke="black" stroke-width="3.64854" stroke-linecap="round"/>
<path d="M3.0376 72.9848C3.72668 72.9848 4.25392 72.9428 5.95052 72.8581C10.3373 72.6392 13.5339 72.7722 13.968 72.8358C14.9094 72.9739 19.0708 72.9848 22.5702 73.0905C26.3031 73.2032 29.193 73.0701 30.0891 72.9644C31.9255 72.7479 32.6157 72.6461 33.6015 72.5818C34.5374 72.5208 35.5739 72.3914 40.6037 72.3692C42.538 72.3606 44.0412 72.5595 45.4611 72.6238C46.7752 72.6833 47.8103 72.8142 53.536 72.8785C54.8915 72.8937 55.9852 72.9848 57.5209 73.0058C60.2744 73.0435 63.7635 73.1962 64.9511 73.2605C66.0341 73.3191 67.0662 73.4508 67.9406 73.5151C69.9533 73.6631 73.334 73.5374 75.041 73.4731C77.3326 73.3868 79.654 73.4508 82.1154 73.5151C83.9497 73.563 85.9184 73.7055 86.9067 73.7698C87.9001 73.8344 89.1654 73.9601 90.212 74.1091C91.9231 74.3526 94.9495 74.2581 97.0263 74.3638C98.9698 74.4627 100.243 74.5968 102.187 74.8724C103.097 75.0014 104.13 75.1901 105.062 75.2977C106.058 75.4127 107.433 75.5314 108.686 75.637C110.448 75.7857 111.727 75.786 112.805 75.9127C113.709 76.019 114.978 76.1247 117.295 76.189C120.016 76.2645 123.623 76.2113 124.984 76.147C125.363 76.129 125.707 76.084 127.981 76.0623C130.254 76.0407 134.446 76.0407 136.778 76.0197C139.455 75.9955 141.36 75.9133 143.795 75.8923C144.855 75.8832 147.269 75.786 150.921 75.765C152.333 75.7569 152.849 75.702 155.298 75.6803C157.746 75.6587 162.11 75.6587 164.445 75.6797C166.779 75.7007 166.951 75.7427 169.825 75.7644C172.699 75.786 178.269 75.786 181.224 75.807C184.18 75.828 184.352 75.87 184.699 75.8917C185.046 75.9133 202.281 77.6732 202.813 77.6732" stroke="black" stroke-width="4.86472" stroke-linecap="round"/>
<path d="M2.06767 75.0067C1.74764 75.1667 2.54287 77.2493 4.87762 82.6401C6.33169 85.9975 8.01246 90.7512 9.03922 93.4229" stroke="black" stroke-width="3.72203" stroke-linecap="round"/>
<path d="M10.7959 95.1296C11.996 94.9696 13.1961 94.8095 15.8945 94.7271C18.593 94.6447 22.7534 94.6447 25.2566 94.6847C27.7599 94.7247 28.4799 94.8047 29.2109 94.8459C29.9419 94.8871 30.662 94.8871 37.7935 95.0871C44.9251 95.2872 58.4463 95.6872 65.5718 95.9333C72.6973 96.1794 73.0173 96.2594 75.2224 96.3006C81.5068 96.418 85.9519 96.4218 86.5955 96.583C88.3391 97.0197 89.3437 96.9867 90.9184 97.2704C92.1589 97.4938 96.5055 97.554 99.2828 97.3528C101.466 97.1946 104.676 97.0691 107.404 97.2704C109.467 97.4226 111.877 97.554 115.192 97.7553C119.351 98.0077 122.559 97.7165 124.286 97.5952C127.526 97.3679 129.835 97.634 130.958 97.7553C135.146 98.207 139.656 98.0389 142.882 97.8377C145.108 97.6988 148.316 97.554 150.561 97.7553C151.403 97.8307 152.14 97.8765 154.544 97.9977C160.78 98.3122 165.312 98.1189 166.277 98.2402C169.25 98.6137 170.883 98.6838 173.468 98.8063C174.367 98.8489 177.25 99.0087 181.289 99.0487C184.863 99.0841 188.262 99.4112 189.635 99.5336C190.782 99.6358 191.898 99.8961 193.473 100.018C194.898 100.129 196.505 100.381 198.08 100.503C199.207 100.591 199.902 101.028 200.265 101.029C200.389 100.951 200.389 100.711 200.389 100.707C200.389 100.703 200.389 100.943 200.389 101.191" stroke="black" stroke-width="3.72203" stroke-linecap="round"/>
<path d="M201.844 77.431C201.924 77.511 202.004 77.591 201.965 81.3126C201.926 85.0342 201.766 92.3948 201.359 100.463" stroke="black" stroke-width="3.72203" stroke-linecap="round"/>
<path d="M102.198 30.639L99.2888 34.5182" stroke="black" stroke-width="2.12687" stroke-linecap="round"/>
<path d="M91.7728 60.2175C91.6928 60.9376 91.6127 61.6577 91.6915 62.1086C91.7703 62.5596 92.0104 62.7196 92.254 62.762C92.4977 62.8044 92.7377 62.7244 92.8613 62.4832C92.985 62.242 92.985 61.8419 92.865 61.5558C92.745 61.2697 92.5049 61.1097 92.2577 60.9449" stroke="black" stroke-width="2.12687" stroke-linecap="round"/>
<path d="M47.8225 88.8262L54.8535 86.1593" stroke="black" stroke-width="2.12687" stroke-linecap="round"/>
<path d="M156.681 86.6442L163.227 88.0988" stroke="black" stroke-width="2.12687" stroke-linecap="round"/>
</svg>
