<svg width="224" height="208" viewBox="0 0 224 208" fill="none" xmlns="http://www.w3.org/2000/svg">
<g opacity="0.3">
<path d="M61.0082 151.686L67.2725 163.251C76.1067 159.396 93.8714 151.686 94.2569 151.686C94.6424 151.686 116.905 138.515 127.987 131.93L152.563 121.329L192.557 103.018L208.941 94.3443C210.868 91.935 214.82 87.02 215.205 86.6345C215.687 86.1526 194.967 75.0697 194.003 74.106C193.039 73.1423 151.599 53.3858 150.153 53.3858C148.997 53.3858 132.324 41.821 124.133 36.0387L106.785 29.7744L85.1015 42.7848L68.7181 57.7226C65.0238 62.5412 57.5388 72.1785 57.1533 72.1785C56.7678 72.1785 54.4227 80.2096 53.2984 84.2252L46.5523 95.7899L45.1067 105.909C45.4279 110.888 46.1668 121.136 46.5523 122.292C46.9378 123.449 49.9253 131.448 51.3709 135.303L61.0082 151.686Z" fill="black"/>
<path d="M43.6612 193.127C43.6612 193.898 46.2312 200.194 47.5161 203.246V205.655C51.0498 204.691 58.3099 202.667 59.0809 202.282C60.0446 201.8 91.8477 189.272 92.3296 189.272C92.7151 189.272 114.335 179.634 125.096 174.816L140.516 168.07L151.599 158.914L194.003 140.603L208.459 131.93L220.988 119.883C220.666 114.743 220.024 104.367 220.024 103.982C220.024 103.596 218.739 95.7898 218.096 91.9349L214.723 89.0437L186.775 103.018L145.335 122.774L105.34 144.458C95.7026 149.598 76.3317 159.974 75.9462 160.36C75.5607 160.745 59.7234 168.873 51.8529 172.888L40.77 175.779C41.7337 181.241 43.6612 192.356 43.6612 193.127Z" fill="black"/>
<path d="M10.8942 111.692C11.858 109.764 12.8217 101.091 13.3036 100.609V112.655C13.3036 113.041 12.6611 116.992 12.3398 118.92C13.4642 125.826 15.8092 139.736 16.1947 140.122C16.6766 140.603 25.832 155.541 25.832 156.023C25.832 156.505 38.8424 175.78 39.3243 175.78C39.8061 175.78 47.516 203.728 47.9978 203.728C48.4797 203.728 46.5522 205.655 46.0704 205.655C45.5885 205.655 39.3243 203.246 38.8424 203.246C38.4569 203.246 32.5781 195.857 29.687 192.163L21.9771 182.526L13.3036 164.697C11.5367 156.023 8.00304 138.483 8.00304 137.712C8.00304 136.749 7.03931 124.22 7.03931 122.293C7.03931 120.365 9.9305 113.619 10.8942 111.692Z" fill="black"/>
<path d="M17.6402 139.158C20.0495 144.458 24.8682 155.156 24.8682 155.541L35.9511 172.888C37.3967 173.692 40.4806 175.298 41.2516 175.298C42.0226 175.298 49.2827 173.692 52.8164 172.888L66.3086 164.697C66.4692 163.733 66.6941 161.709 66.3086 161.324C65.9231 160.938 59.7231 149.598 56.6713 143.977C54.1013 139.64 48.9614 130.87 48.9614 130.484C48.9614 130.099 47.3552 117.153 46.5521 110.728L46.0703 98.6813C47.8371 94.1839 51.3708 85.0927 51.3708 84.7072C51.3708 84.2253 61.0081 66.8782 61.4899 66.3963C61.9718 65.9144 66.7904 60.1321 67.7542 59.6502C68.7179 59.1683 78.3552 50.9766 80.2827 49.0492C82.2101 47.1217 94.7386 37.0025 95.2205 37.0025C95.7023 37.0025 104.858 29.7746 105.34 29.2927C105.725 28.9072 95.9834 25.5984 91.0644 23.9922H80.7645C77.0702 26.2409 69.5853 30.8347 69.1998 31.2202C68.7179 31.702 52.3345 41.8212 51.8526 41.8212C51.3708 41.8212 41.7335 52.9041 42.2153 53.386C42.6008 53.7714 30.49 68.645 24.3863 76.0336L14.2672 95.3082L12.3397 104.946L11.8578 115.065L11.376 121.329L13.3034 128.557L17.6402 139.158Z" fill="black"/>
<path d="M148.506 85.8562C149.843 85.4095 151.675 84.8237 154.613 84.7819C156.165 84.7414 157.964 84.7219 158.592 84.9515C159.285 85.2045 160.282 85.6608 161.447 86.6407C162.401 87.4442 163.617 88.1743 163.576 88.8784C163.487 90.3974 163.346 91.3625 163.027 91.9127C162.394 93.0054 160.915 94.5961 160.083 95.4909L160.058 95.5182L160.043 95.534C159.434 96.1892 158.609 97.077 156.942 97.7332C155.114 98.4525 153.065 99.0684 152.068 99.0592C149.646 99.0371 147.735 99.1493 146.25 98.4456C145.271 97.9818 144.497 97.6272 143.744 97.0537C143.023 96.5039 142.232 95.741 141.497 94.6274C141.066 93.9733 140.357 91.9019 141.155 90.7049C141.647 89.9672 142.048 89.2245 144.445 87.8997C145.745 87.181 147.241 86.2786 148.506 85.8562Z" fill="black" stroke="black" stroke-width="3.64854" stroke-linecap="round"/>
<path d="M92.8833 57.5967C94.0376 57.069 94.9558 56.7337 101.352 54.9205C102.619 54.8566 105.656 54.9305 106.634 54.9414C108.618 54.9635 110.001 55.0632 111.212 55.1527C112.077 55.2166 112.77 55.2915 113.489 55.4273C114.384 55.5962 115.575 55.7973 116.399 56.1656C117.209 56.5275 118.423 57.158 119.08 57.7492C119.973 58.552 120.22 59.3215 120.403 59.8572C120.605 60.45 120.882 61.5399 120.864 62.4764C120.834 64.0334 120.802 64.5516 120.546 65.2564L120.531 65.2967C120.295 65.9456 119.828 67.2334 118.785 67.9344C117.361 68.8923 115.363 70.3713 114.144 71.0984C113.049 71.7519 112.194 72.3477 110.802 72.8262C109.877 73.1438 108.673 73.6867 107.366 73.9663C104.513 74.5761 101.979 74.6572 100.629 74.554C99.7924 74.4901 98.4419 74.679 95.0016 73.4544C92.9274 72.7161 91.4677 72.4857 89.8995 71.4476C87.2244 69.6768 85.9373 68.8474 85.3836 67.2537C85.0974 66.4299 85.2681 65.6053 85.9067 64.3428C86.1938 63.7753 87.0519 62.1084 89.0539 60.3532C90.6379 58.9645 91.7129 58.1317 92.8833 57.5967Z" fill="black" stroke="black" stroke-width="3.64854" stroke-linecap="round"/>
<path d="M76.0383 109.746C76.8537 109.373 77.5023 109.136 82.021 107.855C82.9158 107.81 85.0614 107.862 85.7523 107.87C87.1541 107.885 88.1309 107.956 88.9865 108.019C89.5973 108.064 90.0867 108.117 90.5947 108.213C91.2269 108.332 92.0682 108.475 92.6506 108.735C93.2229 108.99 94.0805 109.436 94.5447 109.853C95.175 110.421 95.35 110.964 95.4792 111.343C95.6221 111.761 95.8176 112.531 95.8047 113.193C95.7834 114.293 95.7611 114.659 95.58 115.157C95.4169 115.605 95.0882 116.543 94.3364 117.049C93.3304 117.725 91.9186 118.77 91.0577 119.284C90.2838 119.745 89.6801 120.166 88.6963 120.504C88.0434 120.729 87.1925 121.112 86.2691 121.31C84.254 121.74 82.4635 121.798 81.5098 121.725C80.9191 121.68 79.965 121.813 77.5347 120.948C76.0694 120.426 75.0382 120.264 73.9304 119.53C72.0406 118.279 71.1314 117.693 70.7403 116.568C70.5381 115.986 70.6586 115.403 71.1098 114.511C71.3126 114.11 71.9188 112.933 73.3331 111.693C74.452 110.712 75.2115 110.124 76.0383 109.746Z" fill="black" stroke="black" stroke-width="3.64759" stroke-linecap="round"/>
<path d="M115.705 83.3904C113.993 85.3112 113.111 86.426 113.168 86.6784C113.231 86.9564 113.628 87.1016 113.973 87.2067C115.176 87.5728 118.226 87.1054 119.65 86.6815C120.548 86.4144 121.007 85.6706 121.238 85.1638C121.469 84.657 121.699 84.1522 121.872 83.6454C122.046 83.1389 121.47 82.6338 121.182 82.1688C120.895 81.7043 118.489 81.872 116.948 82.1441C116.632 82.3326 116.176 82.6667 115.798 82.9431C115.42 83.2196 115.135 83.4284 114.841 83.6435" stroke="black" stroke-width="3.64854" stroke-linecap="round"/>
<path d="M73.339 38.5981L71.7827 44.5452" stroke="black" stroke-width="3.64854" stroke-linecap="round"/>
<path d="M47.9193 65.8025C46.3785 67.6815 44.8378 69.5605 43.987 70.5911C43.1362 71.6217 43.0221 71.747 42.8777 71.8742C42.7333 72.0013 42.5621 72.1266 42.3857 72.2557" stroke="black" stroke-width="3.64854" stroke-linecap="round"/>
<path d="M31.8374 137.926C34.3482 139.763 36.8591 141.601 38.2381 142.631C39.6172 143.66 39.7884 143.828 39.9051 143.976C40.0218 144.125 40.0789 144.25 40.3106 144.506" stroke="black" stroke-width="3.64854" stroke-linecap="round"/>
<path d="M216.001 88.8313C213.376 90.4598 210.751 92.0883 208.571 93.2821C204.861 95.3139 202.86 95.9589 202.344 96.1266C200.733 96.6498 199.697 97.557 198.112 98.4643C196.07 99.6322 194.216 100.345 193.355 100.701C192.11 101.217 191.217 101.653 190.073 102.008C187.497 102.808 185.684 103.551 183.826 104.324C182.164 105.016 179.171 106.475 177.3 107.373C174.779 108.583 173.811 109.075 172.721 109.557C170.766 110.423 169.315 111.226 167.512 112.043C166.033 112.712 163.484 113.986 162.047 114.673C160.397 115.462 158.435 116.365 155.612 117.755C153.393 118.849 152.486 119.28 151.533 119.683C149.079 120.719 146.607 122.36 145.395 123.034C143.86 123.889 142.629 124.678 141.217 125.48C139.517 126.447 137.625 127.583 135.483 128.854C133.562 129.994 132.828 130.375 131.619 131.069C130.271 131.844 129.083 132.399 127.356 133.409C126.037 134.18 123.279 135.299 121.416 136.342C119.635 137.339 118.475 138.093 117.209 138.956C116.467 139.461 115.709 139.822 114.758 140.265C113.304 140.944 112.368 141.803 111.07 142.689C109.945 143.456 108.965 143.997 107.644 144.734C104.395 146.544 102.802 147.117 101.071 147.688C98.9424 148.39 96.746 149.481 95.8519 149.861C94.4001 150.477 93.118 151.123 91.8462 151.821C90.8332 152.377 90.002 152.854 88.763 153.487C87.6342 154.063 86.8893 154.542 85.4506 155.174C83.4333 156.059 82.338 156.481 81.0108 157.24C79.1711 158.292 77.6138 159.179 76.6272 159.688C75.8439 160.093 74.5565 160.823 73.659 161.438C72.813 162.018 70.7591 162.848 69.5088 163.379C68.5461 163.788 67.809 164.285 67.0879 164.539C66.1003 164.887 65.274 165.508 62.9438 167.128C62.0382 167.758 61.2379 168.081 60.2298 168.545C59.3 168.973 58.6441 169.43 57.9515 169.727C57.1738 170.06 56.569 170.569 55.8765 170.845C55.1846 171.12 54.4939 171.371 53.7729 171.709C52.9436 172.098 52.2459 172.51 51.5534 172.743C50.8115 172.992 50.1709 173.396 49.4783 173.629C48.692 173.893 47.5805 174.365 46.683 174.599C45.8905 174.806 45.1561 174.831 44.4635 175C43.771 175.169 42.7386 175.253 41.5558 175.358C40.2783 175.472 39.275 175.296 38.93 175.128C38.0769 174.712 37.3158 173.991 36.4235 172.917C36.2194 172.64 36.1053 172.432 35.59 171.677C35.0747 170.922 34.1616 169.628 33.2209 168.294" stroke="black" stroke-width="4.86472" stroke-linecap="round"/>
<path d="M216.692 87.566C214.102 86.2602 213.064 85.7541 210.821 84.1351C209.756 83.3662 208.285 82.5933 206.669 81.7069C205.164 80.8815 204.65 80.3132 203.726 79.7444C202.83 79.1921 201.655 78.6277 200.068 78.0147C198.937 77.5775 197.273 77.0663 196.319 76.7905C195.254 76.4822 194.043 75.8845 192.748 75.2107C191.757 74.6957 191.103 74.2396 190.41 73.7967C189.736 73.3652 188.398 72.9337 187.356 72.384C186.659 72.0166 185.746 71.2483 184.877 70.7175C184.137 70.2655 183.321 69.8539 182.198 69.3472C181.128 68.8644 179.351 67.875 176.728 66.3774C174.977 65.3779 173.416 64.5851 171.823 63.8221C171.01 63.433 170.01 62.8111 167.505 60.9593C166.192 59.9884 165.337 59.6883 164.416 59.4555C163.199 59.1482 162.055 58.4685 160.871 57.6226C159.804 56.8606 158.479 56.1454 157.671 55.7866C156.643 55.3304 155.827 55.0066 155.049 54.5219C153.98 53.8567 153.233 53.4882 152.34 52.9827C151.193 52.3334 150.352 51.5927 149.172 50.7696C146.598 48.9746 143.608 48.4699 142.283 47.8587C140.573 47.0693 140.264 46.2353 139.514 45.5596C138.689 44.8159 137.729 44.5043 136.176 43.6641C133.219 42.0646 132.887 41.2575 131.418 40.5407C129.962 39.8301 127.931 38.8534 126.518 38.3675C125.407 37.9852 124.185 37.335 122.887 36.6188C121.302 35.7447 120.723 35.3104 120.002 35.0346C119.03 34.6627 118.015 34.1286 116.92 33.6649C115.89 33.2288 115.076 32.9063 114.324 32.6305C113.595 32.3626 112.942 31.9776 112.249 31.6397C111.557 31.3019 110.753 30.8818 109.973 30.5009C109.178 30.1126 108.446 29.91 107.753 29.7202C106.968 29.5051 106.198 29.1938 105.505 28.961C104.763 28.7116 104.123 28.3081 103.43 28.0753C102.367 27.7178 101.01 27.1693 100.318 26.9574C99.6256 26.7456 98.935 26.4101 98.099 26.0723C97.3745 25.7795 96.687 25.6079 95.9945 25.3339C95.3019 25.1435 94.7832 25.017 94.4382 24.9328C94.2644 24.8904 94.0932 24.8487 93.7439 24.9322" stroke="black" stroke-width="4.86472" stroke-linecap="round"/>
<path d="M93.9167 24.9321C87.9284 23.4149 86.1974 23.1606 85.1028 23.0556C82.6978 22.8248 79.6921 24.1248 77.9845 24.9504C76.4761 25.6797 75.7633 26.3644 75.043 26.9326C73.298 28.3091 71.959 29.3582 71.4099 29.8441C70.7864 30.3959 69.7697 31.1701 68.9899 31.868C68.266 32.5156 67.463 33.0276 66.3398 33.6603C65.0651 34.3784 63.9457 35.4318 62.4508 36.5478C61.6026 37.181 60.6048 37.7094 58.969 38.8001C55.7596 40.94 53.6862 42.8137 53.1397 43.1712C52.1643 43.8092 51.6682 44.2891 49.37 46.0555C47.5579 47.4483 46.6534 48.4647 45.2449 49.916C43.9412 51.2594 42.8525 52.4682 40.7507 54.5332C39.6475 55.617 38.5295 56.8968 37.9493 57.6801C37.0842 58.8481 36.3921 59.473 35.6736 60.4417C35.0235 61.3181 34.0335 62.3782 33.5104 63.1849C32.9579 64.0369 32.0172 65.6225 31.3497 66.7265C30.4364 68.2371 29.7657 69.13 28.9582 70.563C28.446 71.4719 27.8048 72.5464 27.0846 73.5593C26.3647 74.5718 25.6709 76.1324 24.0048 79.0344C23.2934 80.2736 22.7347 81.3177 21.6124 83.2524C20.1354 85.7986 19.1569 87.6064 19.0134 87.943C18.631 88.8397 17.7787 90.5091 17.3127 91.4017C16.7741 92.4335 16.1601 93.804 15.6422 94.8377C15.2742 95.5724 15.0638 96.1676 14.4612 97.7663C14.0673 98.8112 13.9122 99.584 13.7098 100.427C13.5392 101.137 13.5075 101.735 13.364 102.346C13.124 103.368 13.1617 104.387 13.0181 105.299C12.8955 106.078 12.8158 107.421 12.6723 108.922C12.4243 111.515 12.8158 112.612 12.9593 114.004C13.233 116.66 12.8158 117.59 12.6438 118.731C12.4647 119.919 12.297 121.841 12.4976 123.056C12.6639 124.063 13.5628 125.098 13.8525 126.26C14.1388 127.408 14.1404 128.434 14.2563 129.171C14.4407 130.344 14.7733 130.921 15.0915 131.723C15.4101 132.526 15.5238 133.282 15.7261 134.022C15.9364 134.791 15.9284 135.476 16.072 136.194C16.2397 137.032 16.3884 137.711 16.4757 138.345C16.6109 139.327 17.0801 140.328 17.196 141.044C17.3836 142.204 17.8859 143.109 18.2326 143.786C18.6491 144.6 19.2693 145.136 19.5875 145.664C19.6739 145.812 19.7881 145.979 19.9895 146.357C20.191 146.735 20.4763 147.32 20.7703 148.175" stroke="black" stroke-width="4.86472" stroke-linecap="round"/>
<path d="M106.54 29.6138C102.888 31.7433 99.2359 33.8729 96.9836 35.1996C93.0351 37.5254 92.2498 38.0459 91.642 38.5748C91.5101 38.6895 91.3264 38.7646 89.8972 39.8933C88.468 41.022 85.7859 43.1933 84.0619 44.6876C82.3378 46.182 81.6531 46.9336 80.3873 48.0515C77.3958 50.6935 75.2999 52.2619 74.8131 52.6814C72.5575 54.625 70.6344 56.3502 69.5389 57.2365C68.3533 58.1959 67.7501 58.9239 67.2598 59.5363C66.9164 59.9653 65.7978 61.4874 64.2423 63.4689C62.9752 65.0831 62.1577 66.4323 61.4963 67.3592C60.8349 68.286 59.9097 69.4691 59.135 70.6668C57.2624 73.5617 56.7971 75.2871 56.5663 75.9647C56.0174 77.5757 54.6667 80.0954 53.8306 81.8649C53.2474 83.0993 52.7645 84.1849 52.5311 84.9485C52.2803 85.7688 51.8411 86.5916 51.5809 87.3514C51.3098 88.1429 50.7448 88.8704 50.5148 89.3759C50.3516 89.7346 49.083 91.806 47.3832 94.9883C46.178 97.2446 46.0759 98.2326 45.96 99.0133C45.9131 99.3293 45.7888 99.8295 45.73 101.298C45.6712 102.768 45.6712 105.189 45.6998 106.541C45.7452 108.695 45.9583 109.79 46.0456 110.487C46.1544 111.354 46.3041 112.361 46.3915 113.984C46.452 115.109 46.65 116.367 46.8523 117.298C47.0163 118.052 47.0546 119.065 47.1982 120.417C47.3682 122.018 47.5146 123.2 47.7455 124.32C47.8902 125.022 48.1475 126.024 48.4086 126.789C48.5915 127.325 48.7251 128.094 49.013 128.897C49.4439 130.097 49.7626 130.921 50.1655 131.764C50.7134 132.911 51.433 133.998 51.9518 135.431C52.6015 137.226 53.3905 138.804 53.8263 139.695C54.1373 140.331 54.4869 141.001 55.3229 142.601C55.9827 143.864 57.0219 144.923 57.6297 145.747C58.2037 146.525 58.7546 147.16 59.3002 147.959C60.6371 149.918 60.7709 150.744 61.0891 151.483C61.4831 152.399 61.8672 153.234 62.0981 153.846C62.2998 154.38 62.5589 154.879 62.7898 155.512C63.0534 156.234 63.4235 156.987 63.6544 157.558C63.9008 158.167 64.1152 158.675 64.3746 159.182C64.6886 159.795 65.4398 160.403 65.7294 160.953C65.9992 161.465 66.3632 161.965 66.7376 162.471C66.9016 162.758 67.1676 163.39 66.9408 162.726" stroke="black" stroke-width="4.86472" stroke-linecap="round"/>
<path d="M20.9429 148.176C24.3996 154.668 25.0896 155.679 25.4665 156.272C25.8854 156.931 26.6459 158.164 27.2814 159.265C27.8973 160.332 29.2916 162.547 30.2781 163.631C31.1514 164.591 31.8924 165.635 32.2391 166.162C32.666 166.812 33.1028 167.28 33.3925 168.038C33.5075 168.459 33.5663 168.799 33.5948 169.052C33.6233 169.179 33.6804 169.304 33.9121 169.686" stroke="black" stroke-width="4.86472" stroke-linecap="round"/>
<path d="M216.958 88.321C217.76 90.8846 218.24 93.6071 218.96 97.962C219.442 100.874 219.84 105.259 220.125 107.67C220.554 111.297 220.813 112.891 221.213 115.536C221.468 117.219 221.536 118.51 221.336 119.678C221.288 119.959 221.295 120.278 221.176 120.402C221.056 120.526 220.818 120.447 220.536 120.207C220.254 119.968 219.936 119.57 219.608 119.16" stroke="black" stroke-width="3.72203" stroke-linecap="round"/>
<path d="M40.1135 176.02C40.4316 177.928 40.8339 179.468 41.7916 182.975C42.5916 185.904 43.7034 191.252 44.5961 194.95C45.4887 198.649 46.0453 200.557 46.3717 201.659C46.6982 202.761 46.7777 203 46.8596 202.764" stroke="black" stroke-width="3.72203" stroke-linecap="round"/>
<path d="M50.2329 203.969C54.6444 203.166 56.7284 202.687 58.739 202.283C59.9472 202.041 61.5471 201.723 64.0335 201.121C65.0809 200.867 66.6645 200.364 71.2603 198.33C75.8561 196.295 83.4093 192.717 87.4594 190.834C91.8017 188.815 93.1888 188.313 94.9933 187.511C98.3762 186.007 102.429 184.135 104.275 183.492C105.467 183.077 106.524 182.608 109.371 181.286C110.967 180.545 112.789 180.198 116.035 179.037C117.919 178.363 119.617 177.389 123.181 175.546C124.212 175.013 126.984 173.703 130.959 171.937C133.409 170.848 135.272 169.602 137.282 168.476C139.39 167.294 140.973 166.629 142.945 165.504C144.725 164.488 147.155 162.779 150.087 160.37C152.894 158.063 154.388 157.714 155.636 157.189C157.416 156.44 159.207 155.864 161.015 155.142C162.703 154.469 164.666 153.778 166.276 152.895C168.578 151.631 170.453 151.045 172.537 149.884C174.38 148.857 176.231 148.236 178.242 147.233C179.514 146.598 182.086 145.509 184.106 144.541C185.146 144.044 186.432 143.418 188.04 142.574C189.774 141.665 191.415 140.926 193.738 139.725C195.788 138.666 198.546 137.322 200.728 136.27C203.873 134.754 205.066 133.78 206.113 133.337C207.123 132.909 209.311 130.903 210.931 129.323C212.052 128.229 213.58 126.875 214.744 125.911C216.825 124.188 217.435 122.861 218.36 122.014C218.722 121.575 218.965 121.011 218.927 120.37C218.809 120.047 218.491 119.729 218.163 119.401" stroke="black" stroke-width="3.72203" stroke-linecap="round"/>
<path d="M19.6344 86.6345C17.8684 89.7642 14.093 96.8754 13.3702 98.1993C12.3868 100.001 11.1223 102.295 10.479 103.982C9.43294 106.724 9.27433 108.714 8.87438 110.36C8.48216 111.975 7.99257 115.05 7.62876 117.864C7.22596 120.98 7.34687 124.514 7.1469 127.7C6.80666 133.122 7.34687 134.252 7.74682 136.579C8.03492 138.254 8.06967 139.553 8.3094 141.359C8.56048 143.25 8.86956 145.803 9.27313 147.746C9.70266 149.814 10.0742 151.918 10.3971 153.526C11.004 156.549 11.5198 158.1 11.9631 159.632C12.4886 161.449 13.4473 164.123 14.1701 166.054C15.1657 168.714 16.1795 170.392 16.7408 171.439C17.269 172.424 17.7841 173.524 18.2274 174.571C18.7522 175.811 19.6296 177.538 20.1548 178.667C20.6178 179.662 21.1571 180.752 21.6004 181.799C22.0284 182.81 22.6027 183.726 23.2063 184.69C23.35 184.92 23.4074 185.171 23.5677 185.334C24.2278 186.004 25.412 185.976 27.1371 187.659C28.1477 188.645 28.785 189.908 29.3103 190.955C29.8401 192.011 30.6354 192.881 31.1968 193.846C31.78 194.848 32.481 195.931 33.1242 196.978C33.691 197.9 35.2854 198.899 36.4961 199.87C37.3877 200.585 38.3404 201.714 39.3873 202.681C40.1798 203.413 41.3135 203.646 42.2785 204.007C43.4393 204.442 44.6866 205.009 45.731 205.213C47.0983 205.494 47.8211 205.655 48.3018 205.576C48.5439 205.496 48.7824 205.337 49.0282 205.173" stroke="black" stroke-width="4.78547" stroke-linecap="round"/>
<path d="M149.497 159.396C151.405 155.58 153.313 151.763 155.41 148.605C159.297 142.747 162.185 140.365 162.545 139.963C162.984 139.721 163.389 139.321 163.63 138.72C163.712 138.437 163.712 138.199 163.712 137.953" stroke="black" stroke-width="3.19031" stroke-linecap="round"/>
<path d="M178.65 128.798L179.855 124.943" stroke="black" stroke-width="3.19031" stroke-linecap="round"/>
<path d="M75.2898 182.526C76.4029 181.412 78.5665 179.487 81.0951 177.28C82.0335 176.425 82.272 176.107 82.5142 175.904C82.7563 175.7 82.9948 175.62 83.4815 175.057" stroke="black" stroke-width="3.19031" stroke-linecap="round"/>
<path d="M137.45 66.8779C137.927 67.2755 138.405 67.673 138.77 67.9176C139.135 68.1621 139.373 68.2416 139.615 68.3621C139.857 68.4825 140.096 68.6416 140.583 69.0463" stroke="black" stroke-width="3.19031" stroke-linecap="round"/>
<path d="M120.103 115.305V115.787" stroke="black" stroke-width="3.19031" stroke-linecap="round"/>
</g>
<path d="M56.9689 131.658L63.2332 143.222C72.0674 139.368 89.8321 131.658 90.2176 131.658C90.6031 131.658 112.865 118.487 123.948 111.901L148.523 101.3L188.518 82.9893L204.901 74.3158C206.829 71.9064 210.78 66.9914 211.166 66.6059C211.648 66.1241 190.927 55.0412 189.964 54.0774C189 53.1137 147.56 33.3572 146.114 33.3572C144.957 33.3572 128.285 21.7925 120.093 16.0101L102.746 9.74585L81.0622 22.7562L64.6788 37.694C60.9845 42.5127 53.4995 52.15 53.114 52.15C52.7285 52.15 50.3834 60.1811 49.2591 64.1966L42.513 75.7614L41.0674 85.8805C41.3886 90.8598 42.1275 101.107 42.513 102.264C42.8985 103.42 45.886 111.419 47.3316 115.274L56.9689 131.658Z" fill="#FFA13C"/>
<path d="M39.6217 173.098C39.6217 173.869 42.1916 180.165 43.4766 183.217V185.626C47.0103 184.663 54.2704 182.639 55.0413 182.253C56.0051 181.772 87.8082 169.243 88.29 169.243C88.6755 169.243 110.295 159.606 121.057 154.787L136.477 148.041L147.559 138.886L189.964 120.575L204.419 111.901L216.948 99.8545C216.627 94.7146 215.984 84.3384 215.984 83.953C215.984 83.5675 214.699 75.7612 214.057 71.9063L210.684 69.0151L182.736 82.9892L141.295 102.746L101.3 124.43C91.6631 129.57 72.2921 139.946 71.9066 140.331C71.5211 140.717 55.6838 148.844 47.8134 152.86L36.7305 155.751C37.6942 161.212 39.6217 172.327 39.6217 173.098Z" fill="#A75600"/>
<path d="M6.85492 91.663C7.81865 89.7355 8.78238 81.0619 9.26424 80.5801V92.6267C9.26424 93.0122 8.62176 96.9635 8.30051 98.8909C9.42487 105.798 11.7699 119.708 12.1554 120.093C12.6373 120.575 21.7927 135.513 21.7927 135.995C21.7927 136.476 34.8031 155.751 35.285 155.751C35.7668 155.751 43.4767 183.699 43.9585 183.699C44.4404 183.699 42.5129 185.627 42.0311 185.627C41.5492 185.627 35.285 183.217 34.8031 183.217C34.4176 183.217 28.5388 175.829 25.6477 172.134L17.9378 162.497L9.26424 144.668C7.49741 135.995 3.96373 118.455 3.96373 117.684C3.96373 116.72 3 104.191 3 102.264C3 100.337 5.89119 93.5904 6.85492 91.663Z" fill="#763D00"/>
<path d="M13.6009 119.129C16.0102 124.43 20.8289 135.127 20.8289 135.513L31.9118 152.86C33.3574 153.663 36.4413 155.269 37.2123 155.269C37.9833 155.269 45.2434 153.663 48.7771 152.86L62.2693 144.668C62.4299 143.704 62.6548 141.681 62.2693 141.295C61.8838 140.91 55.6838 129.57 52.632 123.948C50.062 119.611 44.9221 110.841 44.9221 110.456C44.9221 110.07 43.3159 97.1242 42.5128 90.6993L42.0309 78.6527C43.7978 74.1553 47.3315 65.0641 47.3315 64.6786C47.3315 64.1968 56.9688 46.8496 57.4506 46.3677C57.9325 45.8859 62.7511 40.1035 63.7149 39.6216C64.6786 39.1398 74.3159 30.9481 76.2434 29.0206C78.1708 27.0931 90.6993 16.974 91.1812 16.974C91.663 16.974 100.818 9.746 101.3 9.26414C101.686 8.87865 91.9441 5.56984 87.0251 3.96362H76.7252C73.0309 6.21233 65.546 10.8061 65.1605 11.1916C64.6786 11.6735 48.2952 21.7926 47.8133 21.7926C47.3315 21.7926 37.6942 32.8755 38.176 33.3574C38.5615 33.7429 26.4506 48.6164 20.347 56.005L10.2279 75.2796L8.3004 84.9169L7.81853 95.0361L7.33667 101.3L9.26413 108.528L13.6009 119.129Z" fill="#EA7B05"/>
<path d="M144.467 65.8276C145.804 65.3809 147.635 64.7951 150.573 64.7533C152.125 64.7128 153.925 64.6933 154.553 64.9229C155.246 65.176 156.243 65.6322 157.407 66.6121C158.362 67.4156 159.578 68.1458 159.537 68.8498C159.448 70.3689 159.307 71.3339 158.988 71.8841C158.354 72.9769 156.876 74.5676 156.044 75.4623L156.019 75.4897L156.004 75.5054C155.395 76.1607 154.57 77.0484 152.903 77.7046C151.075 78.424 149.026 79.0398 148.029 79.0307C145.607 79.0085 143.696 79.1207 142.211 78.417C141.232 77.9533 140.457 77.5986 139.705 77.0251C138.984 76.4753 138.192 75.7125 137.458 74.5989C137.027 73.9447 136.317 71.8733 137.116 70.6763C137.608 69.9387 138.008 69.196 140.405 67.8711C141.706 67.1524 143.201 66.2501 144.467 65.8276Z" fill="#E84701" stroke="black" stroke-width="3.64854" stroke-linecap="round"/>
<path d="M88.844 37.5681C89.9983 37.0405 90.9165 36.7052 97.3129 34.8919C98.5796 34.828 101.617 34.9019 102.595 34.9128C104.579 34.935 105.962 35.0346 107.173 35.1241C108.038 35.188 108.73 35.263 109.45 35.3987C110.344 35.5676 111.535 35.7688 112.36 36.137C113.17 36.4989 114.384 37.1294 115.041 37.7206C115.933 38.5234 116.181 39.2929 116.364 39.8286C116.566 40.4214 116.843 41.5113 116.825 42.4479C116.794 44.0048 116.763 44.5231 116.506 45.2278L116.492 45.2681C116.256 45.9171 115.788 47.2048 114.746 47.9059C113.322 48.8637 111.324 50.3428 110.105 51.0698C109.009 51.7234 108.155 52.3191 106.762 52.7976C105.838 53.1152 104.633 53.6582 103.326 53.9377C100.474 54.5476 97.9392 54.6286 96.5892 54.5254C95.7531 54.4615 94.4026 54.6504 90.9623 53.4259C88.8881 52.6875 87.4284 52.4571 85.8602 51.4191C83.1851 49.6482 81.898 48.8188 81.3443 47.2251C81.0581 46.4014 81.2288 45.5768 81.8674 44.3142C82.1545 43.7467 83.0126 42.0798 85.0146 40.3246C86.5986 38.9359 87.6736 38.1031 88.844 37.5681Z" fill="#E84701" stroke="black" stroke-width="3.64854" stroke-linecap="round"/>
<path d="M71.999 89.7171C72.8144 89.3443 73.463 89.1074 77.9817 87.8265C78.8765 87.7814 81.0221 87.8336 81.713 87.8413C83.1148 87.8569 84.0916 87.9273 84.9472 87.9906C85.558 88.0357 86.0474 88.0886 86.5554 88.1845C87.1875 88.3039 88.0289 88.4459 88.6113 88.7061C89.1836 88.9617 90.0412 89.4071 90.5054 89.8248C91.1357 90.3919 91.3107 90.9355 91.4399 91.314C91.5828 91.7327 91.7783 92.5027 91.7654 93.1643C91.7441 94.2642 91.7218 94.6303 91.5407 95.1281C91.3776 95.5764 91.0489 96.5143 90.2971 97.02C89.2911 97.6967 87.8793 98.7415 87.0184 99.2551C86.2445 99.7168 85.6408 100.138 84.657 100.476C84.0041 100.7 83.1532 101.084 82.2297 101.281C80.2147 101.712 78.4241 101.769 77.4704 101.696C76.8798 101.651 75.9257 101.785 73.4954 100.92C72.0301 100.398 70.9989 100.235 69.8911 99.5018C68.0013 98.2509 67.0921 97.6649 66.7009 96.5391C66.4988 95.9572 66.6193 95.3746 67.0705 94.4827C67.2733 94.0818 67.8795 92.9043 69.2938 91.6644C70.4127 90.6833 71.1722 90.095 71.999 89.7171Z" fill="#E84701" stroke="black" stroke-width="3.64759" stroke-linecap="round"/>
<path d="M111.666 63.3619C109.954 65.2826 109.072 66.3974 109.129 66.6498C109.192 66.9278 109.589 67.0731 109.934 67.1781C111.137 67.5442 114.187 67.0769 115.611 66.653C116.508 66.3859 116.968 65.642 117.199 65.1352C117.429 64.6285 117.659 64.1236 117.833 63.6168C118.007 63.1104 117.431 62.6052 117.143 62.1402C116.856 61.6757 114.45 61.8435 112.909 62.1155C112.593 62.304 112.136 62.6381 111.758 62.9146C111.381 63.191 111.095 63.3998 110.801 63.6149" stroke="black" stroke-width="3.64854" stroke-linecap="round"/>
<path d="M69.2997 18.5696L67.7434 24.5166" stroke="black" stroke-width="3.64854" stroke-linecap="round"/>
<path d="M43.88 45.774C42.3392 47.6531 40.7985 49.5321 39.9477 50.5627C39.0969 51.5933 38.9828 51.7186 38.8384 51.8457C38.694 51.9729 38.5228 52.0982 38.3464 52.2272" stroke="black" stroke-width="3.64854" stroke-linecap="round"/>
<path d="M27.7981 117.897C30.3089 119.735 32.8198 121.572 34.1988 122.602C35.5779 123.632 35.7491 123.799 35.8658 123.948C35.9825 124.096 36.0396 124.222 36.2713 124.477" stroke="black" stroke-width="3.64854" stroke-linecap="round"/>
<path d="M211.961 68.8027C209.336 70.4312 206.711 72.0597 204.532 73.2535C200.822 75.2854 198.821 75.9303 198.305 76.098C196.694 76.6212 195.658 77.5284 194.072 78.4357C192.031 79.6037 190.176 80.316 189.315 80.6728C188.071 81.1885 187.178 81.6243 186.033 81.9799C183.458 82.7799 181.644 83.5223 179.786 84.2954C178.124 84.987 175.132 86.4465 173.26 87.3449C170.74 88.5545 169.772 89.0467 168.682 89.5288C166.727 90.3941 165.276 91.1978 163.473 92.0139C161.994 92.6834 159.445 93.9575 158.008 94.6446C156.358 95.4332 154.395 96.3363 151.573 97.7269C149.354 98.8206 148.447 99.2516 147.494 99.654C145.04 100.69 142.567 102.331 141.356 103.006C139.821 103.86 138.59 104.65 137.178 105.452C135.477 106.418 133.586 107.555 131.444 108.825C129.522 109.965 128.789 110.346 127.58 111.041C126.232 111.815 125.043 112.371 123.317 113.38C121.998 114.151 119.24 115.271 117.377 116.313C115.596 117.31 114.436 118.065 113.169 118.928C112.428 119.433 111.669 119.793 110.719 120.236C109.265 120.915 108.329 121.774 107.031 122.66C105.906 123.428 104.925 123.969 103.604 124.705C100.356 126.516 98.7624 127.089 97.0315 127.66C94.9031 128.361 92.7067 129.453 91.8126 129.832C90.3608 130.449 89.0787 131.095 87.8069 131.793C86.7939 132.349 85.9627 132.826 84.7237 133.459C83.5949 134.035 82.85 134.514 81.4113 135.145C79.394 136.031 78.2987 136.452 76.9715 137.212C75.1318 138.264 73.5744 139.15 72.5879 139.66C71.8046 140.065 70.5172 140.795 69.6197 141.41C68.7737 141.99 66.7198 142.819 65.4695 143.35C64.5068 143.759 63.7697 144.257 63.0486 144.511C62.061 144.858 61.2347 145.479 58.9045 147.099C57.9989 147.729 57.1986 148.053 56.1905 148.517C55.2607 148.944 54.6048 149.402 53.9122 149.698C53.1345 150.032 52.5297 150.54 51.8372 150.816C51.1453 151.092 50.4546 151.343 49.7335 151.681C48.9043 152.069 48.2066 152.482 47.5141 152.714C46.7722 152.964 46.1316 153.367 45.439 153.6C44.6527 153.864 43.5412 154.336 42.6437 154.571C41.8511 154.777 41.1168 154.802 40.4242 154.971C39.7317 155.14 38.6993 155.225 37.5165 155.33C36.239 155.443 35.2357 155.268 34.8907 155.099C34.0376 154.683 33.2765 153.962 32.3842 152.888C32.1801 152.612 32.066 152.403 31.5507 151.648C31.0354 150.894 30.1223 149.599 29.1816 148.265" stroke="black" stroke-width="4.86472" stroke-linecap="round"/>
<path d="M212.653 67.5375C210.062 66.2316 209.025 65.7255 206.782 64.1065C205.717 63.3376 204.245 62.5647 202.629 61.6783C201.125 60.853 200.611 60.2846 199.687 59.7158C198.79 59.1635 197.615 58.5992 196.029 57.9861C194.897 57.5489 193.234 57.0378 192.28 56.7619C191.214 56.4537 190.003 55.8559 188.708 55.1821C187.718 54.6671 187.064 54.211 186.371 53.7681C185.696 53.3366 184.359 52.9052 183.316 52.3554C182.62 51.9881 181.707 51.2198 180.838 50.689C180.098 50.2369 179.282 49.8254 178.159 49.3186C177.089 48.8358 175.312 47.8464 172.689 46.3489C170.938 45.3493 169.377 44.5565 167.784 43.7935C166.971 43.4044 165.971 42.7825 163.466 40.9307C162.153 39.9598 161.298 39.6597 160.377 39.4269C159.16 39.1196 158.016 38.4399 156.832 37.5941C155.765 36.8321 154.44 36.1168 153.632 35.7581C152.604 35.3019 151.787 34.978 151.009 34.4934C149.941 33.8281 149.194 33.4596 148.3 32.9541C147.153 32.3048 146.313 31.5641 145.132 30.741C142.559 28.946 139.569 28.4413 138.244 27.8301C136.533 27.0408 136.224 26.2067 135.475 25.531C134.65 24.7874 133.689 24.4758 132.136 23.6356C129.18 22.036 128.847 21.2289 127.378 20.5121C125.922 19.8016 123.891 18.8248 122.479 18.3389C121.367 17.9566 120.146 17.3064 118.847 16.5902C117.262 15.7162 116.684 15.2819 115.963 15.006C114.991 14.6342 113.976 14.1001 112.881 13.6363C111.85 13.2002 111.036 12.8777 110.285 12.6019C109.555 12.334 108.903 11.949 108.21 11.6111C107.517 11.2733 106.713 10.8532 105.933 10.4724C105.138 10.0841 104.407 9.88144 103.714 9.69164C102.929 9.4765 102.159 9.16527 101.466 8.93245C100.724 8.68305 100.083 8.27954 99.3909 8.04672C98.3274 7.6892 96.9708 7.14074 96.2783 6.9288C95.5863 6.71704 94.8957 6.38154 94.0597 6.0437C93.3352 5.75095 92.6477 5.57932 91.9552 5.30538C91.2626 5.11495 90.7439 4.98841 90.3989 4.90427C90.2251 4.86188 90.0539 4.82012 89.7046 4.90364" stroke="black" stroke-width="4.86472" stroke-linecap="round"/>
<path d="M89.8774 4.9035C83.8891 3.38637 82.1581 3.13204 81.0635 3.02702C78.6585 2.79627 75.6528 4.09622 73.9451 4.92185C72.4368 5.65115 71.724 6.33586 71.0037 6.90399C69.2587 8.28052 67.9196 9.32963 67.3706 9.81551C66.7471 10.3673 65.7304 11.1416 64.9506 11.8394C64.2267 12.4871 63.4236 12.9991 62.3005 13.6317C61.0258 14.3498 59.9064 15.4032 58.4115 16.5192C57.5632 17.1525 56.5655 17.6808 54.9297 18.7715C51.7203 20.9114 49.6469 22.7851 49.1004 23.1426C48.125 23.7807 47.6289 24.2605 45.3307 26.0269C43.5186 27.4197 42.6141 28.4361 41.2056 29.8874C39.9019 31.2309 38.8132 32.4396 36.7114 34.5046C35.6082 35.5885 34.4902 36.8683 33.91 37.6515C33.0449 38.8195 32.3528 39.4445 31.6343 40.4131C30.9842 41.2896 29.9942 42.3497 29.4711 43.1563C28.9186 44.0083 27.9779 45.594 27.3104 46.698C26.3971 48.2085 25.7264 49.1015 24.9189 50.5345C24.4067 51.4433 23.7655 52.5179 23.0453 53.5308C22.3254 54.5432 21.6316 56.1038 19.9655 59.0058C19.2541 60.245 18.6954 61.2891 17.5731 63.2238C16.0961 65.7701 15.1176 67.5778 14.9741 67.9144C14.5917 68.8111 13.7394 70.4805 13.2734 71.3732C12.7348 72.4049 12.1208 73.7754 11.6029 74.8092C11.2349 75.5439 11.0245 76.139 10.4219 77.7378C10.028 78.7827 9.87284 79.5554 9.67052 80.3981C9.49992 81.1087 9.4682 81.7065 9.32468 82.3176C9.08467 83.3396 9.12236 84.3586 8.97883 85.2703C8.85623 86.049 8.77651 87.3929 8.63299 88.8936C8.38502 91.4863 8.77651 92.5833 8.92004 93.9758C9.19373 96.6312 8.77651 97.5611 8.60445 98.7024C8.42538 99.8903 8.25774 101.813 8.45833 103.027C8.62462 104.034 9.52354 105.07 9.81319 106.231C10.0995 107.379 10.1011 108.405 10.217 109.142C10.4014 110.316 10.734 110.893 11.0522 111.694C11.3708 112.497 11.4845 113.254 11.6868 113.993C11.8971 114.762 11.8891 115.448 12.0327 116.165C12.2004 117.004 12.3491 117.682 12.4364 118.317C12.5716 119.299 13.0408 120.299 13.1567 121.015C13.3443 122.175 13.8466 123.08 14.1933 123.758C14.6098 124.572 15.23 125.107 15.5482 125.635C15.6346 125.783 15.7488 125.95 15.9502 126.328C16.1517 126.707 16.437 127.291 16.731 128.147" stroke="black" stroke-width="4.86472" stroke-linecap="round"/>
<path d="M102.501 9.58521C98.8487 11.7148 95.1966 13.8443 92.9443 15.171C88.9958 17.4968 88.2105 18.0174 87.6027 18.5463C87.4708 18.661 87.2871 18.7361 85.8579 19.8647C84.4287 20.9934 81.7466 23.1647 80.0226 24.6591C78.2985 26.1534 77.6138 26.905 76.348 28.023C73.3565 30.665 71.2606 32.2333 70.7738 32.6528C68.5182 34.5964 66.5951 36.3216 65.4996 37.208C64.314 38.1673 63.7107 38.8953 63.2205 39.5077C62.8771 39.9368 61.7584 41.4589 60.203 43.4404C58.9359 45.0546 58.1184 46.4038 57.457 47.3306C56.7956 48.2575 55.8704 49.4406 55.0957 50.6382C53.2231 53.5331 52.7578 55.2585 52.5269 55.9361C51.9781 57.5471 50.6274 60.0668 49.7913 61.8364C49.2081 63.0707 48.7252 64.1563 48.4918 64.92C48.241 65.7403 47.8018 66.563 47.5416 67.3228C47.2705 68.1143 46.7055 68.8419 46.4755 69.3474C46.3123 69.706 45.0437 71.7774 43.3439 74.9597C42.1387 77.216 42.0366 78.204 41.9207 78.9847C41.8738 79.3007 41.7495 79.8009 41.6907 81.2699C41.6319 82.739 41.6319 85.1608 41.6605 86.5128C41.7059 88.6669 41.919 89.7616 42.0063 90.4581C42.1151 91.3258 42.2648 92.3327 42.3522 93.9555C42.4127 95.08 42.6107 96.3387 42.813 97.2694C42.977 98.0236 43.0153 99.0364 43.1588 100.388C43.3289 101.99 43.4753 103.172 43.7061 104.291C43.8509 104.993 44.1082 105.996 44.3693 106.761C44.5522 107.296 44.6858 108.066 44.9737 108.868C45.4046 110.069 45.7233 110.893 46.1262 111.736C46.6741 112.883 47.3937 113.97 47.9125 115.403C48.5622 117.197 49.3512 118.776 49.787 119.666C50.098 120.302 50.4476 120.972 51.2836 122.573C51.9434 123.836 52.9826 124.895 53.5904 125.718C54.1644 126.496 54.7153 127.132 55.2609 127.931C56.5978 129.889 56.7316 130.715 57.0498 131.455C57.4438 132.371 57.8279 133.205 58.0588 133.817C58.2605 134.352 58.5196 134.85 58.7504 135.483C59.0141 136.205 59.3842 136.958 59.6151 137.529C59.8615 138.138 60.0759 138.646 60.3353 139.153C60.6493 139.767 61.4005 140.375 61.6901 140.925C61.9599 141.437 62.3239 141.936 62.6983 142.443C62.8623 142.73 63.1283 143.362 62.9015 142.698" stroke="black" stroke-width="4.86472" stroke-linecap="round"/>
<path d="M16.9036 128.147C20.3603 134.64 21.0503 135.651 21.4272 136.243C21.8461 136.902 22.6066 138.136 23.2421 139.237C23.858 140.304 25.2523 142.519 26.2388 143.603C27.1121 144.562 27.8531 145.606 28.1998 146.134C28.6267 146.784 29.0635 147.251 29.3532 148.01C29.4682 148.43 29.5269 148.771 29.5555 149.023C29.584 149.15 29.6411 149.276 29.8728 149.658" stroke="black" stroke-width="4.86472" stroke-linecap="round"/>
<path d="M212.919 68.2925C213.721 70.856 214.2 73.5785 214.921 77.9334C215.403 80.8451 215.8 85.23 216.086 87.6418C216.515 91.2686 216.774 92.8628 217.174 95.507C217.428 97.1905 217.496 98.4813 217.296 99.6498C217.248 99.9306 217.255 100.25 217.136 100.374C217.017 100.498 216.778 100.418 216.497 100.179C216.215 99.939 215.897 99.5414 215.569 99.1318" stroke="black" stroke-width="3.72203" stroke-linecap="round"/>
<path d="M36.0742 155.992C36.3922 157.9 36.7946 159.439 37.7523 162.946C38.5523 165.876 39.6641 171.223 40.5568 174.922C41.4494 178.62 42.006 180.528 42.3324 181.631C42.6589 182.733 42.7384 182.971 42.8203 182.735" stroke="black" stroke-width="3.72203" stroke-linecap="round"/>
<path d="M46.1936 183.94C50.6051 183.138 52.6891 182.658 54.6997 182.255C55.9079 182.012 57.5078 181.695 59.9942 181.092C61.0416 180.839 62.6252 180.336 67.221 178.301C71.8168 176.266 79.37 172.689 83.4201 170.806C87.7624 168.787 89.1495 168.284 90.954 167.482C94.3369 165.978 98.3892 164.107 100.236 163.463C101.427 163.048 102.485 162.579 105.332 161.258C106.927 160.517 108.749 160.17 111.996 159.008C113.88 158.335 115.577 157.36 119.142 155.517C120.173 154.984 122.945 153.674 126.919 151.908C129.37 150.819 131.233 149.573 133.243 148.447C135.351 147.265 136.934 146.6 138.906 145.475C140.685 144.46 143.116 142.75 146.048 140.341C148.855 138.035 150.349 137.686 151.597 137.161C153.377 136.411 155.167 135.836 156.976 135.114C158.664 134.44 160.627 133.749 162.236 132.866C164.539 131.603 166.414 131.017 168.498 129.856C170.341 128.829 172.192 128.208 174.202 127.204C175.475 126.569 178.046 125.48 180.067 124.513C181.106 124.015 182.393 123.389 184.001 122.546C185.735 121.636 187.375 120.898 189.699 119.697C191.749 118.637 194.507 117.293 196.688 116.242C199.833 114.726 201.026 113.752 202.073 113.308C203.084 112.88 205.272 110.875 206.892 109.294C208.013 108.201 209.541 106.847 210.705 105.883C212.786 104.159 213.396 102.833 214.321 101.986C214.683 101.546 214.926 100.982 214.887 100.341C214.769 100.019 214.451 99.7005 214.124 99.3728" stroke="black" stroke-width="3.72203" stroke-linecap="round"/>
<path d="M15.5951 66.606C13.8291 69.7357 10.0537 76.8468 9.33089 78.1707C8.34748 79.972 7.08299 82.2666 6.4397 83.9531C5.39363 86.6956 5.23502 88.685 4.83508 90.3318C4.44285 91.9468 3.95326 95.0215 3.58946 97.8356C3.18665 100.951 3.30756 104.485 3.10759 107.672C2.76735 113.093 3.30756 114.224 3.70751 116.55C3.99561 118.226 4.03036 119.524 4.27009 121.33C4.52118 123.222 4.83026 125.774 5.23382 127.717C5.66335 129.785 6.03492 131.889 6.35777 133.497C6.96469 136.521 7.48052 138.071 7.92383 139.604C8.44932 141.42 9.40798 144.095 10.1308 146.026C11.1264 148.686 12.1401 150.364 12.7015 151.411C13.2297 152.395 13.7448 153.496 14.1881 154.543C14.7129 155.782 15.5903 157.51 16.1155 158.639C16.5785 159.634 17.1178 160.724 17.5611 161.771C17.9891 162.781 18.5634 163.697 19.1669 164.662C19.3106 164.892 19.3681 165.143 19.5283 165.305C20.1885 165.975 21.3727 165.947 23.0978 167.63C24.1084 168.616 24.7457 169.879 25.271 170.926C25.8008 171.982 26.5961 172.852 27.1575 173.817C27.7406 174.82 28.4416 175.903 29.0849 176.949C29.6517 177.872 31.2461 178.871 32.4568 179.842C33.3484 180.557 34.3011 181.685 35.348 182.652C36.1405 183.385 37.2742 183.617 38.2392 183.979C39.4 184.413 40.6473 184.981 41.6917 185.185C43.059 185.465 43.7818 185.627 44.2625 185.547C44.5046 185.468 44.7431 185.309 44.9889 185.145" stroke="black" stroke-width="4.78547" stroke-linecap="round"/>
<path d="M145.458 139.367C147.366 135.551 149.274 131.735 151.37 128.576C155.257 122.719 158.145 120.336 158.505 119.935C158.945 119.693 159.35 119.293 159.591 118.692C159.673 118.409 159.673 118.17 159.673 117.924" stroke="black" stroke-width="3.19031" stroke-linecap="round"/>
<path d="M174.611 108.769L175.815 104.914" stroke="black" stroke-width="3.19031" stroke-linecap="round"/>
<path d="M71.2505 162.497C72.3636 161.384 74.5272 159.459 77.0558 157.252C77.9942 156.397 78.2327 156.079 78.4748 155.875C78.717 155.671 78.9555 155.592 79.4422 155.028" stroke="black" stroke-width="3.19031" stroke-linecap="round"/>
<path d="M133.411 46.8494C133.888 47.2469 134.365 47.6444 134.73 47.889C135.095 48.1335 135.334 48.213 135.576 48.3335C135.818 48.454 136.057 48.613 136.543 49.0178" stroke="black" stroke-width="3.19031" stroke-linecap="round"/>
<path d="M116.064 95.2769V95.7587" stroke="black" stroke-width="3.19031" stroke-linecap="round"/>
</svg>
